<svg width="15" height="15" viewBox="0 0 15 15" fill="none" xmlns="http://www.w3.org/2000/svg">
<g clip-path="url(#clip0_7444_20092)">
<path d="M10.1825 12.8238V11.6667C10.1825 11.053 9.93867 10.4643 9.50468 10.0303C9.07068 9.59635 8.48206 9.35254 7.86831 9.35254H3.23996C2.6262 9.35254 2.03758 9.59635 1.60359 10.0303C1.1696 10.4643 0.925781 11.053 0.925781 11.6667V12.8238" stroke="white" stroke-width="0.694253" stroke-linecap="round" stroke-linejoin="round"/>
<path d="M5.56027 7.03851C6.83835 7.03851 7.87445 6.00242 7.87445 4.72433C7.87445 3.44625 6.83835 2.41016 5.56027 2.41016C4.28219 2.41016 3.24609 3.44625 3.24609 4.72433C3.24609 6.00242 4.28219 7.03851 5.56027 7.03851Z" stroke="white" stroke-width="0.694253" stroke-linecap="round" stroke-linejoin="round"/>
<path d="M13.6614 12.8238V11.6667C13.661 11.154 13.4904 10.6559 13.1762 10.2506C12.8621 9.84536 12.4222 9.55592 11.9258 9.42773" stroke="white" stroke-width="0.694253" stroke-linecap="round" stroke-linejoin="round"/>
<path d="M9.60547 2.48438C10.1033 2.61183 10.5445 2.90133 10.8595 3.30724C11.1746 3.71316 11.3456 4.21239 11.3456 4.72623C11.3456 5.24008 11.1746 5.73931 10.8595 6.14522C10.5445 6.55114 10.1033 6.84064 9.60547 6.96809" stroke="white" stroke-width="0.694253" stroke-linecap="round" stroke-linejoin="round"/>
</g>
<defs>
<clipPath id="clip0_7444_20092">
<rect x="0.351562" y="0.675781" width="13.8851" height="13.8851" fill="white"/>
</clipPath>
</defs>
</svg>
