<svg width="18" height="18" viewBox="0 0 18 18" fill="none" xmlns="http://www.w3.org/2000/svg">
<path d="M13.8828 6.97119C15.5397 6.97119 16.8828 5.62805 16.8828 3.97119C16.8828 2.31434 15.5397 0.971191 13.8828 0.971191C12.226 0.971191 10.8828 2.31434 10.8828 3.97119C10.8828 5.62805 12.226 6.97119 13.8828 6.97119Z" stroke="black" stroke-opacity="0.7" stroke-linecap="round" stroke-linejoin="round"/>
<path d="M3.88281 16.9712C5.53967 16.9712 6.88281 15.628 6.88281 13.9712C6.88281 12.3143 5.53967 10.9712 3.88281 10.9712C2.22596 10.9712 0.882812 12.3143 0.882812 13.9712C0.882812 15.628 2.22596 16.9712 3.88281 16.9712Z" stroke="black" stroke-opacity="0.7" stroke-linecap="round" stroke-linejoin="round"/>
<path d="M10.8828 10.9712H16.8828V15.9712C16.8828 16.2364 16.7775 16.4908 16.5899 16.6783C16.4024 16.8658 16.148 16.9712 15.8828 16.9712H11.8828C11.6176 16.9712 11.3632 16.8658 11.1757 16.6783C10.9882 16.4908 10.8828 16.2364 10.8828 15.9712V10.9712ZM0.882812 0.971191H6.88281V5.97119C6.88281 6.23641 6.77746 6.49076 6.58992 6.6783C6.40238 6.86583 6.14803 6.97119 5.88281 6.97119H1.88281C1.6176 6.97119 1.36324 6.86583 1.17571 6.6783C0.98817 6.49076 0.882812 6.23641 0.882812 5.97119V0.971191Z" stroke="black" stroke-opacity="0.7" stroke-linecap="round" stroke-linejoin="round"/>
</svg>
