<svg width="17" height="17" viewBox="0 0 17 17" fill="none" xmlns="http://www.w3.org/2000/svg">
<path d="M8.1237 15.512C11.8056 15.512 14.7904 12.5273 14.7904 8.84538C14.7904 5.16348 11.8056 2.17871 8.1237 2.17871C4.4418 2.17871 1.45703 5.16348 1.45703 8.84538C1.45703 12.5273 4.4418 15.512 8.1237 15.512Z" stroke="black" stroke-opacity="0.7" stroke-linecap="round" stroke-linejoin="round"/>
<path d="M5.45677 2.8457H6.12344C4.82344 6.73904 4.82344 10.9524 6.12344 14.8457H5.45677" stroke="black" stroke-opacity="0.7" stroke-linecap="round" stroke-linejoin="round"/>
<path d="M10.125 2.8457C11.425 6.73904 11.425 10.9524 10.125 14.8457" stroke="black" stroke-opacity="0.7" stroke-linecap="round" stroke-linejoin="round"/>
<path d="M2.125 11.5124V10.8457C6.01833 12.1457 10.2317 12.1457 14.125 10.8457V11.5124" stroke="black" stroke-opacity="0.7" stroke-linecap="round" stroke-linejoin="round"/>
<path d="M2.125 6.84609C6.01833 5.54609 10.2317 5.54609 14.125 6.84609" stroke="black" stroke-opacity="0.7" stroke-linecap="round" stroke-linejoin="round"/>
</svg>
