<svg width="14" height="16" viewBox="0 0 14 16" fill="none" xmlns="http://www.w3.org/2000/svg">
<path d="M1.125 7.85747C1.125 6.67304 1.125 6.08083 1.36025 5.56026C1.59551 5.0397 2.03731 4.6543 2.92093 3.88348L3.77807 3.13576C5.3752 1.74252 6.17377 1.0459 7.125 1.0459C8.07623 1.0459 8.8748 1.74252 10.4719 3.13576L11.3291 3.88348C12.2127 4.6543 12.6545 5.0397 12.8897 5.56026C13.125 6.08083 13.125 6.67304 13.125 7.85747V11.5565C13.125 13.2014 13.125 14.0239 12.6229 14.5349C12.1208 15.0459 11.3127 15.0459 9.69643 15.0459H4.55357C2.93733 15.0459 2.12921 15.0459 1.6271 14.5349C1.125 14.0239 1.125 13.2014 1.125 11.5565V7.85747Z" stroke="black" stroke-opacity="0.7"/>
<path d="M9.26618 15.0456V10.8115C9.26618 10.2592 8.81847 9.81152 8.26618 9.81152H5.98047C5.42818 9.81152 4.98047 10.2592 4.98047 10.8115V15.0456" stroke="black" stroke-opacity="0.7" stroke-linecap="round" stroke-linejoin="round"/>
</svg>
