<svg width="17" height="17" viewBox="0 0 17 17" fill="none" xmlns="http://www.w3.org/2000/svg">
<path d="M8.52923 2.06055H8.2227C7.85317 2.06055 7.49877 2.19871 7.23747 2.44464C6.97617 2.69057 6.82937 3.02412 6.82937 3.37191V3.48994C6.82912 3.7199 6.76462 3.94576 6.64235 4.14486C6.52007 4.34395 6.34431 4.50928 6.13271 4.62427L5.83315 4.78819C5.62133 4.90328 5.38106 4.96388 5.13648 4.96388C4.8919 4.96388 4.65163 4.90328 4.43982 4.78819L4.33532 4.73573C4.0156 4.56215 3.63576 4.51506 3.27918 4.6048C2.9226 4.69454 2.61843 4.91377 2.43343 5.21438L2.28016 5.46354C2.09573 5.76446 2.0457 6.12195 2.14105 6.45755C2.23639 6.79316 2.46933 7.07944 2.78873 7.25355L2.89323 7.31912C3.10381 7.43355 3.27891 7.59785 3.40113 7.79569C3.52335 7.99354 3.58842 8.21804 3.58989 8.4469V8.78129C3.59087 9.01237 3.52695 9.23959 3.40461 9.43993C3.28227 9.64028 3.10585 9.80665 2.89323 9.92218L2.78873 9.98119C2.46933 10.1553 2.23639 10.4416 2.14105 10.7772C2.0457 11.1128 2.09573 11.4703 2.28016 11.7712L2.43343 12.0204C2.61843 12.321 2.9226 12.5402 3.27918 12.6299C3.63576 12.7197 4.0156 12.6726 4.33532 12.499L4.43982 12.4466C4.65163 12.3315 4.8919 12.2709 5.13648 12.2709C5.38106 12.2709 5.62133 12.3315 5.83315 12.4466L6.13271 12.6105C6.34431 12.7255 6.52007 12.8908 6.64235 13.0899C6.76462 13.289 6.82912 13.5148 6.82937 13.7448V13.8628C6.82937 14.2106 6.97617 14.5442 7.23747 14.7901C7.49877 15.036 7.85317 15.1742 8.2227 15.1742H8.52923C8.89877 15.1742 9.25316 15.036 9.51446 14.7901C9.77576 14.5442 9.92256 14.2106 9.92256 13.8628V13.7448C9.92281 13.5148 9.98731 13.289 10.1096 13.0899C10.2319 12.8908 10.4076 12.7255 10.6192 12.6105L10.9188 12.4466C11.1306 12.3315 11.3709 12.2709 11.6155 12.2709C11.86 12.2709 12.1003 12.3315 12.3121 12.4466L12.4166 12.499C12.7363 12.6726 13.1162 12.7197 13.4728 12.6299C13.8293 12.5402 14.1335 12.321 14.3185 12.0204L14.4718 11.7647C14.6562 11.4637 14.7062 11.1062 14.6109 10.7706C14.5155 10.435 14.2826 10.1488 13.9632 9.97464L13.8587 9.92218C13.6461 9.80665 13.4697 9.64028 13.3473 9.43993C13.225 9.23959 13.1611 9.01237 13.162 8.78129V8.45345C13.1611 8.22238 13.225 7.99516 13.3473 7.79481C13.4697 7.59447 13.6461 7.4281 13.8587 7.31257L13.9632 7.25355C14.2826 7.07944 14.5155 6.79316 14.6109 6.45755C14.7062 6.12195 14.6562 5.76446 14.4718 5.46354L14.3185 5.21438C14.1335 4.91377 13.8293 4.69454 13.4728 4.6048C13.1162 4.51506 12.7363 4.56215 12.4166 4.73573L12.3121 4.78819C12.1003 4.90328 11.86 4.96388 11.6155 4.96388C11.3709 4.96388 11.1306 4.90328 10.9188 4.78819L10.6192 4.62427C10.4076 4.50928 10.2319 4.34395 10.1096 4.14486C9.98731 3.94576 9.92281 3.7199 9.92256 3.48994V3.37191C9.92256 3.02412 9.77576 2.69057 9.51446 2.44464C9.25316 2.19871 8.89877 2.06055 8.52923 2.06055V2.06055Z" stroke="black" stroke-opacity="0.7" stroke-width="0.694253" stroke-linecap="round" stroke-linejoin="round"/>
<path d="M8.38296 10.5845C9.53723 10.5845 10.4729 9.70381 10.4729 8.61744C10.4729 7.53107 9.53723 6.65039 8.38296 6.65039C7.22869 6.65039 6.29297 7.53107 6.29297 8.61744C6.29297 9.70381 7.22869 10.5845 8.38296 10.5845Z" stroke="black" stroke-opacity="0.7" stroke-width="0.694253" stroke-linecap="round" stroke-linejoin="round"/>
</svg>
