<svg width="12" height="14" viewBox="0 0 12 14" fill="none" xmlns="http://www.w3.org/2000/svg">
<path d="M4.0651 9.45996L5.39844 10.7933L8.0651 8.12663M6.73177 1.45996H3.53177C2.7851 1.45996 2.41177 1.45996 2.12644 1.60529C1.87554 1.73309 1.67156 1.93706 1.54377 2.18796C1.39844 2.47329 1.39844 2.84663 1.39844 3.59329V11.3266C1.39844 12.0733 1.39844 12.4466 1.54377 12.732C1.6716 12.9828 1.87557 13.1868 2.12644 13.3146C2.4111 13.46 2.78444 13.46 3.52977 13.46H8.60044C9.34577 13.46 9.71844 13.46 10.0031 13.3146C10.2544 13.1866 10.4584 12.9826 10.5864 12.732C10.7318 12.4466 10.7318 12.0746 10.7318 11.3293V5.45996M6.73177 1.45996C6.92244 1.46196 7.04244 1.46929 7.15777 1.49663C7.29377 1.52996 7.42377 1.58329 7.5431 1.65663C7.67777 1.73929 7.7931 1.85463 8.0231 2.08529L10.1071 4.16863C10.3378 4.39929 10.4524 4.51396 10.5351 4.64863C10.6084 4.76863 10.6618 4.89796 10.6951 5.03396C10.7218 5.14929 10.7298 5.26996 10.7318 5.45996M6.73177 1.45996V3.32663C6.73177 4.07329 6.73177 4.44663 6.8771 4.73196C7.00493 4.98283 7.2089 5.1868 7.45977 5.31463C7.74444 5.45996 8.11777 5.45996 8.8631 5.45996H10.7318" stroke="black" stroke-opacity="0.7" stroke-linecap="round" stroke-linejoin="round"/>
</svg>
