<svg width="15" height="17" viewBox="0 0 15 17" fill="none" xmlns="http://www.w3.org/2000/svg">
<g clip-path="url(#clip0_12748_5983)">
<path d="M10.1864 12.9376V11.7805C10.1864 11.1667 9.94257 10.5781 9.50858 10.1441C9.07459 9.71012 8.48597 9.46631 7.87221 9.46631H3.24386C2.63011 9.46631 2.04149 9.71012 1.60749 10.1441C1.1735 10.5781 0.929688 11.1667 0.929688 11.7805V12.9376" stroke="black" stroke-opacity="0.7" stroke-width="0.694253" stroke-linecap="round" stroke-linejoin="round"/>
<path d="M5.56418 7.15228C6.84226 7.15228 7.87835 6.11619 7.87835 4.8381C7.87835 3.56002 6.84226 2.52393 5.56418 2.52393C4.28609 2.52393 3.25 3.56002 3.25 4.8381C3.25 6.11619 4.28609 7.15228 5.56418 7.15228Z" stroke="black" stroke-opacity="0.7" stroke-width="0.694253" stroke-linecap="round" stroke-linejoin="round"/>
<path d="M13.6575 12.9371V11.78C13.6571 11.2672 13.4865 10.7691 13.1723 10.3639C12.8582 9.95864 12.4183 9.6692 11.9219 9.54102" stroke="black" stroke-opacity="0.7" stroke-width="0.694253" stroke-linecap="round" stroke-linejoin="round"/>
<path d="M9.60938 2.59863C10.1072 2.72609 10.5484 3.01559 10.8634 3.4215C11.1785 3.82741 11.3495 4.32665 11.3495 4.84049C11.3495 5.35434 11.1785 5.85357 10.8634 6.25948C10.5484 6.66539 10.1072 6.9549 9.60938 7.08235" stroke="black" stroke-opacity="0.7" stroke-width="0.694253" stroke-linecap="round" stroke-linejoin="round"/>
</g>
<defs>
<clipPath id="clip0_12748_5983">
<rect x="0.351562" y="0.789551" width="13.8851" height="13.8851" fill="white"/>
</clipPath>
</defs>
</svg>
