<svg width="22" height="21" viewBox="0 0 22 21" fill="none" xmlns="http://www.w3.org/2000/svg">
<path d="M10.5625 13.6299V6.06113L8.52375 8.09987L7.90425 7.47162L11 4.375L14.0966 7.47162L13.4771 8.10075L11.4375 6.06113V13.6299H10.5625ZM6.289 16.625C5.88592 16.625 5.54962 16.4902 5.28012 16.2207C5.01062 15.9513 4.87558 15.6147 4.875 15.211V13.0909H5.75V15.211C5.75 15.3458 5.806 15.4694 5.918 15.582C6.03 15.6946 6.15337 15.7506 6.28812 15.75H15.7119C15.846 15.75 15.9694 15.694 16.082 15.582C16.1946 15.47 16.2506 15.3463 16.25 15.211V13.0909H17.125V15.211C17.125 15.6141 16.9902 15.9504 16.7207 16.2199C16.4513 16.4894 16.1147 16.6244 15.711 16.625H6.289Z" fill="#344054"/>
</svg>
