<svg width="540" height="256" viewBox="0 0 540 256" fill="none" xmlns="http://www.w3.org/2000/svg">
<rect width="540" height="256" rx="16" fill="white"/>
<path d="M38.4318 35.7273C38.4318 37.2945 38.1383 38.6368 37.5511 39.7543C36.9688 40.867 36.1733 41.7192 35.1648 42.3111C34.161 42.9029 33.0223 43.1989 31.7486 43.1989C30.4749 43.1989 29.3338 42.9029 28.3253 42.3111C27.3215 41.7145 26.526 40.8598 25.9389 39.7472C25.3565 38.6297 25.0653 37.2898 25.0653 35.7273C25.0653 34.16 25.3565 32.8201 25.9389 31.7074C26.526 30.59 27.3215 29.7353 28.3253 29.1435C29.3338 28.5516 30.4749 28.2557 31.7486 28.2557C33.0223 28.2557 34.161 28.5516 35.1648 29.1435C36.1733 29.7353 36.9688 30.59 37.5511 31.7074C38.1383 32.8201 38.4318 34.16 38.4318 35.7273ZM35.7827 35.7273C35.7827 34.6241 35.6098 33.6937 35.2642 32.9361C34.9233 32.1738 34.4498 31.5985 33.8438 31.2102C33.2377 30.8172 32.5393 30.6207 31.7486 30.6207C30.9579 30.6207 30.2595 30.8172 29.6534 31.2102C29.0473 31.5985 28.5715 32.1738 28.2259 32.9361C27.8849 33.6937 27.7145 34.6241 27.7145 35.7273C27.7145 36.8305 27.8849 37.7633 28.2259 38.5256C28.5715 39.2831 29.0473 39.8584 29.6534 40.2514C30.2595 40.6397 30.9579 40.8338 31.7486 40.8338C32.5393 40.8338 33.2377 40.6397 33.8438 40.2514C34.4498 39.8584 34.9233 39.2831 35.2642 38.5256C35.6098 37.7633 35.7827 36.8305 35.7827 35.7273ZM40.6093 43V32.0909H43.1022V33.9091H43.2158C43.4147 33.2794 43.7556 32.794 44.2386 32.4531C44.7263 32.1075 45.2826 31.9347 45.9076 31.9347C46.0496 31.9347 46.2083 31.9418 46.3835 31.956C46.5634 31.9654 46.7125 31.982 46.8309 32.0057V34.3707C46.722 34.3329 46.5492 34.2997 46.3124 34.2713C46.0804 34.2382 45.8555 34.2216 45.6377 34.2216C45.169 34.2216 44.7476 34.3234 44.3735 34.527C44.0042 34.7259 43.713 35.0028 43.4999 35.358C43.2869 35.7131 43.1803 36.1226 43.1803 36.5866V43H40.6093ZM51.9381 43.1918C51.0811 43.1918 50.314 42.9716 49.6369 42.5312C48.9598 42.0909 48.4248 41.4517 48.0318 40.6136C47.6388 39.7756 47.4423 38.7576 47.4423 37.5597C47.4423 36.3475 47.6412 35.3248 48.0389 34.4915C48.4414 33.6534 48.9835 33.0213 49.6653 32.5952C50.3472 32.1643 51.1071 31.9489 51.9452 31.9489C52.5844 31.9489 53.1099 32.0578 53.5219 32.2756C53.9338 32.4886 54.2605 32.7467 54.502 33.0497C54.7435 33.348 54.9305 33.6297 55.0631 33.8949H55.1696V28.4545H57.7477V43H55.2193V41.2812H55.0631C54.9305 41.5464 54.7387 41.8281 54.4878 42.1264C54.2368 42.42 53.9054 42.6709 53.4935 42.8793C53.0815 43.0876 52.5631 43.1918 51.9381 43.1918ZM52.6554 41.0824C53.1999 41.0824 53.6639 40.9356 54.0474 40.642C54.431 40.3437 54.7222 39.9295 54.921 39.3991C55.1199 38.8688 55.2193 38.2509 55.2193 37.5455C55.2193 36.84 55.1199 36.2268 54.921 35.706C54.7269 35.1851 54.4381 34.7803 54.0545 34.4915C53.6758 34.2027 53.2094 34.0582 52.6554 34.0582C52.0825 34.0582 51.6043 34.2074 51.2207 34.5057C50.8372 34.804 50.5484 35.2159 50.3543 35.7415C50.1601 36.267 50.0631 36.8684 50.0631 37.5455C50.0631 38.2273 50.1601 38.8357 50.3543 39.3707C50.5531 39.901 50.8443 40.3201 51.2278 40.6278C51.6161 40.9309 52.092 41.0824 52.6554 41.0824ZM65.117 43.2131C64.0232 43.2131 63.0786 42.9858 62.2832 42.5312C61.4924 42.072 60.884 41.4233 60.4579 40.5852C60.0317 39.7424 59.8187 38.7505 59.8187 37.6094C59.8187 36.4872 60.0317 35.5024 60.4579 34.6548C60.8888 33.8026 61.4901 33.1397 62.2619 32.6662C63.0336 32.188 63.9404 31.9489 64.982 31.9489C65.6544 31.9489 66.2889 32.0578 66.8854 32.2756C67.4868 32.4886 68.0171 32.8201 68.4764 33.2699C68.9404 33.7197 69.3049 34.2926 69.5701 34.9886C69.8353 35.6799 69.9678 36.5038 69.9678 37.4602V38.2486H61.0261V36.5156H67.5033C67.4986 36.0232 67.3921 35.5852 67.1837 35.2017C66.9754 34.8134 66.6842 34.508 66.3102 34.2855C65.9408 34.063 65.51 33.9517 65.0175 33.9517C64.492 33.9517 64.0303 34.0795 63.6326 34.3352C63.2349 34.5862 62.9247 34.9176 62.7022 35.3295C62.4844 35.7367 62.3731 36.1842 62.3684 36.6719V38.1847C62.3684 38.8191 62.4844 39.3636 62.7164 39.8182C62.9484 40.268 63.2728 40.6136 63.6894 40.8551C64.1061 41.0919 64.5938 41.2102 65.1525 41.2102C65.5265 41.2102 65.8651 41.1581 66.1681 41.054C66.4711 40.9451 66.7339 40.7865 66.9565 40.5781C67.179 40.3698 67.3471 40.1117 67.4607 39.804L69.8613 40.0739C69.7098 40.7083 69.421 41.2623 68.9948 41.7358C68.5734 42.2045 68.0336 42.5691 67.3755 42.8295C66.7174 43.0852 65.9645 43.2131 65.117 43.2131ZM71.9429 43V32.0909H74.4358V33.9091H74.5494C74.7483 33.2794 75.0892 32.794 75.5722 32.4531C76.0598 32.1075 76.6162 31.9347 77.2412 31.9347C77.3832 31.9347 77.5419 31.9418 77.717 31.956C77.897 31.9654 78.0461 31.982 78.1645 32.0057V34.3707C78.0556 34.3329 77.8828 34.2997 77.646 34.2713C77.414 34.2382 77.1891 34.2216 76.9713 34.2216C76.5026 34.2216 76.0812 34.3234 75.7071 34.527C75.3378 34.7259 75.0466 35.0028 74.8335 35.358C74.6205 35.7131 74.5139 36.1226 74.5139 36.5866V43H71.9429ZM92.452 32.4531C92.3857 31.8329 92.1063 31.3499 91.6139 31.0043C91.1262 30.6586 90.4918 30.4858 89.7105 30.4858C89.1613 30.4858 88.6902 30.5687 88.2972 30.7344C87.9042 30.9001 87.6035 31.125 87.3952 31.4091C87.1868 31.6932 87.0803 32.0175 87.0756 32.3821C87.0756 32.6851 87.1442 32.9479 87.2815 33.1705C87.4236 33.393 87.6153 33.5824 87.8568 33.7386C88.0983 33.8902 88.3658 34.018 88.6594 34.1222C88.9529 34.2263 89.2489 34.3139 89.5472 34.3849L90.9108 34.7259C91.46 34.8537 91.988 35.0265 92.4946 35.2443C93.006 35.4621 93.4629 35.7367 93.8653 36.0682C94.2725 36.3996 94.5945 36.7997 94.8312 37.2685C95.068 37.7372 95.1864 38.2865 95.1864 38.9162C95.1864 39.7685 94.9686 40.5189 94.533 41.1676C94.0973 41.8116 93.4676 42.3158 92.6437 42.6804C91.8246 43.0402 90.8327 43.2202 89.6679 43.2202C88.5363 43.2202 87.5538 43.045 86.7205 42.6946C85.8919 42.3442 85.2432 41.8329 84.7744 41.1605C84.3104 40.4882 84.0595 39.669 84.0216 38.7031H86.6139C86.6518 39.2098 86.808 39.6312 87.0827 39.9673C87.3573 40.3035 87.7148 40.5545 88.1551 40.7202C88.6002 40.8859 89.0973 40.9688 89.6466 40.9688C90.2195 40.9688 90.7214 40.8835 91.1523 40.7131C91.5879 40.5379 91.9288 40.2964 92.175 39.9886C92.4212 39.6761 92.5467 39.3116 92.5514 38.8949C92.5467 38.5161 92.4354 38.2036 92.2176 37.9574C91.9998 37.7064 91.6944 37.4981 91.3014 37.3324C90.9132 37.1619 90.4586 37.0104 89.9378 36.8778L88.283 36.4517C87.085 36.1439 86.1381 35.6776 85.442 35.0526C84.7508 34.4228 84.4051 33.5871 84.4051 32.5455C84.4051 31.6884 84.6371 30.938 85.1011 30.294C85.5699 29.6501 86.2067 29.1506 87.0116 28.7955C87.8166 28.4356 88.728 28.2557 89.746 28.2557C90.7782 28.2557 91.6826 28.4356 92.4591 28.7955C93.2403 29.1506 93.8535 29.6454 94.2986 30.2798C94.7437 30.9096 94.9733 31.634 94.9875 32.4531H92.452ZM100.361 43.2202C99.6697 43.2202 99.0471 43.0971 98.4931 42.8509C97.9439 42.5999 97.5083 42.2306 97.1863 41.7429C96.8691 41.2552 96.7104 40.6539 96.7104 39.9389C96.7104 39.3234 96.8241 38.8144 97.0513 38.4119C97.2786 38.0095 97.5888 37.6875 97.9817 37.446C98.3747 37.2045 98.8174 37.0223 99.3099 36.8991C99.807 36.7713 100.321 36.679 100.851 36.6222C101.49 36.5559 102.009 36.4967 102.406 36.4446C102.804 36.3878 103.093 36.3026 103.273 36.1889C103.458 36.0705 103.55 35.8883 103.55 35.642V35.5994C103.55 35.0644 103.391 34.6501 103.074 34.3565C102.757 34.063 102.3 33.9162 101.703 33.9162C101.074 33.9162 100.574 34.0535 100.205 34.3281C99.8402 34.6027 99.594 34.9271 99.4661 35.3011L97.0656 34.9602C97.2549 34.2973 97.5674 33.7434 98.0031 33.2983C98.4387 32.8485 98.9713 32.5123 99.6011 32.2898C100.231 32.0625 100.927 31.9489 101.689 31.9489C102.215 31.9489 102.738 32.0104 103.259 32.1335C103.78 32.2566 104.255 32.4602 104.686 32.7443C105.117 33.0237 105.463 33.4048 105.723 33.8878C105.988 34.3707 106.121 34.9744 106.121 35.6989V43H103.649V41.5014H103.564C103.408 41.8045 103.188 42.0885 102.904 42.3537C102.624 42.6141 102.272 42.8248 101.845 42.9858C101.424 43.142 100.929 43.2202 100.361 43.2202ZM101.029 41.331C101.545 41.331 101.992 41.2292 102.371 41.0256C102.75 40.8172 103.041 40.5426 103.245 40.2017C103.453 39.8608 103.557 39.4891 103.557 39.0866V37.8011C103.477 37.8674 103.339 37.929 103.145 37.9858C102.956 38.0426 102.743 38.0923 102.506 38.1349C102.269 38.1776 102.035 38.2154 101.803 38.2486C101.571 38.2817 101.37 38.3101 101.199 38.3338C100.816 38.3859 100.472 38.4711 100.169 38.5895C99.8662 38.7079 99.6271 38.8736 99.4519 39.0866C99.2767 39.295 99.1891 39.5649 99.1891 39.8963C99.1891 40.3698 99.362 40.7273 99.7076 40.9688C100.053 41.2102 100.494 41.331 101.029 41.331ZM111.077 28.4545V43H108.506V28.4545H111.077ZM118.351 43.2131C117.257 43.2131 116.312 42.9858 115.517 42.5312C114.726 42.072 114.118 41.4233 113.691 40.5852C113.265 39.7424 113.052 38.7505 113.052 37.6094C113.052 36.4872 113.265 35.5024 113.691 34.6548C114.122 33.8026 114.724 33.1397 115.495 32.6662C116.267 32.188 117.174 31.9489 118.216 31.9489C118.888 31.9489 119.522 32.0578 120.119 32.2756C120.72 32.4886 121.251 32.8201 121.71 33.2699C122.174 33.7197 122.539 34.2926 122.804 34.9886C123.069 35.6799 123.201 36.5038 123.201 37.4602V38.2486H114.26V36.5156H120.737C120.732 36.0232 120.626 35.5852 120.417 35.2017C120.209 34.8134 119.918 34.508 119.544 34.2855C119.174 34.063 118.744 33.9517 118.251 33.9517C117.726 33.9517 117.264 34.0795 116.866 34.3352C116.468 34.5862 116.158 34.9176 115.936 35.3295C115.718 35.7367 115.607 36.1842 115.602 36.6719V38.1847C115.602 38.8191 115.718 39.3636 115.95 39.8182C116.182 40.268 116.506 40.6136 116.923 40.8551C117.34 41.0919 117.827 41.2102 118.386 41.2102C118.76 41.2102 119.099 41.1581 119.402 41.054C119.705 40.9451 119.968 40.7865 120.19 40.5781C120.413 40.3698 120.581 40.1117 120.694 39.804L123.095 40.0739C122.943 40.7083 122.655 41.2623 122.228 41.7358C121.807 42.2045 121.267 42.5691 120.609 42.8295C119.951 43.0852 119.198 43.2131 118.351 43.2131ZM133.799 34.9744L131.455 35.2301C131.389 34.9934 131.273 34.7708 131.107 34.5625C130.946 34.3542 130.728 34.1861 130.453 34.0582C130.179 33.9304 129.843 33.8665 129.445 33.8665C128.91 33.8665 128.46 33.9825 128.096 34.2145C127.736 34.4465 127.558 34.7472 127.563 35.1165C127.558 35.4337 127.674 35.6918 127.911 35.8906C128.152 36.0895 128.55 36.2528 129.104 36.3807L130.965 36.7784C131.997 37.0009 132.764 37.3537 133.266 37.8366C133.773 38.3196 134.028 38.9517 134.033 39.733C134.028 40.4195 133.827 41.0256 133.429 41.5511C133.036 42.072 132.489 42.4792 131.789 42.7727C131.088 43.0663 130.283 43.2131 129.374 43.2131C128.039 43.2131 126.964 42.9337 126.15 42.375C125.335 41.8116 124.85 41.0279 124.694 40.0241L127.201 39.7827C127.314 40.2751 127.556 40.6468 127.925 40.8977C128.294 41.1487 128.775 41.2741 129.367 41.2741C129.978 41.2741 130.468 41.1487 130.837 40.8977C131.211 40.6468 131.398 40.3366 131.398 39.9673C131.398 39.6548 131.277 39.3968 131.036 39.1932C130.799 38.9896 130.43 38.8333 129.928 38.7244L128.067 38.3338C127.021 38.116 126.247 37.7491 125.745 37.233C125.243 36.7121 124.994 36.054 124.999 35.2585C124.994 34.5862 125.176 34.0038 125.546 33.5114C125.92 33.0142 126.438 32.6307 127.101 32.3608C127.769 32.0862 128.538 31.9489 129.409 31.9489C130.688 31.9489 131.694 32.2211 132.428 32.7656C133.167 33.3101 133.623 34.0464 133.799 34.9744Z" fill="#131313"/>
<path d="M458.358 31.3182H459.77L462.594 36.071H462.713L465.537 31.3182H466.949L463.27 37.304V41.5H462.037V37.304L458.358 31.3182ZM470.206 41.6591C469.47 41.6591 468.836 41.4967 468.302 41.1719C467.772 40.8438 467.362 40.3864 467.074 39.7997C466.789 39.2098 466.646 38.5237 466.646 37.7415C466.646 36.9593 466.789 36.2699 467.074 35.6733C467.362 35.0734 467.763 34.6061 468.277 34.2713C468.794 33.9332 469.397 33.7642 470.087 33.7642C470.484 33.7642 470.877 33.8305 471.265 33.9631C471.653 34.0956 472.006 34.3111 472.324 34.6094C472.642 34.9044 472.896 35.2955 473.085 35.7827C473.274 36.2699 473.368 36.8698 473.368 37.5824V38.0795H467.482V37.0653H472.175C472.175 36.6345 472.089 36.25 471.916 35.9119C471.747 35.5739 471.505 35.3071 471.19 35.1115C470.879 34.916 470.511 34.8182 470.087 34.8182C469.619 34.8182 469.215 34.9342 468.874 35.1662C468.536 35.3949 468.275 35.6932 468.093 36.0611C467.911 36.429 467.82 36.8234 467.82 37.2443V37.9205C467.82 38.4972 467.919 38.986 468.118 39.3871C468.32 39.7848 468.6 40.0881 468.958 40.2969C469.316 40.5024 469.732 40.6051 470.206 40.6051C470.514 40.6051 470.793 40.562 471.041 40.4759C471.293 40.3864 471.51 40.2538 471.693 40.0781C471.875 39.8991 472.016 39.6771 472.115 39.4119L473.249 39.7301C473.129 40.1146 472.929 40.4527 472.647 40.7443C472.365 41.0327 472.017 41.258 471.603 41.4205C471.189 41.5795 470.723 41.6591 470.206 41.6591ZM477.1 41.679C476.616 41.679 476.177 41.5878 475.782 41.4055C475.388 41.2199 475.075 40.9531 474.843 40.6051C474.611 40.2538 474.495 39.8295 474.495 39.3324C474.495 38.8949 474.581 38.5402 474.753 38.2685C474.926 37.9934 475.156 37.7779 475.444 37.6222C475.733 37.4664 476.051 37.3504 476.399 37.2741C476.75 37.1946 477.103 37.1316 477.458 37.0852C477.922 37.0256 478.298 36.9808 478.586 36.951C478.878 36.9179 479.09 36.8632 479.223 36.7869C479.359 36.7107 479.427 36.5781 479.427 36.3892V36.3494C479.427 35.8589 479.292 35.4777 479.024 35.206C478.759 34.9342 478.356 34.7983 477.816 34.7983C477.256 34.7983 476.817 34.9209 476.498 35.1662C476.18 35.4115 475.956 35.6733 475.827 35.9517L474.714 35.554C474.912 35.09 475.178 34.7287 475.509 34.4702C475.844 34.2083 476.208 34.026 476.603 33.9233C477 33.8172 477.392 33.7642 477.776 33.7642C478.021 33.7642 478.303 33.794 478.621 33.8537C478.943 33.91 479.253 34.0277 479.551 34.2067C479.853 34.3857 480.103 34.6558 480.302 35.017C480.5 35.3783 480.6 35.8622 480.6 36.4688V41.5H479.427V40.4659H479.367C479.287 40.6316 479.155 40.8089 478.969 40.9979C478.784 41.1868 478.537 41.3475 478.228 41.4801C477.92 41.6127 477.544 41.679 477.1 41.679ZM477.279 40.625C477.743 40.625 478.134 40.5339 478.452 40.3516C478.774 40.1693 479.016 39.9339 479.178 39.6456C479.344 39.3572 479.427 39.054 479.427 38.7358V37.6619C479.377 37.7216 479.268 37.7763 479.099 37.826C478.933 37.8724 478.741 37.9138 478.522 37.9503C478.306 37.9834 478.096 38.0133 477.89 38.0398C477.688 38.063 477.524 38.0829 477.398 38.0994C477.093 38.1392 476.808 38.2038 476.543 38.2933C476.281 38.3795 476.069 38.5104 475.907 38.6861C475.748 38.8584 475.668 39.0937 475.668 39.392C475.668 39.7997 475.819 40.108 476.121 40.3168C476.425 40.5223 476.812 40.625 477.279 40.625ZM482.441 41.5V33.8636H483.575V35.017H483.655C483.794 34.6392 484.046 34.3326 484.41 34.0973C484.775 33.862 485.186 33.7443 485.643 33.7443C485.729 33.7443 485.837 33.746 485.966 33.7493C486.096 33.7526 486.193 33.7576 486.26 33.7642V34.9574C486.22 34.9474 486.129 34.9325 485.986 34.9126C485.847 34.8894 485.699 34.8778 485.544 34.8778C485.173 34.8778 484.841 34.9557 484.549 35.1115C484.261 35.264 484.032 35.4761 483.863 35.7479C483.698 36.0163 483.615 36.3229 483.615 36.6676V41.5H482.441ZM488.524 31.3182V41.5H487.35V31.3182H488.524ZM491.128 44.3636C490.93 44.3636 490.752 44.3471 490.596 44.3139C490.441 44.2841 490.333 44.2543 490.273 44.2244L490.572 43.1903C490.857 43.2633 491.108 43.2898 491.327 43.2699C491.546 43.25 491.74 43.1522 491.909 42.9766C492.081 42.8042 492.239 42.5241 492.381 42.1364L492.6 41.5398L489.776 33.8636H491.049L493.157 39.9489H493.236L495.344 33.8636H496.617L493.376 42.6136C493.23 43.008 493.049 43.3345 492.834 43.593C492.618 43.8549 492.368 44.0488 492.083 44.1747C491.801 44.3007 491.483 44.3636 491.128 44.3636Z" fill="#454545"/>
<path d="M505.5 34.25L509 37.75L512.5 34.25" stroke="#7D7D7D" stroke-linecap="round" stroke-linejoin="round"/>
<line x1="80" y1="201" x2="80" y2="72" stroke="#F1F1F1"/>
<path d="M69.8136 228V227.205L72.2746 224.655C72.5374 224.378 72.754 224.135 72.9244 223.927C73.0973 223.716 73.2263 223.516 73.3115 223.327C73.3967 223.137 73.4393 222.936 73.4393 222.723C73.4393 222.482 73.3825 222.273 73.2689 222.098C73.1553 221.92 73.0002 221.784 72.8037 221.69C72.6072 221.593 72.3858 221.544 72.1396 221.544C71.8792 221.544 71.6519 221.597 71.4578 221.704C71.2637 221.81 71.1145 221.961 71.0104 222.155C70.9062 222.349 70.8541 222.576 70.8541 222.837H69.8065C69.8065 222.394 69.9083 222.007 70.1119 221.675C70.3155 221.344 70.5949 221.087 70.95 220.905C71.3051 220.72 71.7088 220.628 72.1609 220.628C72.6179 220.628 73.0203 220.719 73.3683 220.901C73.7187 221.081 73.9921 221.327 74.1886 221.64C74.3851 221.95 74.4834 222.3 74.4834 222.691C74.4834 222.961 74.4325 223.225 74.3307 223.483C74.2313 223.741 74.0572 224.029 73.8087 224.346C73.5601 224.661 73.2144 225.043 72.7717 225.493L71.3264 227.006V227.059H74.6006V228H69.8136ZM78.1784 228.121C77.6173 228.118 77.1379 227.97 76.7402 227.677C76.3425 227.383 76.0383 226.956 75.8276 226.395C75.6169 225.834 75.5115 225.158 75.5115 224.367C75.5115 223.579 75.6169 222.905 75.8276 222.347C76.0406 221.788 76.346 221.362 76.7437 221.068C77.1438 220.775 77.6221 220.628 78.1784 220.628C78.7348 220.628 79.2118 220.776 79.6095 221.072C80.0072 221.365 80.3115 221.791 80.5222 222.35C80.7352 222.906 80.8418 223.579 80.8418 224.367C80.8418 225.16 80.7364 225.837 80.5257 226.398C80.315 226.957 80.0108 227.384 79.6131 227.68C79.2153 227.974 78.7371 228.121 78.1784 228.121ZM78.1784 227.173C78.6708 227.173 79.0555 226.932 79.3325 226.452C79.6119 225.971 79.7516 225.276 79.7516 224.367C79.7516 223.763 79.6876 223.253 79.5598 222.837C79.4343 222.418 79.2532 222.1 79.0165 221.885C78.7821 221.667 78.5027 221.558 78.1784 221.558C77.6884 221.558 77.3036 221.8 77.0243 222.283C76.7449 222.766 76.6041 223.46 76.6017 224.367C76.6017 224.973 76.6644 225.486 76.7899 225.905C76.9178 226.321 77.0989 226.638 77.3332 226.853C77.5676 227.066 77.8493 227.173 78.1784 227.173ZM84.5608 220.727V228H83.4599V221.828H83.4173L81.6772 222.964V221.913L83.4919 220.727H84.5608ZM88.7672 228.099C88.4428 228.095 88.1232 228.036 87.8083 227.922C87.4958 227.808 87.2118 227.619 86.9561 227.354C86.7004 227.089 86.4956 226.732 86.3417 226.285C86.1902 225.837 86.1145 225.279 86.1145 224.609C86.1145 223.974 86.1772 223.411 86.3027 222.918C86.4305 222.426 86.614 222.01 86.8531 221.672C87.0922 221.331 87.381 221.072 87.7196 220.894C88.0581 220.717 88.4381 220.628 88.8595 220.628C89.2927 220.628 89.6774 220.713 90.0136 220.884C90.3498 221.054 90.622 221.29 90.8304 221.59C91.0411 221.891 91.1748 222.233 91.2316 222.616H90.1485C90.0752 222.313 89.9296 222.066 89.7118 221.874C89.494 221.683 89.2099 221.587 88.8595 221.587C88.3268 221.587 87.9113 221.819 87.613 222.283C87.3171 222.747 87.168 223.392 87.1656 224.218H87.2189C87.3443 224.012 87.4982 223.837 87.6805 223.692C87.8652 223.546 88.0711 223.433 88.2984 223.355C88.528 223.275 88.7695 223.234 89.0228 223.234C89.4442 223.234 89.8254 223.337 90.1663 223.543C90.5096 223.747 90.783 224.029 90.9866 224.388C91.1902 224.748 91.292 225.16 91.292 225.624C91.292 226.088 91.1867 226.509 90.976 226.885C90.7676 227.261 90.4741 227.56 90.0953 227.78C89.7165 227.998 89.2738 228.104 88.7672 228.099ZM88.7636 227.176C89.043 227.176 89.2927 227.107 89.5129 226.97C89.7331 226.833 89.9071 226.648 90.0349 226.416C90.1627 226.184 90.2267 225.925 90.2267 225.638C90.2267 225.359 90.1639 225.105 90.0385 224.875C89.9154 224.645 89.7449 224.463 89.5271 224.328C89.3117 224.193 89.0654 224.126 88.7885 224.126C88.5778 224.126 88.3824 224.166 88.2025 224.246C88.025 224.327 87.8687 224.438 87.7338 224.58C87.5988 224.722 87.4923 224.886 87.4142 225.07C87.3384 225.253 87.3005 225.446 87.3005 225.649C87.3005 225.921 87.3633 226.174 87.4887 226.406C87.6166 226.638 87.7906 226.825 88.0108 226.967C88.2333 227.106 88.4842 227.176 88.7636 227.176Z" fill="#7D7D7D"/>
<line x1="137.375" y1="201" x2="137.375" y2="72" stroke="#F1F1F1"/>
<path d="M127.472 228V227.205L129.933 224.655C130.196 224.378 130.412 224.135 130.583 223.927C130.755 223.716 130.884 223.516 130.97 223.327C131.055 223.137 131.098 222.936 131.098 222.723C131.098 222.482 131.041 222.273 130.927 222.098C130.813 221.92 130.658 221.784 130.462 221.69C130.265 221.593 130.044 221.544 129.798 221.544C129.537 221.544 129.31 221.597 129.116 221.704C128.922 221.81 128.773 221.961 128.669 222.155C128.564 222.349 128.512 222.576 128.512 222.837H127.465C127.465 222.394 127.567 222.007 127.77 221.675C127.974 221.344 128.253 221.087 128.608 220.905C128.963 220.72 129.367 220.628 129.819 220.628C130.276 220.628 130.679 220.719 131.027 220.901C131.377 221.081 131.65 221.327 131.847 221.64C132.043 221.95 132.142 222.3 132.142 222.691C132.142 222.961 132.091 223.225 131.989 223.483C131.889 223.741 131.715 224.029 131.467 224.346C131.218 224.661 130.873 225.043 130.43 225.493L128.985 227.006V227.059H132.259V228H127.472ZM135.837 228.121C135.276 228.118 134.796 227.97 134.398 227.677C134.001 227.383 133.696 226.956 133.486 226.395C133.275 225.834 133.17 225.158 133.17 224.367C133.17 223.579 133.275 222.905 133.486 222.347C133.699 221.788 134.004 221.362 134.402 221.068C134.802 220.775 135.28 220.628 135.837 220.628C136.393 220.628 136.87 220.776 137.268 221.072C137.665 221.365 137.97 221.791 138.18 222.35C138.393 222.906 138.5 223.579 138.5 224.367C138.5 225.16 138.395 225.837 138.184 226.398C137.973 226.957 137.669 227.384 137.271 227.68C136.874 227.974 136.395 228.121 135.837 228.121ZM135.837 227.173C136.329 227.173 136.714 226.932 136.991 226.452C137.27 225.971 137.41 225.276 137.41 224.367C137.41 223.763 137.346 223.253 137.218 222.837C137.093 222.418 136.911 222.1 136.675 221.885C136.44 221.667 136.161 221.558 135.837 221.558C135.347 221.558 134.962 221.8 134.682 222.283C134.403 222.766 134.262 223.46 134.26 224.367C134.26 224.973 134.323 225.486 134.448 225.905C134.576 226.321 134.757 226.638 134.991 226.853C135.226 227.066 135.508 227.173 135.837 227.173ZM142.219 220.727V228H141.118V221.828H141.075L139.335 222.964V221.913L141.15 220.727H142.219ZM144.131 228L147.306 221.722V221.668H143.634V220.727H148.442V221.7L145.278 228H144.131Z" fill="#7D7D7D"/>
<line x1="194.75" y1="201" x2="194.75" y2="72" stroke="#F1F1F1"/>
<path d="M184.583 228V227.205L187.044 224.655C187.307 224.378 187.524 224.135 187.694 223.927C187.867 223.716 187.996 223.516 188.081 223.327C188.166 223.137 188.209 222.936 188.209 222.723C188.209 222.482 188.152 222.273 188.038 222.098C187.925 221.92 187.77 221.784 187.573 221.69C187.377 221.593 187.155 221.544 186.909 221.544C186.649 221.544 186.421 221.597 186.227 221.704C186.033 221.81 185.884 221.961 185.78 222.155C185.676 222.349 185.624 222.576 185.624 222.837H184.576C184.576 222.394 184.678 222.007 184.881 221.675C185.085 221.344 185.364 221.087 185.72 220.905C186.075 220.72 186.478 220.628 186.93 220.628C187.387 220.628 187.79 220.719 188.138 220.901C188.488 221.081 188.762 221.327 188.958 221.64C189.155 221.95 189.253 222.3 189.253 222.691C189.253 222.961 189.202 223.225 189.1 223.483C189.001 223.741 188.827 224.029 188.578 224.346C188.33 224.661 187.984 225.043 187.541 225.493L186.096 227.006V227.059H189.37V228H184.583ZM192.948 228.121C192.387 228.118 191.907 227.97 191.51 227.677C191.112 227.383 190.808 226.956 190.597 226.395C190.386 225.834 190.281 225.158 190.281 224.367C190.281 223.579 190.386 222.905 190.597 222.347C190.81 221.788 191.116 221.362 191.513 221.068C191.913 220.775 192.392 220.628 192.948 220.628C193.504 220.628 193.981 220.776 194.379 221.072C194.777 221.365 195.081 221.791 195.292 222.35C195.505 222.906 195.611 223.579 195.611 224.367C195.611 225.16 195.506 225.837 195.295 226.398C195.085 226.957 194.78 227.384 194.383 227.68C193.985 227.974 193.507 228.121 192.948 228.121ZM192.948 227.173C193.44 227.173 193.825 226.932 194.102 226.452C194.381 225.971 194.521 225.276 194.521 224.367C194.521 223.763 194.457 223.253 194.329 222.837C194.204 222.418 194.023 222.1 193.786 221.885C193.552 221.667 193.272 221.558 192.948 221.558C192.458 221.558 192.073 221.8 191.794 222.283C191.514 222.766 191.374 223.46 191.371 224.367C191.371 224.973 191.434 225.486 191.559 225.905C191.687 226.321 191.868 226.638 192.103 226.853C192.337 227.066 192.619 227.173 192.948 227.173ZM199.33 220.727V228H198.229V221.828H198.187L196.447 222.964V221.913L198.261 220.727H199.33ZM203.455 228.099C202.946 228.099 202.496 228.012 202.106 227.837C201.717 227.661 201.413 227.42 201.193 227.112C200.973 226.804 200.864 226.454 200.866 226.061C200.864 225.753 200.927 225.47 201.054 225.212C201.185 224.952 201.361 224.735 201.584 224.562C201.806 224.387 202.055 224.276 202.329 224.229V224.186C201.967 224.098 201.677 223.904 201.459 223.604C201.241 223.303 201.134 222.957 201.136 222.567C201.134 222.195 201.232 221.864 201.431 221.572C201.632 221.279 201.908 221.048 202.258 220.88C202.609 220.712 203.008 220.628 203.455 220.628C203.898 220.628 204.293 220.713 204.641 220.884C204.991 221.052 205.267 221.282 205.469 221.576C205.67 221.867 205.772 222.197 205.774 222.567C205.772 222.957 205.66 223.303 205.44 223.604C205.22 223.904 204.933 224.098 204.581 224.186V224.229C204.853 224.276 205.098 224.387 205.316 224.562C205.536 224.735 205.711 224.952 205.841 225.212C205.974 225.47 206.041 225.753 206.044 226.061C206.041 226.454 205.93 226.804 205.71 227.112C205.49 227.42 205.184 227.661 204.794 227.837C204.406 228.012 203.959 228.099 203.455 228.099ZM203.455 227.201C203.756 227.201 204.016 227.151 204.236 227.052C204.456 226.95 204.627 226.809 204.748 226.629C204.868 226.447 204.93 226.234 204.932 225.99C204.93 225.737 204.864 225.513 204.733 225.319C204.606 225.125 204.432 224.972 204.211 224.861C203.991 224.75 203.739 224.694 203.455 224.694C203.169 224.694 202.914 224.75 202.692 224.861C202.469 224.972 202.294 225.125 202.166 225.319C202.038 225.513 201.975 225.737 201.978 225.99C201.975 226.234 202.033 226.447 202.152 226.629C202.272 226.809 202.444 226.95 202.667 227.052C202.889 227.151 203.152 227.201 203.455 227.201ZM203.455 223.817C203.696 223.817 203.911 223.768 204.098 223.671C204.285 223.574 204.432 223.439 204.538 223.266C204.647 223.094 204.703 222.891 204.705 222.659C204.703 222.432 204.648 222.233 204.542 222.062C204.437 221.892 204.292 221.761 204.105 221.668C203.918 221.574 203.701 221.526 203.455 221.526C203.204 221.526 202.984 221.574 202.794 221.668C202.607 221.761 202.462 221.892 202.358 222.062C202.254 222.233 202.203 222.432 202.205 222.659C202.203 222.891 202.255 223.094 202.361 223.266C202.468 223.439 202.615 223.574 202.802 223.671C202.991 223.768 203.209 223.817 203.455 223.817Z" fill="#7D7D7D"/>
<line x1="252.125" y1="201" x2="252.125" y2="72" stroke="#F1F1F1"/>
<path d="M241.939 228V227.205L244.4 224.655C244.662 224.378 244.879 224.135 245.049 223.927C245.222 223.716 245.351 223.516 245.437 223.327C245.522 223.137 245.564 222.936 245.564 222.723C245.564 222.482 245.508 222.273 245.394 222.098C245.28 221.92 245.125 221.784 244.929 221.69C244.732 221.593 244.511 221.544 244.265 221.544C244.004 221.544 243.777 221.597 243.583 221.704C243.389 221.81 243.24 221.961 243.135 222.155C243.031 222.349 242.979 222.576 242.979 222.837H241.932C241.932 222.394 242.033 222.007 242.237 221.675C242.441 221.344 242.72 221.087 243.075 220.905C243.43 220.72 243.834 220.628 244.286 220.628C244.743 220.628 245.145 220.719 245.493 220.901C245.844 221.081 246.117 221.327 246.314 221.64C246.51 221.95 246.608 222.3 246.608 222.691C246.608 222.961 246.557 223.225 246.456 223.483C246.356 223.741 246.182 224.029 245.934 224.346C245.685 224.661 245.339 225.043 244.897 225.493L243.451 227.006V227.059H246.726V228H241.939ZM250.303 228.121C249.742 228.118 249.263 227.97 248.865 227.677C248.467 227.383 248.163 226.956 247.953 226.395C247.742 225.834 247.637 225.158 247.637 224.367C247.637 223.579 247.742 222.905 247.953 222.347C248.166 221.788 248.471 221.362 248.869 221.068C249.269 220.775 249.747 220.628 250.303 220.628C250.86 220.628 251.337 220.776 251.735 221.072C252.132 221.365 252.436 221.791 252.647 222.35C252.86 222.906 252.967 223.579 252.967 224.367C252.967 225.16 252.861 225.837 252.651 226.398C252.44 226.957 252.136 227.384 251.738 227.68C251.34 227.974 250.862 228.121 250.303 228.121ZM250.303 227.173C250.796 227.173 251.181 226.932 251.458 226.452C251.737 225.971 251.877 225.276 251.877 224.367C251.877 223.763 251.813 223.253 251.685 222.837C251.559 222.418 251.378 222.1 251.141 221.885C250.907 221.667 250.628 221.558 250.303 221.558C249.813 221.558 249.429 221.8 249.149 222.283C248.87 222.766 248.729 223.46 248.727 224.367C248.727 224.973 248.789 225.486 248.915 225.905C249.043 226.321 249.224 226.638 249.458 226.853C249.693 227.066 249.974 227.173 250.303 227.173ZM256.686 220.727V228H255.585V221.828H255.542L253.802 222.964V221.913L255.617 220.727H256.686ZM260.771 220.628C261.096 220.63 261.415 220.689 261.73 220.805C262.045 220.921 262.329 221.111 262.582 221.374C262.838 221.636 263.042 221.991 263.193 222.439C263.347 222.884 263.425 223.438 263.428 224.101C263.428 224.738 263.364 225.305 263.236 225.802C263.108 226.297 262.925 226.714 262.685 227.055C262.449 227.396 262.161 227.656 261.823 227.833C261.484 228.011 261.103 228.099 260.679 228.099C260.246 228.099 259.861 228.014 259.525 227.844C259.189 227.673 258.915 227.438 258.705 227.137C258.494 226.834 258.363 226.486 258.31 226.093H259.394C259.465 226.406 259.609 226.659 259.827 226.853C260.047 227.045 260.331 227.141 260.679 227.141C261.212 227.141 261.627 226.909 261.926 226.445C262.224 225.978 262.374 225.327 262.377 224.491H262.32C262.197 224.695 262.043 224.87 261.858 225.017C261.676 225.164 261.471 225.277 261.244 225.358C261.016 225.438 260.774 225.479 260.516 225.479C260.097 225.479 259.716 225.376 259.372 225.17C259.029 224.964 258.756 224.681 258.552 224.321C258.348 223.961 258.247 223.55 258.247 223.089C258.247 222.629 258.351 222.213 258.559 221.839C258.77 221.465 259.063 221.169 259.44 220.951C259.819 220.731 260.262 220.623 260.771 220.628ZM260.775 221.551C260.498 221.551 260.248 221.62 260.026 221.757C259.806 221.892 259.631 222.076 259.504 222.308C259.376 222.537 259.312 222.793 259.312 223.075C259.312 223.356 259.373 223.612 259.497 223.842C259.622 224.069 259.792 224.25 260.008 224.385C260.226 224.518 260.474 224.584 260.754 224.584C260.962 224.584 261.156 224.544 261.336 224.463C261.516 224.383 261.673 224.271 261.808 224.129C261.943 223.985 262.049 223.821 262.124 223.639C262.2 223.457 262.238 223.265 262.238 223.064C262.238 222.796 262.174 222.548 262.046 222.318C261.921 222.089 261.748 221.904 261.528 221.764C261.308 221.622 261.057 221.551 260.775 221.551Z" fill="#7D7D7D"/>
<line x1="310.5" y1="201" x2="310.5" y2="72" stroke="#F1F1F1"/>
<path d="M299.562 228V227.205L302.023 224.655C302.285 224.378 302.502 224.135 302.672 223.927C302.845 223.716 302.974 223.516 303.06 223.327C303.145 223.137 303.187 222.936 303.187 222.723C303.187 222.482 303.131 222.273 303.017 222.098C302.903 221.92 302.748 221.784 302.552 221.69C302.355 221.593 302.134 221.544 301.888 221.544C301.627 221.544 301.4 221.597 301.206 221.704C301.012 221.81 300.863 221.961 300.758 222.155C300.654 222.349 300.602 222.576 300.602 222.837H299.555C299.555 222.394 299.656 222.007 299.86 221.675C300.064 221.344 300.343 221.087 300.698 220.905C301.053 220.72 301.457 220.628 301.909 220.628C302.366 220.628 302.768 220.719 303.116 220.901C303.467 221.081 303.74 221.327 303.937 221.64C304.133 221.95 304.231 222.3 304.231 222.691C304.231 222.961 304.181 223.225 304.079 223.483C303.979 223.741 303.805 224.029 303.557 224.346C303.308 224.661 302.962 225.043 302.52 225.493L301.074 227.006V227.059H304.349V228H299.562ZM307.926 228.121C307.365 228.118 306.886 227.97 306.488 227.677C306.091 227.383 305.786 226.956 305.576 226.395C305.365 225.834 305.26 225.158 305.26 224.367C305.26 223.579 305.365 222.905 305.576 222.347C305.789 221.788 306.094 221.362 306.492 221.068C306.892 220.775 307.37 220.628 307.926 220.628C308.483 220.628 308.96 220.776 309.358 221.072C309.755 221.365 310.06 221.791 310.27 222.35C310.483 222.906 310.59 223.579 310.59 224.367C310.59 225.16 310.484 225.837 310.274 226.398C310.063 226.957 309.759 227.384 309.361 227.68C308.963 227.974 308.485 228.121 307.926 228.121ZM307.926 227.173C308.419 227.173 308.804 226.932 309.081 226.452C309.36 225.971 309.5 225.276 309.5 224.367C309.5 223.763 309.436 223.253 309.308 222.837C309.182 222.418 309.001 222.1 308.765 221.885C308.53 221.667 308.251 221.558 307.926 221.558C307.436 221.558 307.052 221.8 306.772 222.283C306.493 222.766 306.352 223.46 306.35 224.367C306.35 224.973 306.412 225.486 306.538 225.905C306.666 226.321 306.847 226.638 307.081 226.853C307.316 227.066 307.597 227.173 307.926 227.173ZM311.55 228V227.205L314.011 224.655C314.273 224.378 314.49 224.135 314.66 223.927C314.833 223.716 314.962 223.516 315.047 223.327C315.133 223.137 315.175 222.936 315.175 222.723C315.175 222.482 315.118 222.273 315.005 222.098C314.891 221.92 314.736 221.784 314.54 221.69C314.343 221.593 314.122 221.544 313.876 221.544C313.615 221.544 313.388 221.597 313.194 221.704C313 221.81 312.85 221.961 312.746 222.155C312.642 222.349 312.59 222.576 312.59 222.837H311.542C311.542 222.394 311.644 222.007 311.848 221.675C312.051 221.344 312.331 221.087 312.686 220.905C313.041 220.72 313.445 220.628 313.897 220.628C314.354 220.628 314.756 220.719 315.104 220.901C315.455 221.081 315.728 221.327 315.925 221.64C316.121 221.95 316.219 222.3 316.219 222.691C316.219 222.961 316.168 223.225 316.067 223.483C315.967 223.741 315.793 224.029 315.545 224.346C315.296 224.661 314.95 225.043 314.508 225.493L313.062 227.006V227.059H316.337V228H311.55ZM319.914 228.121C319.353 228.118 318.874 227.97 318.476 227.677C318.078 227.383 317.774 226.956 317.563 226.395C317.353 225.834 317.247 225.158 317.247 224.367C317.247 223.579 317.353 222.905 317.563 222.347C317.777 221.788 318.082 221.362 318.48 221.068C318.88 220.775 319.358 220.628 319.914 220.628C320.471 220.628 320.948 220.776 321.345 221.072C321.743 221.365 322.047 221.791 322.258 222.35C322.471 222.906 322.578 223.579 322.578 224.367C322.578 225.16 322.472 225.837 322.262 226.398C322.051 226.957 321.747 227.384 321.349 227.68C320.951 227.974 320.473 228.121 319.914 228.121ZM319.914 227.173C320.407 227.173 320.791 226.932 321.068 226.452C321.348 225.971 321.487 225.276 321.487 224.367C321.487 223.763 321.424 223.253 321.296 222.837C321.17 222.418 320.989 222.1 320.752 221.885C320.518 221.667 320.239 221.558 319.914 221.558C319.424 221.558 319.04 221.8 318.76 222.283C318.481 222.766 318.34 223.46 318.338 224.367C318.338 224.973 318.4 225.486 318.526 225.905C318.654 226.321 318.835 226.638 319.069 226.853C319.304 227.066 319.585 227.173 319.914 227.173Z" fill="#7D7D7D"/>
<line x1="368.875" y1="201" x2="368.875" y2="72" stroke="#F1F1F1"/>
<path d="M358.801 228V227.205L361.262 224.655C361.525 224.378 361.741 224.135 361.912 223.927C362.085 223.716 362.214 223.516 362.299 223.327C362.384 223.137 362.427 222.936 362.427 222.723C362.427 222.482 362.37 222.273 362.256 222.098C362.143 221.92 361.987 221.784 361.791 221.69C361.595 221.593 361.373 221.544 361.127 221.544C360.867 221.544 360.639 221.597 360.445 221.704C360.251 221.81 360.102 221.961 359.998 222.155C359.894 222.349 359.841 222.576 359.841 222.837H358.794C358.794 222.394 358.896 222.007 359.099 221.675C359.303 221.344 359.582 221.087 359.937 220.905C360.292 220.72 360.696 220.628 361.148 220.628C361.605 220.628 362.008 220.719 362.356 220.901C362.706 221.081 362.979 221.327 363.176 221.64C363.372 221.95 363.471 222.3 363.471 222.691C363.471 222.961 363.42 223.225 363.318 223.483C363.219 223.741 363.045 224.029 362.796 224.346C362.547 224.661 362.202 225.043 361.759 225.493L360.314 227.006V227.059H363.588V228H358.801ZM367.166 228.121C366.605 228.118 366.125 227.97 365.728 227.677C365.33 227.383 365.026 226.956 364.815 226.395C364.604 225.834 364.499 225.158 364.499 224.367C364.499 223.579 364.604 222.905 364.815 222.347C365.028 221.788 365.333 221.362 365.731 221.068C366.131 220.775 366.609 220.628 367.166 220.628C367.722 220.628 368.199 220.776 368.597 221.072C368.995 221.365 369.299 221.791 369.509 222.35C369.723 222.906 369.829 223.579 369.829 224.367C369.829 225.16 369.724 225.837 369.513 226.398C369.302 226.957 368.998 227.384 368.6 227.68C368.203 227.974 367.724 228.121 367.166 228.121ZM367.166 227.173C367.658 227.173 368.043 226.932 368.32 226.452C368.599 225.971 368.739 225.276 368.739 224.367C368.739 223.763 368.675 223.253 368.547 222.837C368.422 222.418 368.241 222.1 368.004 221.885C367.769 221.667 367.49 221.558 367.166 221.558C366.676 221.558 366.291 221.8 366.012 222.283C365.732 222.766 365.591 223.46 365.589 224.367C365.589 224.973 365.652 225.486 365.777 225.905C365.905 226.321 366.086 226.638 366.321 226.853C366.555 227.066 366.837 227.173 367.166 227.173ZM370.789 228V227.205L373.25 224.655C373.513 224.378 373.729 224.135 373.9 223.927C374.072 223.716 374.201 223.516 374.287 223.327C374.372 223.137 374.415 222.936 374.415 222.723C374.415 222.482 374.358 222.273 374.244 222.098C374.13 221.92 373.975 221.784 373.779 221.69C373.582 221.593 373.361 221.544 373.115 221.544C372.854 221.544 372.627 221.597 372.433 221.704C372.239 221.81 372.09 221.961 371.986 222.155C371.881 222.349 371.829 222.576 371.829 222.837H370.782C370.782 222.394 370.884 222.007 371.087 221.675C371.291 221.344 371.57 221.087 371.925 220.905C372.28 220.72 372.684 220.628 373.136 220.628C373.593 220.628 373.996 220.719 374.344 220.901C374.694 221.081 374.967 221.327 375.164 221.64C375.36 221.95 375.459 222.3 375.459 222.691C375.459 222.961 375.408 223.225 375.306 223.483C375.206 223.741 375.032 224.029 374.784 224.346C374.535 224.661 374.19 225.043 373.747 225.493L372.302 227.006V227.059H375.576V228H370.789ZM379.381 220.727V228H378.28V221.828H378.237L376.497 222.964V221.913L378.312 220.727H379.381Z" fill="#7D7D7D"/>
<line x1="427.25" y1="201" x2="427.25" y2="72" stroke="#F1F1F1"/>
<path d="M416.473 228V227.205L418.934 224.655C419.197 224.378 419.413 224.135 419.584 223.927C419.756 223.716 419.885 223.516 419.971 223.327C420.056 223.137 420.099 222.936 420.099 222.723C420.099 222.482 420.042 222.273 419.928 222.098C419.814 221.92 419.659 221.784 419.463 221.69C419.266 221.593 419.045 221.544 418.799 221.544C418.538 221.544 418.311 221.597 418.117 221.704C417.923 221.81 417.774 221.961 417.67 222.155C417.565 222.349 417.513 222.576 417.513 222.837H416.466C416.466 222.394 416.568 222.007 416.771 221.675C416.975 221.344 417.254 221.087 417.609 220.905C417.964 220.72 418.368 220.628 418.82 220.628C419.277 220.628 419.679 220.719 420.028 220.901C420.378 221.081 420.651 221.327 420.848 221.64C421.044 221.95 421.143 222.3 421.143 222.691C421.143 222.961 421.092 223.225 420.99 223.483C420.89 223.741 420.716 224.029 420.468 224.346C420.219 224.661 419.874 225.043 419.431 225.493L417.986 227.006V227.059H421.26V228H416.473ZM424.838 228.121C424.277 228.118 423.797 227.97 423.399 227.677C423.002 227.383 422.697 226.956 422.487 226.395C422.276 225.834 422.171 225.158 422.171 224.367C422.171 223.579 422.276 222.905 422.487 222.347C422.7 221.788 423.005 221.362 423.403 221.068C423.803 220.775 424.281 220.628 424.838 220.628C425.394 220.628 425.871 220.776 426.269 221.072C426.666 221.365 426.971 221.791 427.181 222.35C427.394 222.906 427.501 223.579 427.501 224.367C427.501 225.16 427.396 225.837 427.185 226.398C426.974 226.957 426.67 227.384 426.272 227.68C425.875 227.974 425.396 228.121 424.838 228.121ZM424.838 227.173C425.33 227.173 425.715 226.932 425.992 226.452C426.271 225.971 426.411 225.276 426.411 224.367C426.411 223.763 426.347 223.253 426.219 222.837C426.094 222.418 425.912 222.1 425.676 221.885C425.441 221.667 425.162 221.558 424.838 221.558C424.348 221.558 423.963 221.8 423.683 222.283C423.404 222.766 423.263 223.46 423.261 224.367C423.261 224.973 423.324 225.486 423.449 225.905C423.577 226.321 423.758 226.638 423.992 226.853C424.227 227.066 424.509 227.173 424.838 227.173ZM428.461 228V227.205L430.922 224.655C431.184 224.378 431.401 224.135 431.572 223.927C431.744 223.716 431.873 223.516 431.959 223.327C432.044 223.137 432.086 222.936 432.086 222.723C432.086 222.482 432.03 222.273 431.916 222.098C431.802 221.92 431.647 221.784 431.451 221.69C431.254 221.593 431.033 221.544 430.787 221.544C430.526 221.544 430.299 221.597 430.105 221.704C429.911 221.81 429.762 221.961 429.657 222.155C429.553 222.349 429.501 222.576 429.501 222.837H428.454C428.454 222.394 428.555 222.007 428.759 221.675C428.963 221.344 429.242 221.087 429.597 220.905C429.952 220.72 430.356 220.628 430.808 220.628C431.265 220.628 431.667 220.719 432.015 220.901C432.366 221.081 432.639 221.327 432.836 221.64C433.032 221.95 433.13 222.3 433.13 222.691C433.13 222.961 433.08 223.225 432.978 223.483C432.878 223.741 432.704 224.029 432.456 224.346C432.207 224.661 431.862 225.043 431.419 225.493L429.973 227.006V227.059H433.248V228H428.461ZM434.294 228V227.205L436.754 224.655C437.017 224.378 437.234 224.135 437.404 223.927C437.577 223.716 437.706 223.516 437.791 223.327C437.877 223.137 437.919 222.936 437.919 222.723C437.919 222.482 437.862 222.273 437.749 222.098C437.635 221.92 437.48 221.784 437.284 221.69C437.087 221.593 436.866 221.544 436.62 221.544C436.359 221.544 436.132 221.597 435.938 221.704C435.744 221.81 435.594 221.961 435.49 222.155C435.386 222.349 435.334 222.576 435.334 222.837H434.286C434.286 222.394 434.388 222.007 434.592 221.675C434.795 221.344 435.075 221.087 435.43 220.905C435.785 220.72 436.189 220.628 436.641 220.628C437.098 220.628 437.5 220.719 437.848 220.901C438.199 221.081 438.472 221.327 438.669 221.64C438.865 221.95 438.963 222.3 438.963 222.691C438.963 222.961 438.912 223.225 438.811 223.483C438.711 223.741 438.537 224.029 438.289 224.346C438.04 224.661 437.694 225.043 437.252 225.493L435.806 227.006V227.059H439.08V228H434.294Z" fill="#7D7D7D"/>
<line x1="486.625" y1="201" x2="486.625" y2="72" stroke="#F1F1F1"/>
<path d="M475.692 228V227.205L478.153 224.655C478.415 224.378 478.632 224.135 478.802 223.927C478.975 223.716 479.104 223.516 479.189 223.327C479.275 223.137 479.317 222.936 479.317 222.723C479.317 222.482 479.26 222.273 479.147 222.098C479.033 221.92 478.878 221.784 478.682 221.69C478.485 221.593 478.264 221.544 478.018 221.544C477.757 221.544 477.53 221.597 477.336 221.704C477.142 221.81 476.992 221.961 476.888 222.155C476.784 222.349 476.732 222.576 476.732 222.837H475.684C475.684 222.394 475.786 222.007 475.99 221.675C476.193 221.344 476.473 221.087 476.828 220.905C477.183 220.72 477.587 220.628 478.039 220.628C478.496 220.628 478.898 220.719 479.246 220.901C479.597 221.081 479.87 221.327 480.067 221.64C480.263 221.95 480.361 222.3 480.361 222.691C480.361 222.961 480.31 223.225 480.209 223.483C480.109 223.741 479.935 224.029 479.687 224.346C479.438 224.661 479.092 225.043 478.65 225.493L477.204 227.006V227.059H480.478V228H475.692ZM484.056 228.121C483.495 228.118 483.016 227.97 482.618 227.677C482.22 227.383 481.916 226.956 481.705 226.395C481.495 225.834 481.389 225.158 481.389 224.367C481.389 223.579 481.495 222.905 481.705 222.347C481.919 221.788 482.224 221.362 482.622 221.068C483.022 220.775 483.5 220.628 484.056 220.628C484.613 220.628 485.09 220.776 485.487 221.072C485.885 221.365 486.189 221.791 486.4 222.35C486.613 222.906 486.72 223.579 486.72 224.367C486.72 225.16 486.614 225.837 486.404 226.398C486.193 226.957 485.889 227.384 485.491 227.68C485.093 227.974 484.615 228.121 484.056 228.121ZM484.056 227.173C484.549 227.173 484.933 226.932 485.21 226.452C485.49 225.971 485.629 225.276 485.629 224.367C485.629 223.763 485.566 223.253 485.438 222.837C485.312 222.418 485.131 222.1 484.894 221.885C484.66 221.667 484.381 221.558 484.056 221.558C483.566 221.558 483.182 221.8 482.902 222.283C482.623 222.766 482.482 223.46 482.48 224.367C482.48 224.973 482.542 225.486 482.668 225.905C482.796 226.321 482.977 226.638 483.211 226.853C483.446 227.066 483.727 227.173 484.056 227.173ZM487.679 228V227.205L490.14 224.655C490.403 224.378 490.62 224.135 490.79 223.927C490.963 223.716 491.092 223.516 491.177 223.327C491.263 223.137 491.305 222.936 491.305 222.723C491.305 222.482 491.248 222.273 491.135 222.098C491.021 221.92 490.866 221.784 490.67 221.69C490.473 221.593 490.252 221.544 490.005 221.544C489.745 221.544 489.518 221.597 489.324 221.704C489.13 221.81 488.98 221.961 488.876 222.155C488.772 222.349 488.72 222.576 488.72 222.837H487.672C487.672 222.394 487.774 222.007 487.978 221.675C488.181 221.344 488.461 221.087 488.816 220.905C489.171 220.72 489.575 220.628 490.027 220.628C490.484 220.628 490.886 220.719 491.234 220.901C491.585 221.081 491.858 221.327 492.054 221.64C492.251 221.95 492.349 222.3 492.349 222.691C492.349 222.961 492.298 223.225 492.197 223.483C492.097 223.741 491.923 224.029 491.674 224.346C491.426 224.661 491.08 225.043 490.638 225.493L489.192 227.006V227.059H492.466V228H487.679ZM496.044 228.099C495.557 228.099 495.121 228.015 494.737 227.847C494.356 227.679 494.054 227.446 493.832 227.148C493.612 226.847 493.493 226.499 493.477 226.104H494.592C494.606 226.319 494.678 226.506 494.808 226.665C494.941 226.821 495.114 226.942 495.327 227.027C495.54 227.112 495.777 227.155 496.037 227.155C496.324 227.155 496.577 227.105 496.797 227.006C497.02 226.906 497.194 226.768 497.319 226.59C497.445 226.41 497.507 226.203 497.507 225.969C497.507 225.725 497.445 225.511 497.319 225.326C497.196 225.139 497.015 224.992 496.776 224.886C496.539 224.779 496.253 224.726 495.916 224.726H495.302V223.831H495.916C496.186 223.831 496.423 223.782 496.627 223.685C496.833 223.588 496.994 223.453 497.11 223.281C497.226 223.105 497.284 222.901 497.284 222.666C497.284 222.441 497.233 222.246 497.131 222.08C497.031 221.912 496.889 221.781 496.705 221.686C496.522 221.591 496.307 221.544 496.058 221.544C495.822 221.544 495.6 221.588 495.394 221.675C495.191 221.761 495.025 221.884 494.897 222.045C494.769 222.203 494.701 222.394 494.691 222.616H493.629C493.641 222.223 493.757 221.878 493.977 221.58C494.2 221.281 494.494 221.048 494.858 220.88C495.223 220.712 495.628 220.628 496.073 220.628C496.539 220.628 496.941 220.719 497.28 220.901C497.621 221.081 497.884 221.321 498.068 221.622C498.255 221.923 498.348 222.252 498.345 222.609C498.348 223.017 498.234 223.362 498.004 223.646C497.777 223.93 497.474 224.121 497.095 224.218V224.275C497.578 224.348 497.952 224.54 498.218 224.85C498.485 225.16 498.618 225.545 498.615 226.004C498.618 226.404 498.506 226.763 498.281 227.08C498.059 227.397 497.755 227.647 497.369 227.83C496.983 228.009 496.541 228.099 496.044 228.099Z" fill="#7D7D7D"/>
<path d="M27.4588 74.7273V82H26.358V75.8281H26.3153L24.5753 76.9645V75.9134L26.3899 74.7273H27.4588ZM31.6581 82.1207C31.097 82.1184 30.6176 81.9704 30.2199 81.6768C29.8222 81.3833 29.5179 80.956 29.3072 80.3949C29.0965 79.8338 28.9912 79.1579 28.9912 78.3672C28.9912 77.5788 29.0965 76.9053 29.3072 76.3466C29.5203 75.7879 29.8257 75.3617 30.2234 75.0682C30.6235 74.7746 31.1018 74.6278 31.6581 74.6278C32.2144 74.6278 32.6915 74.7758 33.0892 75.0717C33.4869 75.3653 33.7911 75.7914 34.0018 76.3501C34.2149 76.9065 34.3214 77.5788 34.3214 78.3672C34.3214 79.1603 34.2161 79.8374 34.0054 80.3984C33.7947 80.9571 33.4905 81.3845 33.0928 81.6804C32.695 81.974 32.2168 82.1207 31.6581 82.1207ZM31.6581 81.1726C32.1505 81.1726 32.5352 80.9323 32.8122 80.4517C33.0916 79.9711 33.2312 79.2763 33.2312 78.3672C33.2312 77.7635 33.1673 77.2533 33.0395 76.8366C32.914 76.4176 32.7329 76.1004 32.4962 75.8849C32.2618 75.6671 31.9824 75.5582 31.6581 75.5582C31.168 75.5582 30.7833 75.7997 30.504 76.2827C30.2246 76.7656 30.0838 77.4605 30.0814 78.3672C30.0814 78.9732 30.1441 79.4858 30.2696 79.9048C30.3974 80.3215 30.5786 80.6375 30.8129 80.853C31.0473 81.0661 31.329 81.1726 31.6581 81.1726ZM37.8132 82.1207C37.2521 82.1184 36.7727 81.9704 36.375 81.6768C35.9772 81.3833 35.673 80.956 35.4623 80.3949C35.2516 79.8338 35.1463 79.1579 35.1463 78.3672C35.1463 77.5788 35.2516 76.9053 35.4623 76.3466C35.6754 75.7879 35.9808 75.3617 36.3785 75.0682C36.7786 74.7746 37.2568 74.6278 37.8132 74.6278C38.3695 74.6278 38.8466 74.7758 39.2443 75.0717C39.642 75.3653 39.9462 75.7914 40.1569 76.3501C40.37 76.9065 40.4765 77.5788 40.4765 78.3672C40.4765 79.1603 40.3712 79.8374 40.1605 80.3984C39.9498 80.9571 39.6456 81.3845 39.2478 81.6804C38.8501 81.974 38.3719 82.1207 37.8132 82.1207ZM37.8132 81.1726C38.3056 81.1726 38.6903 80.9323 38.9673 80.4517C39.2466 79.9711 39.3863 79.2763 39.3863 78.3672C39.3863 77.7635 39.3224 77.2533 39.1946 76.8366C39.0691 76.4176 38.888 76.1004 38.6512 75.8849C38.4169 75.6671 38.1375 75.5582 37.8132 75.5582C37.3231 75.5582 36.9384 75.7997 36.6591 76.2827C36.3797 76.7656 36.2388 77.4605 36.2365 78.3672C36.2365 78.9732 36.2992 79.4858 36.4247 79.9048C36.5525 80.3215 36.7336 80.6375 36.968 80.853C37.2024 81.0661 37.4841 81.1726 37.8132 81.1726ZM42.4271 80.1499L42.42 78.8537H42.6046L44.7779 76.5455H46.0492L43.5705 79.1733H43.4036L42.4271 80.1499ZM41.4505 82V74.7273H42.5123V82H41.4505ZM44.8951 82L42.942 79.4077L43.6735 78.6655L46.1984 82H44.8951Z" fill="#7D7D7D"/>
<path d="M67 79.3887L486.5 79.3887" stroke="#F1F1F1"/>
<path d="M27.1001 112.599C26.6551 112.599 26.255 112.514 25.8999 112.344C25.5471 112.171 25.2654 111.934 25.0547 111.634C24.844 111.333 24.7315 110.99 24.7173 110.604H25.7827C25.8087 110.916 25.9472 111.173 26.1982 111.374C26.4491 111.576 26.7498 111.676 27.1001 111.676C27.3795 111.676 27.6269 111.612 27.8423 111.484C28.0601 111.354 28.2306 111.175 28.3537 110.948C28.4792 110.721 28.5419 110.462 28.5419 110.17C28.5419 109.875 28.478 109.611 28.3501 109.379C28.2223 109.147 28.0459 108.964 27.821 108.832C27.5985 108.699 27.3428 108.632 27.054 108.629C26.8338 108.629 26.6125 108.667 26.3899 108.743C26.1674 108.819 25.9875 108.918 25.8501 109.041L24.8452 108.892L25.2536 105.227H29.2521V106.168H26.1662L25.9354 108.203H25.978C26.12 108.066 26.3082 107.951 26.5426 107.859C26.7794 107.766 27.0327 107.72 27.3026 107.72C27.7453 107.72 28.1394 107.826 28.4851 108.036C28.8331 108.247 29.1065 108.535 29.3054 108.899C29.5066 109.261 29.6061 109.678 29.6037 110.149C29.6061 110.62 29.4995 111.04 29.2841 111.41C29.071 111.779 28.7751 112.07 28.3963 112.283C28.0199 112.494 27.5878 112.599 27.1001 112.599ZM33.1327 112.621C32.5716 112.618 32.0922 112.47 31.6945 112.177C31.2968 111.883 30.9926 111.456 30.7819 110.895C30.5712 110.334 30.4658 109.658 30.4658 108.867C30.4658 108.079 30.5712 107.405 30.7819 106.847C30.9949 106.288 31.3003 105.862 31.698 105.568C32.0981 105.275 32.5764 105.128 33.1327 105.128C33.6891 105.128 34.1661 105.276 34.5638 105.572C34.9615 105.865 35.2658 106.291 35.4765 106.85C35.6895 107.406 35.7961 108.079 35.7961 108.867C35.7961 109.66 35.6907 110.337 35.48 110.898C35.2693 111.457 34.9651 111.884 34.5674 112.18C34.1696 112.474 33.6914 112.621 33.1327 112.621ZM33.1327 111.673C33.6251 111.673 34.0098 111.432 34.2868 110.952C34.5662 110.471 34.7059 109.776 34.7059 108.867C34.7059 108.263 34.6419 107.753 34.5141 107.337C34.3886 106.918 34.2075 106.6 33.9708 106.385C33.7364 106.167 33.457 106.058 33.1327 106.058C32.6426 106.058 32.2579 106.3 31.9786 106.783C31.6992 107.266 31.5584 107.96 31.556 108.867C31.556 109.473 31.6187 109.986 31.7442 110.405C31.8721 110.821 32.0532 111.138 32.2875 111.353C32.5219 111.566 32.8036 111.673 33.1327 111.673ZM37.7466 110.65L37.7395 109.354H37.9241L40.0974 107.045H41.3687L38.8901 109.673H38.7232L37.7466 110.65ZM36.77 112.5V105.227H37.8318V112.5H36.77ZM40.2146 112.5L38.2615 109.908L38.993 109.165L41.5179 112.5H40.2146Z" fill="#7D7D7D"/>
<path d="M67 109.639L486.5 109.639" stroke="#F1F1F1"/>
<path d="M24.6996 143V142.205L27.1605 139.655C27.4233 139.378 27.6399 139.135 27.8104 138.927C27.9832 138.716 28.1122 138.516 28.1974 138.327C28.2827 138.137 28.3253 137.936 28.3253 137.723C28.3253 137.482 28.2685 137.273 28.1548 137.098C28.0412 136.92 27.8861 136.784 27.6896 136.69C27.4931 136.593 27.2718 136.544 27.0256 136.544C26.7652 136.544 26.5379 136.597 26.3438 136.704C26.1496 136.81 26.0005 136.961 25.8963 137.155C25.7921 137.349 25.7401 137.576 25.7401 137.837H24.6925C24.6925 137.394 24.7943 137.007 24.9979 136.675C25.2015 136.344 25.4808 136.087 25.8359 135.905C26.1911 135.72 26.5947 135.628 27.0469 135.628C27.5038 135.628 27.9063 135.719 28.2543 135.901C28.6046 136.081 28.8781 136.327 29.0746 136.64C29.2711 136.95 29.3693 137.3 29.3693 137.691C29.3693 137.961 29.3184 138.225 29.2166 138.483C29.1172 138.741 28.9432 139.029 28.6946 139.346C28.446 139.661 28.1004 140.043 27.6577 140.493L26.2124 142.006V142.059H29.4865V143H24.6996ZM33.0643 143.121C32.5033 143.118 32.0239 142.97 31.6261 142.677C31.2284 142.383 30.9242 141.956 30.7135 141.395C30.5028 140.834 30.3974 140.158 30.3974 139.367C30.3974 138.579 30.5028 137.905 30.7135 137.347C30.9266 136.788 31.232 136.362 31.6297 136.068C32.0298 135.775 32.508 135.628 33.0643 135.628C33.6207 135.628 34.0977 135.776 34.4955 136.072C34.8932 136.365 35.1974 136.791 35.4081 137.35C35.6212 137.906 35.7277 138.579 35.7277 139.367C35.7277 140.16 35.6223 140.837 35.4116 141.398C35.2009 141.957 34.8967 142.384 34.499 142.68C34.1013 142.974 33.6231 143.121 33.0643 143.121ZM33.0643 142.173C33.5568 142.173 33.9415 141.932 34.2185 141.452C34.4978 140.971 34.6375 140.276 34.6375 139.367C34.6375 138.763 34.5736 138.253 34.4457 137.837C34.3203 137.418 34.1392 137.1 33.9024 136.885C33.668 136.667 33.3887 136.558 33.0643 136.558C32.5743 136.558 32.1896 136.8 31.9102 137.283C31.6309 137.766 31.49 138.46 31.4876 139.367C31.4876 139.973 31.5504 140.486 31.6759 140.905C31.8037 141.321 31.9848 141.638 32.2192 141.853C32.4536 142.066 32.7353 142.173 33.0643 142.173ZM37.6782 141.15L37.6711 139.854H37.8558L40.0291 137.545H41.3004L38.8217 140.173H38.6548L37.6782 141.15ZM36.7017 143V135.727H37.7635V143H36.7017ZM40.1463 143L38.1931 140.408L38.9247 139.665L41.4495 143H40.1463Z" fill="#7D7D7D"/>
<path d="M67 140.889H486.5" stroke="#F1F1F1"/>
<path d="M27.4588 166.227V173.5H26.358V167.328H26.3153L24.5753 168.464V167.413L26.3899 166.227H27.4588ZM31.6581 173.621C31.097 173.618 30.6176 173.47 30.2199 173.177C29.8222 172.883 29.5179 172.456 29.3072 171.895C29.0965 171.334 28.9912 170.658 28.9912 169.867C28.9912 169.079 29.0965 168.405 29.3072 167.847C29.5203 167.288 29.8257 166.862 30.2234 166.568C30.6235 166.275 31.1018 166.128 31.6581 166.128C32.2144 166.128 32.6915 166.276 33.0892 166.572C33.4869 166.865 33.7911 167.291 34.0018 167.85C34.2149 168.406 34.3214 169.079 34.3214 169.867C34.3214 170.66 34.2161 171.337 34.0054 171.898C33.7947 172.457 33.4905 172.884 33.0928 173.18C32.695 173.474 32.2168 173.621 31.6581 173.621ZM31.6581 172.673C32.1505 172.673 32.5352 172.432 32.8122 171.952C33.0916 171.471 33.2312 170.776 33.2312 169.867C33.2312 169.263 33.1673 168.753 33.0395 168.337C32.914 167.918 32.7329 167.6 32.4962 167.385C32.2618 167.167 31.9824 167.058 31.6581 167.058C31.168 167.058 30.7833 167.3 30.504 167.783C30.2246 168.266 30.0838 168.96 30.0814 169.867C30.0814 170.473 30.1441 170.986 30.2696 171.405C30.3974 171.821 30.5786 172.138 30.8129 172.353C31.0473 172.566 31.329 172.673 31.6581 172.673ZM36.272 171.65L36.2649 170.354H36.4495L38.6228 168.045H39.8941L37.4154 170.673H37.2485L36.272 171.65ZM35.2954 173.5V166.227H36.3572V173.5H35.2954ZM38.74 173.5L36.7869 170.908L37.5184 170.165L40.0433 173.5H38.74Z" fill="#7D7D7D"/>
<path d="M67 171.139H486.5" stroke="#F1F1F1"/>
<path d="M27.2315 204.121C26.6705 204.118 26.1911 203.97 25.7933 203.677C25.3956 203.383 25.0914 202.956 24.8807 202.395C24.67 201.834 24.5646 201.158 24.5646 200.367C24.5646 199.579 24.67 198.905 24.8807 198.347C25.0938 197.788 25.3991 197.362 25.7969 197.068C26.197 196.775 26.6752 196.628 27.2315 196.628C27.7879 196.628 28.2649 196.776 28.6626 197.072C29.0604 197.365 29.3646 197.791 29.5753 198.35C29.7884 198.906 29.8949 199.579 29.8949 200.367C29.8949 201.16 29.7895 201.837 29.5788 202.398C29.3681 202.957 29.0639 203.384 28.6662 203.68C28.2685 203.974 27.7902 204.121 27.2315 204.121ZM27.2315 203.173C27.724 203.173 28.1087 202.932 28.3857 202.452C28.665 201.971 28.8047 201.276 28.8047 200.367C28.8047 199.763 28.7408 199.253 28.6129 198.837C28.4875 198.418 28.3063 198.1 28.0696 197.885C27.8352 197.667 27.5559 197.558 27.2315 197.558C26.7415 197.558 26.3568 197.8 26.0774 198.283C25.7981 198.766 25.6572 199.46 25.6548 200.367C25.6548 200.973 25.7176 201.486 25.843 201.905C25.9709 202.321 26.152 202.638 26.3864 202.853C26.6207 203.066 26.9025 203.173 27.2315 203.173Z" fill="#7D7D7D"/>
<path d="M67 201.389L487.13 201.389" stroke="#F1F1F1"/>
<mask id="mask0_7038_33443" style="mask-type:alpha" maskUnits="userSpaceOnUse" x="81" y="72" width="405" height="129">
<rect x="81" y="72.3887" width="405" height="128" fill="#D9D9D9"/>
</mask>
<g mask="url(#mask0_7038_33443)">
<path d="M194.5 124.889L137 170.389L80 180.889V201.389L486.5 201.889V79.3887L427.5 104.389L369 157.897L310.5 177.397L252.5 104.389L194.5 124.889Z" fill="url(#paint0_linear_7038_33443)" stroke="#25CD25" stroke-dasharray="2 2"/>
</g>
<defs>
<linearGradient id="paint0_linear_7038_33443" x1="283.25" y1="79.3887" x2="283.25" y2="201.389" gradientUnits="userSpaceOnUse">
<stop stop-color="#25CD25" stop-opacity="0.4"/>
<stop offset="1" stop-color="#25CD25" stop-opacity="0"/>
</linearGradient>
</defs>
</svg>
