<svg width="17" height="17" viewBox="0 0 17 17" fill="none" xmlns="http://www.w3.org/2000/svg">
<path d="M3.16667 0.5C1.69387 0.5 0.5 1.69378 0.5 3.16667V4.94444V12.9444C0.5 14.908 2.09191 16.5 4.05556 16.5H12.9444C14.9081 16.5 16.5001 14.908 16.5 12.9444V4.94444C16.5 4.45378 16.102 4.05555 15.6111 4.05555H11.1667C10.4958 4.05555 10.2799 3.83777 9.74996 2.77733C8.94667 1.17111 8.27351 0.5 6.72222 0.5H3.16667ZM3.16667 2.27778H6.72222C7.39307 2.27778 7.60898 2.49556 8.13893 3.556C8.25493 3.788 8.30302 3.86178 8.41662 4.05555H4.91671C4.42578 4.05555 4.02773 4.45378 4.02782 4.94444C4.02782 5.43511 4.42578 5.83333 4.91671 5.83333H11.1667H14.7222V12.9444C14.7222 13.9267 13.9263 14.7222 12.9444 14.7222H4.05556C3.07369 14.7222 2.27769 13.9267 2.27778 12.9444V4.94444V3.16667C2.27778 2.676 2.67573 2.27778 3.16667 2.27778ZM8.5 7.61111C8.00907 7.61111 7.61111 8.00933 7.61111 8.5V9.38889H6.72222C6.23129 9.38889 5.83333 9.78711 5.83333 10.2778C5.83333 10.7684 6.23129 11.1667 6.72222 11.1667H7.61111V12.0556C7.61111 12.5462 8.00907 12.9444 8.5 12.9444C8.99093 12.9444 9.38889 12.5462 9.38889 12.0556V11.1667H10.2778C10.7687 11.1667 11.1667 10.7684 11.1667 10.2778C11.1667 9.78711 10.7687 9.38889 10.2778 9.38889H9.38889V8.5C9.38889 8.00933 8.99093 7.61111 8.5 7.61111Z" fill="#344054"/>
</svg>
