<svg width="249" height="103" viewBox="0 0 249 103" fill="none" xmlns="http://www.w3.org/2000/svg">
<rect width="249" height="103" rx="14" fill="url(#paint0_linear_6695_26608)"/>
<path d="M16.8807 18.3438V16.4545H28.1378V18.3438H23.5994V31H21.4119V18.3438H16.8807ZM33.468 31.2202C32.4453 31.2202 31.5528 30.9858 30.7905 30.517C30.0282 30.0483 29.4363 29.3925 29.0149 28.5497C28.5935 27.7069 28.3828 26.7221 28.3828 25.5952C28.3828 24.4635 28.5935 23.474 29.0149 22.6264C29.4363 21.7789 30.0282 21.1207 30.7905 20.652C31.5528 20.1832 32.4453 19.9489 33.468 19.9489C34.4908 19.9489 35.3833 20.1832 36.1456 20.652C36.9079 21.1207 37.4998 21.7789 37.9212 22.6264C38.3426 23.474 38.5533 24.4635 38.5533 25.5952C38.5533 26.7221 38.3426 27.7069 37.9212 28.5497C37.4998 29.3925 36.9079 30.0483 36.1456 30.517C35.3833 30.9858 34.4908 31.2202 33.468 31.2202ZM33.4751 29.4375C34.138 29.4375 34.6873 29.2623 35.1229 28.9119C35.5585 28.5616 35.8804 28.0952 36.0888 27.5128C36.3018 26.9304 36.4084 26.2888 36.4084 25.5881C36.4084 24.892 36.3018 24.2528 36.0888 23.6705C35.8804 23.0833 35.5585 22.6122 35.1229 22.2571C34.6873 21.902 34.138 21.7244 33.4751 21.7244C32.8075 21.7244 32.2536 21.902 31.8132 22.2571C31.3776 22.6122 31.0533 23.0833 30.8402 23.6705C30.6319 24.2528 30.5277 24.892 30.5277 25.5881C30.5277 26.2888 30.6319 26.9304 30.8402 27.5128C31.0533 28.0952 31.3776 28.5616 31.8132 28.9119C32.2536 29.2623 32.8075 29.4375 33.4751 29.4375ZM46.016 20.0909V21.7955H40.0572V20.0909H46.016ZM41.6552 17.4773H43.7788V27.7969C43.7788 28.2088 43.8403 28.5189 43.9634 28.7273C44.0865 28.9309 44.2451 29.0705 44.4393 29.1463C44.6381 29.2173 44.8536 29.2528 45.0856 29.2528C45.256 29.2528 45.4052 29.241 45.533 29.2173C45.6609 29.1937 45.7603 29.1747 45.8313 29.1605L46.2148 30.9148C46.0917 30.9621 45.9165 31.0095 45.6893 31.0568C45.462 31.1089 45.1779 31.1373 44.837 31.142C44.2783 31.1515 43.7575 31.0521 43.2745 30.8438C42.7915 30.6354 42.4009 30.3134 42.1026 29.8778C41.8043 29.4422 41.6552 28.8954 41.6552 28.2372V17.4773ZM51.5398 31.2415C50.8485 31.2415 50.2235 31.1136 49.6648 30.858C49.1061 30.5975 48.6634 30.2211 48.3366 29.7287C48.0147 29.2363 47.8537 28.6326 47.8537 27.9176C47.8537 27.3021 47.9721 26.7955 48.2088 26.3977C48.4455 26 48.7652 25.6851 49.1676 25.4531C49.5701 25.2211 50.0199 25.0459 50.517 24.9276C51.0142 24.8092 51.5208 24.7192 52.0369 24.6577C52.6903 24.5819 53.2206 24.5204 53.6278 24.473C54.035 24.4209 54.331 24.3381 54.5156 24.2244C54.7003 24.1108 54.7926 23.9261 54.7926 23.6705V23.6207C54.7926 23.0005 54.6174 22.5199 54.267 22.179C53.9214 21.8381 53.4053 21.6676 52.7188 21.6676C52.0038 21.6676 51.4403 21.8262 51.0284 22.1435C50.6212 22.456 50.3395 22.804 50.1832 23.1875L48.1875 22.733C48.4242 22.0701 48.7699 21.535 49.2244 21.1278C49.6837 20.7159 50.2116 20.4176 50.8082 20.233C51.4048 20.0436 52.0322 19.9489 52.6903 19.9489C53.1259 19.9489 53.5876 20.0009 54.0753 20.1051C54.5677 20.2045 55.027 20.3892 55.4531 20.6591C55.884 20.929 56.2367 21.3149 56.5114 21.8168C56.786 22.3139 56.9233 22.9602 56.9233 23.7557V31H54.8494V29.5085H54.7642C54.6269 29.7831 54.4209 30.053 54.1463 30.3182C53.8717 30.5833 53.5189 30.8035 53.0881 30.9787C52.6572 31.1539 52.1411 31.2415 51.5398 31.2415ZM52.0014 29.5369C52.5885 29.5369 53.0904 29.4209 53.5071 29.1889C53.9285 28.9569 54.2481 28.6539 54.4659 28.2798C54.6884 27.901 54.7997 27.4962 54.7997 27.0653V25.6591C54.724 25.7348 54.5772 25.8059 54.3594 25.8722C54.1463 25.9337 53.9025 25.9882 53.6278 26.0355C53.3532 26.0781 53.0857 26.1184 52.8253 26.1562C52.5649 26.1894 52.3471 26.2178 52.1719 26.2415C51.7599 26.2936 51.3835 26.3812 51.0426 26.5043C50.7064 26.6274 50.4366 26.8049 50.233 27.0369C50.0341 27.2642 49.9347 27.5672 49.9347 27.946C49.9347 28.4716 50.1288 28.8693 50.517 29.1392C50.9053 29.4044 51.4001 29.5369 52.0014 29.5369ZM61.8754 16.4545V31H59.7518V16.4545H61.8754ZM79.5494 16.4545H81.7511V26.0213C81.7511 27.0393 81.512 27.9413 81.0337 28.7273C80.5555 29.5085 79.8832 30.1241 79.0167 30.5739C78.1502 31.0189 77.1346 31.2415 75.9698 31.2415C74.8098 31.2415 73.7965 31.0189 72.93 30.5739C72.0636 30.1241 71.3912 29.5085 70.913 28.7273C70.4348 27.9413 70.1957 27.0393 70.1957 26.0213V16.4545H72.3903V25.8438C72.3903 26.5019 72.5347 27.0866 72.8235 27.598C73.1171 28.1094 73.5314 28.5118 74.0664 28.8054C74.6014 29.0942 75.2359 29.2386 75.9698 29.2386C76.7085 29.2386 77.3453 29.0942 77.8803 28.8054C78.4201 28.5118 78.832 28.1094 79.1161 27.598C79.4049 27.0866 79.5494 26.5019 79.5494 25.8438V16.4545ZM86.8949 24.5227V31H84.7713V20.0909H86.8097V21.8665H86.9446C87.1955 21.2888 87.5885 20.8248 88.1236 20.4744C88.6634 20.1241 89.3428 19.9489 90.1619 19.9489C90.9053 19.9489 91.5563 20.1051 92.1151 20.4176C92.6738 20.7254 93.107 21.1847 93.4148 21.7955C93.7225 22.4062 93.8764 23.1615 93.8764 24.0611V31H91.7528V24.3168C91.7528 23.526 91.5469 22.9081 91.1349 22.4631C90.723 22.0133 90.1572 21.7884 89.4375 21.7884C88.9451 21.7884 88.5071 21.8949 88.1236 22.108C87.7448 22.321 87.4441 22.6335 87.2216 23.0455C87.0038 23.4527 86.8949 23.9451 86.8949 24.5227ZM101.916 20.0909V21.7955H95.7514V20.0909H101.916ZM97.4418 31V18.8267C97.4418 18.1449 97.5909 17.5791 97.8892 17.1293C98.1875 16.6747 98.5829 16.3362 99.0753 16.1136C99.5677 15.8864 100.103 15.7727 100.68 15.7727C101.107 15.7727 101.471 15.8082 101.774 15.8793C102.077 15.9455 102.302 16.0071 102.449 16.0639L101.952 17.7827C101.852 17.7543 101.724 17.7211 101.568 17.6832C101.412 17.6406 101.223 17.6193 101 17.6193C100.484 17.6193 100.115 17.7472 99.892 18.0028C99.6742 18.2585 99.5653 18.6278 99.5653 19.1108V31H97.4418ZM111.018 26.4759V20.0909H113.148V31H111.06V29.1108H110.947C110.696 29.6932 110.293 30.1785 109.739 30.5668C109.19 30.9503 108.506 31.142 107.687 31.142C106.986 31.142 106.366 30.9882 105.826 30.6804C105.291 30.3679 104.87 29.9062 104.562 29.2955C104.259 28.6847 104.107 27.9295 104.107 27.0298V20.0909H106.231V26.7741C106.231 27.5175 106.437 28.1094 106.849 28.5497C107.261 28.9901 107.796 29.2102 108.454 29.2102C108.852 29.2102 109.247 29.1108 109.64 28.9119C110.038 28.7131 110.367 28.4124 110.627 28.0099C110.892 27.6075 111.022 27.0961 111.018 26.4759ZM121.194 20.0909V21.7955H115.029V20.0909H121.194ZM116.719 31V18.8267C116.719 18.1449 116.868 17.5791 117.167 17.1293C117.465 16.6747 117.86 16.3362 118.353 16.1136C118.845 15.8864 119.38 15.7727 119.958 15.7727C120.384 15.7727 120.748 15.8082 121.051 15.8793C121.355 15.9455 121.579 16.0071 121.726 16.0639L121.229 17.7827C121.13 17.7543 121.002 17.7211 120.846 17.6832C120.689 17.6406 120.5 17.6193 120.277 17.6193C119.761 17.6193 119.392 17.7472 119.169 18.0028C118.952 18.2585 118.843 18.6278 118.843 19.1108V31H116.719ZM123.385 31V20.0909H125.508V31H123.385ZM124.457 18.4077C124.088 18.4077 123.77 18.2846 123.505 18.0384C123.245 17.7874 123.115 17.4891 123.115 17.1435C123.115 16.7931 123.245 16.4948 123.505 16.2486C123.77 15.9976 124.088 15.8722 124.457 15.8722C124.826 15.8722 125.141 15.9976 125.402 16.2486C125.667 16.4948 125.799 16.7931 125.799 17.1435C125.799 17.4891 125.667 17.7874 125.402 18.0384C125.141 18.2846 124.826 18.4077 124.457 18.4077ZM130.489 16.4545V31H128.365V16.4545H130.489ZM135.469 16.4545V31H133.346V16.4545H135.469ZM143.028 31.2202C141.953 31.2202 141.027 30.9905 140.251 30.5312C139.479 30.0672 138.882 29.4162 138.461 28.5781C138.044 27.7353 137.836 26.7481 137.836 25.6165C137.836 24.4991 138.044 23.5142 138.461 22.6619C138.882 21.8097 139.469 21.1444 140.222 20.6662C140.98 20.188 141.865 19.9489 142.879 19.9489C143.494 19.9489 144.091 20.0507 144.668 20.2543C145.246 20.4579 145.764 20.7775 146.224 21.2131C146.683 21.6487 147.045 22.2145 147.31 22.9105C147.576 23.6018 147.708 24.4422 147.708 25.4318V26.1847H139.036V24.5938H145.627C145.627 24.035 145.513 23.5402 145.286 23.1094C145.059 22.6738 144.739 22.3305 144.327 22.0795C143.92 21.8286 143.442 21.7031 142.893 21.7031C142.296 21.7031 141.775 21.8499 141.33 22.1435C140.89 22.4323 140.549 22.8111 140.308 23.2798C140.071 23.7438 139.952 24.2481 139.952 24.7926V26.0355C139.952 26.7647 140.08 27.3849 140.336 27.8963C140.596 28.4077 140.959 28.7983 141.423 29.0682C141.887 29.3333 142.429 29.4659 143.049 29.4659C143.451 29.4659 143.818 29.4091 144.15 29.2955C144.481 29.1771 144.768 29.0019 145.009 28.7699C145.251 28.5379 145.435 28.2514 145.563 27.9105L147.573 28.2727C147.412 28.8646 147.123 29.383 146.707 29.8281C146.295 30.2685 145.776 30.6117 145.151 30.858C144.531 31.0994 143.823 31.2202 143.028 31.2202ZM154.148 31.2131C153.267 31.2131 152.481 30.9882 151.79 30.5384C151.104 30.0838 150.564 29.4375 150.171 28.5994C149.783 27.7566 149.588 26.7457 149.588 25.5668C149.588 24.3878 149.785 23.3793 150.178 22.5412C150.576 21.7031 151.12 21.0616 151.811 20.6165C152.503 20.1714 153.286 19.9489 154.162 19.9489C154.839 19.9489 155.384 20.0625 155.796 20.2898C156.212 20.5123 156.534 20.7727 156.762 21.071C156.994 21.3693 157.174 21.6321 157.301 21.8594H157.429V16.4545H159.553V31H157.479V29.3026H157.301C157.174 29.5346 156.989 29.7997 156.748 30.098C156.511 30.3963 156.184 30.6567 155.767 30.8793C155.351 31.1018 154.811 31.2131 154.148 31.2131ZM154.617 29.402C155.228 29.402 155.744 29.241 156.165 28.919C156.591 28.5923 156.913 28.1402 157.131 27.5625C157.354 26.9848 157.465 26.3125 157.465 25.5455C157.465 24.7879 157.356 24.125 157.138 23.5568C156.92 22.9886 156.601 22.5459 156.179 22.2287C155.758 21.9115 155.237 21.7528 154.617 21.7528C153.978 21.7528 153.445 21.9186 153.019 22.25C152.593 22.5814 152.271 23.0336 152.053 23.6065C151.84 24.1795 151.733 24.8258 151.733 25.5455C151.733 26.2746 151.842 26.9304 152.06 27.5128C152.278 28.0952 152.6 28.5568 153.026 28.8977C153.457 29.2339 153.987 29.402 154.617 29.402ZM180.682 23.7273C180.682 25.2803 180.398 26.6155 179.83 27.733C179.262 28.8456 178.483 29.7027 177.493 30.304C176.508 30.9006 175.389 31.1989 174.134 31.1989C172.874 31.1989 171.75 30.9006 170.76 30.304C169.775 29.7027 168.999 28.8433 168.431 27.7259C167.863 26.6084 167.578 25.2756 167.578 23.7273C167.578 22.1742 167.863 20.8414 168.431 19.7287C168.999 18.6113 169.775 17.7543 170.76 17.1577C171.75 16.5563 172.874 16.2557 174.134 16.2557C175.389 16.2557 176.508 16.5563 177.493 17.1577C178.483 17.7543 179.262 18.6113 179.83 19.7287C180.398 20.8414 180.682 22.1742 180.682 23.7273ZM178.509 23.7273C178.509 22.5436 178.317 21.5469 177.934 20.7372C177.555 19.9228 177.034 19.3073 176.371 18.8906C175.713 18.4692 174.967 18.2585 174.134 18.2585C173.296 18.2585 172.548 18.4692 171.89 18.8906C171.231 19.3073 170.711 19.9228 170.327 20.7372C169.948 21.5469 169.759 22.5436 169.759 23.7273C169.759 24.911 169.948 25.91 170.327 26.7244C170.711 27.5341 171.231 28.1496 171.89 28.571C172.548 28.9877 173.296 29.196 174.134 29.196C174.967 29.196 175.713 28.9877 176.371 28.571C177.034 28.1496 177.555 27.5341 177.934 26.7244C178.317 25.91 178.509 24.911 178.509 23.7273ZM183.248 31V20.0909H185.3V21.8239H185.414C185.613 21.2367 185.963 20.7751 186.465 20.4389C186.972 20.098 187.545 19.9276 188.184 19.9276C188.317 19.9276 188.473 19.9323 188.653 19.9418C188.837 19.9512 188.982 19.9631 189.086 19.9773V22.0085C189.001 21.9848 188.849 21.9588 188.631 21.9304C188.414 21.8973 188.196 21.8807 187.978 21.8807C187.476 21.8807 187.029 21.9872 186.636 22.2003C186.247 22.4086 185.94 22.6998 185.712 23.0739C185.485 23.4432 185.371 23.8646 185.371 24.3381V31H183.248ZM194.617 31.2131C193.736 31.2131 192.95 30.9882 192.259 30.5384C191.572 30.0838 191.033 29.4375 190.64 28.5994C190.251 27.7566 190.057 26.7457 190.057 25.5668C190.057 24.3878 190.254 23.3793 190.647 22.5412C191.044 21.7031 191.589 21.0616 192.28 20.6165C192.971 20.1714 193.755 19.9489 194.631 19.9489C195.308 19.9489 195.853 20.0625 196.265 20.2898C196.681 20.5123 197.003 20.7727 197.23 21.071C197.462 21.3693 197.642 21.6321 197.77 21.8594H197.898V16.4545H200.022V31H197.948V29.3026H197.77C197.642 29.5346 197.458 29.7997 197.216 30.098C196.98 30.3963 196.653 30.6567 196.236 30.8793C195.819 31.1018 195.28 31.2131 194.617 31.2131ZM195.086 29.402C195.696 29.402 196.212 29.241 196.634 28.919C197.06 28.5923 197.382 28.1402 197.6 27.5625C197.822 26.9848 197.934 26.3125 197.934 25.5455C197.934 24.7879 197.825 24.125 197.607 23.5568C197.389 22.9886 197.069 22.5459 196.648 22.2287C196.227 21.9115 195.706 21.7528 195.086 21.7528C194.446 21.7528 193.914 21.9186 193.488 22.25C193.061 22.5814 192.739 23.0336 192.522 23.6065C192.309 24.1795 192.202 24.8258 192.202 25.5455C192.202 26.2746 192.311 26.9304 192.529 27.5128C192.747 28.0952 193.069 28.5568 193.495 28.8977C193.926 29.2339 194.456 29.402 195.086 29.402ZM207.754 31.2202C206.679 31.2202 205.754 30.9905 204.977 30.5312C204.205 30.0672 203.609 29.4162 203.188 28.5781C202.771 27.7353 202.562 26.7481 202.562 25.6165C202.562 24.4991 202.771 23.5142 203.188 22.6619C203.609 21.8097 204.196 21.1444 204.949 20.6662C205.706 20.188 206.592 19.9489 207.605 19.9489C208.221 19.9489 208.817 20.0507 209.395 20.2543C209.973 20.4579 210.491 20.7775 210.95 21.2131C211.41 21.6487 211.772 22.2145 212.037 22.9105C212.302 23.6018 212.435 24.4422 212.435 25.4318V26.1847H203.763V24.5938H210.354C210.354 24.035 210.24 23.5402 210.013 23.1094C209.786 22.6738 209.466 22.3305 209.054 22.0795C208.647 21.8286 208.169 21.7031 207.619 21.7031C207.023 21.7031 206.502 21.8499 206.057 22.1435C205.616 22.4323 205.276 22.8111 205.034 23.2798C204.797 23.7438 204.679 24.2481 204.679 24.7926V26.0355C204.679 26.7647 204.807 27.3849 205.062 27.8963C205.323 28.4077 205.685 28.7983 206.149 29.0682C206.613 29.3333 207.155 29.4659 207.776 29.4659C208.178 29.4659 208.545 29.4091 208.876 29.2955C209.208 29.1771 209.494 29.0019 209.736 28.7699C209.977 28.5379 210.162 28.2514 210.29 27.9105L212.3 28.2727C212.139 28.8646 211.85 29.383 211.433 29.8281C211.021 30.2685 210.503 30.6117 209.878 30.858C209.258 31.0994 208.55 31.2202 207.754 31.2202ZM214.791 31V20.0909H216.843V21.8239H216.957C217.156 21.2367 217.506 20.7751 218.008 20.4389C218.515 20.098 219.088 19.9276 219.727 19.9276C219.859 19.9276 220.016 19.9323 220.196 19.9418C220.38 19.9512 220.525 19.9631 220.629 19.9773V22.0085C220.544 21.9848 220.392 21.9588 220.174 21.9304C219.957 21.8973 219.739 21.8807 219.521 21.8807C219.019 21.8807 218.572 21.9872 218.179 22.2003C217.79 22.4086 217.483 22.6998 217.255 23.0739C217.028 23.4432 216.914 23.8646 216.914 24.3381V31H214.791ZM230.641 22.7543L228.717 23.0952C228.636 22.849 228.508 22.6146 228.333 22.392C228.163 22.1695 227.931 21.9872 227.637 21.8452C227.344 21.7031 226.977 21.6321 226.536 21.6321C225.935 21.6321 225.433 21.767 225.031 22.0369C224.628 22.3021 224.427 22.6454 224.427 23.0668C224.427 23.4313 224.562 23.7249 224.832 23.9474C225.102 24.17 225.537 24.3523 226.138 24.4943L227.871 24.892C228.875 25.1241 229.623 25.4815 230.116 25.9645C230.608 26.4474 230.854 27.0748 230.854 27.8466C230.854 28.5 230.665 29.0824 230.286 29.5938C229.912 30.1004 229.389 30.4981 228.717 30.7869C228.049 31.0758 227.275 31.2202 226.394 31.2202C225.173 31.2202 224.176 30.9598 223.404 30.4389C222.632 29.9134 222.159 29.1676 221.984 28.2017L224.036 27.8892C224.164 28.4242 224.427 28.8291 224.825 29.1037C225.222 29.3736 225.741 29.5085 226.38 29.5085C227.076 29.5085 227.632 29.3641 228.049 29.0753C228.466 28.7817 228.674 28.4242 228.674 28.0028C228.674 27.6619 228.546 27.3755 228.29 27.1435C228.04 26.9115 227.654 26.7363 227.133 26.6179L225.286 26.2131C224.268 25.9811 223.515 25.6117 223.028 25.1051C222.545 24.5985 222.303 23.9569 222.303 23.1804C222.303 22.5365 222.483 21.973 222.843 21.4901C223.203 21.0071 223.7 20.6307 224.335 20.3608C224.969 20.0862 225.696 19.9489 226.515 19.9489C227.694 19.9489 228.622 20.2045 229.299 20.7159C229.976 21.2225 230.424 21.902 230.641 22.7543Z" fill="white"/>
<path d="M39.0701 69H46.9341C47.0291 69.0001 47.1222 69.0272 47.2023 69.0782C47.2825 69.1292 47.3465 69.202 47.3867 69.288C47.427 69.374 47.442 69.4698 47.4298 69.564C47.4177 69.6582 47.3789 69.747 47.3181 69.82L43.3861 74.5401C43.3392 74.5963 43.2805 74.6416 43.2141 74.6727C43.1478 74.7037 43.0754 74.7198 43.0021 74.7198C42.9289 74.7198 42.8565 74.7037 42.7901 74.6727C42.7238 74.6416 42.665 74.5963 42.6181 74.5401L38.6861 69.82C38.6253 69.747 38.5866 69.6582 38.5744 69.564C38.5623 69.4698 38.5772 69.374 38.6175 69.288C38.6578 69.202 38.7218 69.1292 38.8019 69.0782C38.8821 69.0272 38.9751 69.0001 39.0701 69ZM17.0701 73H24.9341C25.0291 73 25.1222 72.9729 25.2023 72.9219C25.2825 72.8709 25.3465 72.7981 25.3867 72.7121C25.427 72.6261 25.442 72.5303 25.4298 72.4361C25.4177 72.3419 25.3789 72.2531 25.3181 72.18L21.3861 67.46C21.3392 67.4038 21.2805 67.3585 21.2141 67.3274C21.1478 67.2964 21.0754 67.2803 21.0021 67.2803C20.9289 67.2803 20.8565 67.2964 20.7901 67.3274C20.7238 67.3585 20.6651 67.4038 20.6181 67.46L16.6861 72.18C16.6253 72.2531 16.5866 72.3419 16.5744 72.4361C16.5623 72.5303 16.5772 72.6261 16.6175 72.7121C16.6578 72.7981 16.7218 72.8709 16.8019 72.9219C16.8821 72.9729 16.9751 73 17.0701 73Z" fill="white"/>
<path fill-rule="evenodd" clip-rule="evenodd" d="M32.0059 61C28.9019 61 26.1259 62.414 24.2919 64.636C24.21 64.7421 24.1076 64.8307 23.9908 64.8965C23.8739 64.9623 23.7451 65.0039 23.6119 65.0189C23.4786 65.0338 23.3437 65.0219 23.2152 64.9837C23.0867 64.9455 22.9672 64.8818 22.8638 64.7965C22.7604 64.7112 22.6752 64.606 22.6132 64.4871C22.5513 64.3682 22.5139 64.238 22.5033 64.1044C22.4926 63.9708 22.509 63.8363 22.5514 63.7091C22.5937 63.5819 22.6612 63.4646 22.7499 63.364C24.2143 61.591 26.1571 60.276 28.3472 59.5753C30.5373 58.8746 32.8827 58.8177 35.1042 59.4114C37.3258 60.005 39.3301 61.2243 40.8787 62.9242C42.4273 64.624 43.4551 66.7329 43.8399 69H41.8059C41.3448 66.7412 40.1175 64.7112 38.3317 63.2534C36.5458 61.7955 34.3112 60.9995 32.0059 61ZM22.2059 73C22.5845 74.8492 23.4786 76.5536 24.7848 77.9163C26.0911 79.2789 27.7562 80.2442 29.5878 80.7005C31.4194 81.1569 33.3428 81.0858 35.1357 80.4954C36.9286 79.905 38.5178 78.8194 39.7199 77.364C39.8018 77.2578 39.9042 77.1692 40.021 77.1035C40.1378 77.0377 40.2667 76.9961 40.3999 76.9811C40.5331 76.9661 40.668 76.9781 40.7965 77.0163C40.925 77.0545 41.0445 77.1181 41.148 77.2034C41.2514 77.2887 41.3366 77.394 41.3985 77.5129C41.4605 77.6318 41.4978 77.7619 41.5085 77.8956C41.5191 78.0292 41.5027 78.1636 41.4604 78.2908C41.418 78.418 41.3505 78.5354 41.2619 78.636C39.7975 80.4089 37.8547 81.724 35.6645 82.4247C33.4744 83.1254 31.1291 83.1823 28.9075 82.5886C26.686 81.9949 24.6817 80.7757 23.1331 79.0758C21.5844 77.376 20.5566 75.2671 20.1719 73H22.2059Z" fill="white"/>
<path d="M171.2 78.6989C170.31 78.6989 169.51 78.5284 168.8 78.1875C168.094 77.8419 167.531 77.3684 167.109 76.767C166.688 76.1657 166.463 75.4792 166.435 74.7074H168.565C168.617 75.3324 168.894 75.8461 169.396 76.2486C169.898 76.651 170.5 76.8523 171.2 76.8523C171.759 76.8523 172.254 76.7244 172.685 76.4688C173.12 76.2083 173.461 75.8509 173.707 75.3963C173.958 74.9418 174.084 74.4233 174.084 73.8409C174.084 73.2491 173.956 72.7211 173.7 72.2571C173.445 71.7931 173.092 71.4285 172.642 71.1634C172.197 70.8982 171.686 70.7633 171.108 70.7585C170.668 70.7585 170.225 70.8343 169.78 70.9858C169.335 71.1373 168.975 71.3362 168.7 71.5824L166.69 71.2841L167.507 63.9545H175.504V65.8366H169.332L168.871 69.9062H168.956C169.24 69.6316 169.616 69.402 170.085 69.2173C170.559 69.0327 171.065 68.9403 171.605 68.9403C172.491 68.9403 173.279 69.151 173.97 69.5724C174.666 69.9938 175.213 70.5691 175.611 71.2983C176.013 72.0227 176.212 72.8561 176.207 73.7983C176.212 74.7405 175.999 75.581 175.568 76.3196C175.142 77.0582 174.55 77.6406 173.793 78.0668C173.04 78.4882 172.176 78.6989 171.2 78.6989ZM183.603 78.6989C182.712 78.6989 181.912 78.5284 181.202 78.1875C180.497 77.8419 179.933 77.3684 179.512 76.767C179.09 76.1657 178.865 75.4792 178.837 74.7074H180.968C181.02 75.3324 181.297 75.8461 181.799 76.2486C182.301 76.651 182.902 76.8523 183.603 76.8523C184.161 76.8523 184.656 76.7244 185.087 76.4688C185.523 76.2083 185.864 75.8509 186.11 75.3963C186.361 74.9418 186.486 74.4233 186.486 73.8409C186.486 73.2491 186.358 72.7211 186.103 72.2571C185.847 71.7931 185.494 71.4285 185.044 71.1634C184.599 70.8982 184.088 70.7633 183.51 70.7585C183.07 70.7585 182.627 70.8343 182.182 70.9858C181.737 71.1373 181.377 71.3362 181.103 71.5824L179.093 71.2841L179.909 63.9545H187.907V65.8366H181.735L181.273 69.9062H181.358C181.642 69.6316 182.019 69.402 182.488 69.2173C182.961 69.0327 183.468 68.9403 184.007 68.9403C184.893 68.9403 185.681 69.151 186.373 69.5724C187.069 69.9938 187.615 70.5691 188.013 71.2983C188.416 72.0227 188.614 72.8561 188.61 73.7983C188.614 74.7405 188.401 75.581 187.971 76.3196C187.544 77.0582 186.953 77.6406 186.195 78.0668C185.442 78.4882 184.578 78.6989 183.603 78.6989Z" fill="white"/>
<defs>
<linearGradient id="paint0_linear_6695_26608" x1="249" y1="51" x2="-1.49044e-06" y2="51" gradientUnits="userSpaceOnUse">
<stop stop-color="#E8A907"/>
<stop offset="1" stop-color="#C79106" stop-opacity="0.85"/>
</linearGradient>
</defs>
</svg>
