<svg width="249" height="103" viewBox="0 0 249 103" fill="none" xmlns="http://www.w3.org/2000/svg">
<rect width="249" height="103" rx="14" fill="url(#paint0_linear_6690_53174)"/>
<path d="M16.8807 18.3438V16.4545H28.1378V18.3438H23.5994V31H21.4119V18.3438H16.8807ZM33.468 31.2202C32.4453 31.2202 31.5528 30.9858 30.7905 30.517C30.0282 30.0483 29.4363 29.3925 29.0149 28.5497C28.5935 27.7069 28.3828 26.7221 28.3828 25.5952C28.3828 24.4635 28.5935 23.474 29.0149 22.6264C29.4363 21.7789 30.0282 21.1207 30.7905 20.652C31.5528 20.1832 32.4453 19.9489 33.468 19.9489C34.4908 19.9489 35.3833 20.1832 36.1456 20.652C36.9079 21.1207 37.4998 21.7789 37.9212 22.6264C38.3426 23.474 38.5533 24.4635 38.5533 25.5952C38.5533 26.7221 38.3426 27.7069 37.9212 28.5497C37.4998 29.3925 36.9079 30.0483 36.1456 30.517C35.3833 30.9858 34.4908 31.2202 33.468 31.2202ZM33.4751 29.4375C34.138 29.4375 34.6873 29.2623 35.1229 28.9119C35.5585 28.5616 35.8804 28.0952 36.0888 27.5128C36.3018 26.9304 36.4084 26.2888 36.4084 25.5881C36.4084 24.892 36.3018 24.2528 36.0888 23.6705C35.8804 23.0833 35.5585 22.6122 35.1229 22.2571C34.6873 21.902 34.138 21.7244 33.4751 21.7244C32.8075 21.7244 32.2536 21.902 31.8132 22.2571C31.3776 22.6122 31.0533 23.0833 30.8402 23.6705C30.6319 24.2528 30.5277 24.892 30.5277 25.5881C30.5277 26.2888 30.6319 26.9304 30.8402 27.5128C31.0533 28.0952 31.3776 28.5616 31.8132 28.9119C32.2536 29.2623 32.8075 29.4375 33.4751 29.4375ZM46.016 20.0909V21.7955H40.0572V20.0909H46.016ZM41.6552 17.4773H43.7788V27.7969C43.7788 28.2088 43.8403 28.5189 43.9634 28.7273C44.0865 28.9309 44.2451 29.0705 44.4393 29.1463C44.6381 29.2173 44.8536 29.2528 45.0856 29.2528C45.256 29.2528 45.4052 29.241 45.533 29.2173C45.6609 29.1937 45.7603 29.1747 45.8313 29.1605L46.2148 30.9148C46.0917 30.9621 45.9165 31.0095 45.6893 31.0568C45.462 31.1089 45.1779 31.1373 44.837 31.142C44.2783 31.1515 43.7575 31.0521 43.2745 30.8438C42.7915 30.6354 42.4009 30.3134 42.1026 29.8778C41.8043 29.4422 41.6552 28.8954 41.6552 28.2372V17.4773ZM51.5398 31.2415C50.8485 31.2415 50.2235 31.1136 49.6648 30.858C49.1061 30.5975 48.6634 30.2211 48.3366 29.7287C48.0147 29.2363 47.8537 28.6326 47.8537 27.9176C47.8537 27.3021 47.9721 26.7955 48.2088 26.3977C48.4455 26 48.7652 25.6851 49.1676 25.4531C49.5701 25.2211 50.0199 25.0459 50.517 24.9276C51.0142 24.8092 51.5208 24.7192 52.0369 24.6577C52.6903 24.5819 53.2206 24.5204 53.6278 24.473C54.035 24.4209 54.331 24.3381 54.5156 24.2244C54.7003 24.1108 54.7926 23.9261 54.7926 23.6705V23.6207C54.7926 23.0005 54.6174 22.5199 54.267 22.179C53.9214 21.8381 53.4053 21.6676 52.7188 21.6676C52.0038 21.6676 51.4403 21.8262 51.0284 22.1435C50.6212 22.456 50.3395 22.804 50.1832 23.1875L48.1875 22.733C48.4242 22.0701 48.7699 21.535 49.2244 21.1278C49.6837 20.7159 50.2116 20.4176 50.8082 20.233C51.4048 20.0436 52.0322 19.9489 52.6903 19.9489C53.1259 19.9489 53.5876 20.0009 54.0753 20.1051C54.5677 20.2045 55.027 20.3892 55.4531 20.6591C55.884 20.929 56.2367 21.3149 56.5114 21.8168C56.786 22.3139 56.9233 22.9602 56.9233 23.7557V31H54.8494V29.5085H54.7642C54.6269 29.7831 54.4209 30.053 54.1463 30.3182C53.8717 30.5833 53.5189 30.8035 53.0881 30.9787C52.6572 31.1539 52.1411 31.2415 51.5398 31.2415ZM52.0014 29.5369C52.5885 29.5369 53.0904 29.4209 53.5071 29.1889C53.9285 28.9569 54.2481 28.6539 54.4659 28.2798C54.6884 27.901 54.7997 27.4962 54.7997 27.0653V25.6591C54.724 25.7348 54.5772 25.8059 54.3594 25.8722C54.1463 25.9337 53.9025 25.9882 53.6278 26.0355C53.3532 26.0781 53.0857 26.1184 52.8253 26.1562C52.5649 26.1894 52.3471 26.2178 52.1719 26.2415C51.7599 26.2936 51.3835 26.3812 51.0426 26.5043C50.7064 26.6274 50.4366 26.8049 50.233 27.0369C50.0341 27.2642 49.9347 27.5672 49.9347 27.946C49.9347 28.4716 50.1288 28.8693 50.517 29.1392C50.9053 29.4044 51.4001 29.5369 52.0014 29.5369ZM61.8754 16.4545V31H59.7518V16.4545H61.8754ZM82.2766 21.1847H80.0607C79.9755 20.7112 79.8169 20.2945 79.5849 19.9347C79.3529 19.5748 79.0688 19.2694 78.7326 19.0185C78.3964 18.7675 78.02 18.5781 77.6033 18.4503C77.1914 18.3224 76.7534 18.2585 76.2894 18.2585C75.4513 18.2585 74.7009 18.4692 74.038 18.8906C73.3799 19.312 72.859 19.9299 72.4755 20.7443C72.0967 21.5587 71.9073 22.553 71.9073 23.7273C71.9073 24.911 72.0967 25.91 72.4755 26.7244C72.859 27.5388 73.3822 28.1544 74.0451 28.571C74.708 28.9877 75.4537 29.196 76.2823 29.196C76.7416 29.196 77.1772 29.1345 77.5891 29.0114C78.0058 28.8835 78.3822 28.6965 78.7184 28.4503C79.0546 28.2041 79.3387 27.9034 79.5707 27.5483C79.8074 27.1884 79.9708 26.7765 80.0607 26.3125L82.2766 26.3196C82.1583 27.0346 81.9286 27.6927 81.5877 28.294C81.2515 28.8906 80.8183 29.4067 80.288 29.8423C79.7624 30.2732 79.1611 30.607 78.484 30.8438C77.8069 31.0805 77.0683 31.1989 76.2681 31.1989C75.0086 31.1989 73.8865 30.9006 72.9016 30.304C71.9168 29.7027 71.1403 28.8433 70.5721 27.7259C70.0086 26.6084 69.7269 25.2756 69.7269 23.7273C69.7269 22.1742 70.011 20.8414 70.5792 19.7287C71.1474 18.6113 71.9239 17.7543 72.9087 17.1577C73.8936 16.5563 75.0134 16.2557 76.2681 16.2557C77.0399 16.2557 77.7596 16.367 78.4272 16.5895C79.0996 16.8073 79.7032 17.1293 80.2383 17.5554C80.7733 17.9768 81.216 18.4929 81.5664 19.1037C81.9168 19.7098 82.1535 20.4034 82.2766 21.1847ZM91.6428 26.4759V20.0909H93.7734V31H91.6854V29.1108H91.5717C91.3208 29.6932 90.9183 30.1785 90.3643 30.5668C89.8151 30.9503 89.1309 31.142 88.3118 31.142C87.611 31.142 86.9908 30.9882 86.451 30.6804C85.916 30.3679 85.4946 29.9062 85.1868 29.2955C84.8838 28.6847 84.7322 27.9295 84.7322 27.0298V20.0909H86.8558V26.7741C86.8558 27.5175 87.0618 28.1094 87.4737 28.5497C87.8857 28.9901 88.4207 29.2102 89.0788 29.2102C89.4766 29.2102 89.8719 29.1108 90.2649 28.9119C90.6626 28.7131 90.9917 28.4124 91.2521 28.0099C91.5173 27.6075 91.6475 27.0961 91.6428 26.4759ZM104.801 22.7543L102.877 23.0952C102.796 22.849 102.668 22.6146 102.493 22.392C102.323 22.1695 102.091 21.9872 101.797 21.8452C101.504 21.7031 101.137 21.6321 100.696 21.6321C100.095 21.6321 99.5932 21.767 99.1907 22.0369C98.7882 22.3021 98.587 22.6454 98.587 23.0668C98.587 23.4313 98.7219 23.7249 98.9918 23.9474C99.2617 24.17 99.6973 24.3523 100.299 24.4943L102.032 24.892C103.035 25.1241 103.783 25.4815 104.276 25.9645C104.768 26.4474 105.015 27.0748 105.015 27.8466C105.015 28.5 104.825 29.0824 104.446 29.5938C104.072 30.1004 103.549 30.4981 102.877 30.7869C102.209 31.0758 101.435 31.2202 100.554 31.2202C99.3327 31.2202 98.3361 30.9598 97.5643 30.4389C96.7925 29.9134 96.319 29.1676 96.1438 28.2017L98.1964 27.8892C98.3242 28.4242 98.587 28.8291 98.9847 29.1037C99.3825 29.3736 99.9009 29.5085 100.54 29.5085C101.236 29.5085 101.792 29.3641 102.209 29.0753C102.626 28.7817 102.834 28.4242 102.834 28.0028C102.834 27.6619 102.706 27.3755 102.451 27.1435C102.2 26.9115 101.814 26.7363 101.293 26.6179L99.4464 26.2131C98.4284 25.9811 97.6755 25.6117 97.1879 25.1051C96.7049 24.5985 96.4634 23.9569 96.4634 23.1804C96.4634 22.5365 96.6433 21.973 97.0032 21.4901C97.363 21.0071 97.8602 20.6307 98.4947 20.3608C99.1291 20.0862 99.8559 19.9489 100.675 19.9489C101.854 19.9489 102.782 20.2045 103.459 20.7159C104.136 21.2225 104.584 21.902 104.801 22.7543ZM112.442 20.0909V21.7955H106.483V20.0909H112.442ZM108.081 17.4773H110.205V27.7969C110.205 28.2088 110.266 28.5189 110.389 28.7273C110.512 28.9309 110.671 29.0705 110.865 29.1463C111.064 29.2173 111.279 29.2528 111.511 29.2528C111.682 29.2528 111.831 29.241 111.959 29.2173C112.087 29.1937 112.186 29.1747 112.257 29.1605L112.641 30.9148C112.518 30.9621 112.342 31.0095 112.115 31.0568C111.888 31.1089 111.604 31.1373 111.263 31.142C110.704 31.1515 110.183 31.0521 109.7 30.8438C109.217 30.6354 108.827 30.3134 108.528 29.8778C108.23 29.4422 108.081 28.8954 108.081 28.2372V17.4773ZM119.269 31.2202C118.246 31.2202 117.354 30.9858 116.591 30.517C115.829 30.0483 115.237 29.3925 114.816 28.5497C114.394 27.7069 114.184 26.7221 114.184 25.5952C114.184 24.4635 114.394 23.474 114.816 22.6264C115.237 21.7789 115.829 21.1207 116.591 20.652C117.354 20.1832 118.246 19.9489 119.269 19.9489C120.292 19.9489 121.184 20.1832 121.946 20.652C122.709 21.1207 123.301 21.7789 123.722 22.6264C124.143 23.474 124.354 24.4635 124.354 25.5952C124.354 26.7221 124.143 27.7069 123.722 28.5497C123.301 29.3925 122.709 30.0483 121.946 30.517C121.184 30.9858 120.292 31.2202 119.269 31.2202ZM119.276 29.4375C119.939 29.4375 120.488 29.2623 120.924 28.9119C121.359 28.5616 121.681 28.0952 121.89 27.5128C122.103 26.9304 122.209 26.2888 122.209 25.5881C122.209 24.892 122.103 24.2528 121.89 23.6705C121.681 23.0833 121.359 22.6122 120.924 22.2571C120.488 21.902 119.939 21.7244 119.276 21.7244C118.608 21.7244 118.054 21.902 117.614 22.2571C117.178 22.6122 116.854 23.0833 116.641 23.6705C116.433 24.2528 116.328 24.892 116.328 25.5881C116.328 26.2888 116.433 26.9304 116.641 27.5128C116.854 28.0952 117.178 28.5616 117.614 28.9119C118.054 29.2623 118.608 29.4375 119.276 29.4375ZM126.724 31V20.0909H128.763V21.8665H128.898C129.125 21.2652 129.497 20.7964 130.013 20.4602C130.529 20.1193 131.147 19.9489 131.866 19.9489C132.596 19.9489 133.206 20.1193 133.699 20.4602C134.196 20.8011 134.563 21.2699 134.8 21.8665H134.913C135.174 21.2841 135.588 20.8201 136.156 20.4744C136.724 20.1241 137.402 19.9489 138.188 19.9489C139.177 19.9489 139.984 20.259 140.609 20.8793C141.239 21.4995 141.554 22.4347 141.554 23.6847V31H139.43V23.8835C139.43 23.1449 139.229 22.6098 138.827 22.2784C138.424 21.947 137.944 21.7812 137.385 21.7812C136.694 21.7812 136.156 21.9943 135.773 22.4205C135.389 22.8419 135.197 23.384 135.197 24.0469V31H133.081V23.7486C133.081 23.1567 132.896 22.6809 132.527 22.321C132.158 21.9612 131.677 21.7812 131.085 21.7812C130.683 21.7812 130.311 21.8878 129.97 22.1009C129.634 22.3092 129.362 22.6004 129.153 22.9744C128.95 23.3485 128.848 23.7817 128.848 24.2741V31H126.724ZM149.102 31.2202C148.027 31.2202 147.101 30.9905 146.325 30.5312C145.553 30.0672 144.957 29.4162 144.535 28.5781C144.118 27.7353 143.91 26.7481 143.91 25.6165C143.91 24.4991 144.118 23.5142 144.535 22.6619C144.957 21.8097 145.544 21.1444 146.297 20.6662C147.054 20.188 147.94 19.9489 148.953 19.9489C149.568 19.9489 150.165 20.0507 150.743 20.2543C151.32 20.4579 151.839 20.7775 152.298 21.2131C152.757 21.6487 153.119 22.2145 153.385 22.9105C153.65 23.6018 153.782 24.4422 153.782 25.4318V26.1847H145.11V24.5938H151.701C151.701 24.035 151.588 23.5402 151.36 23.1094C151.133 22.6738 150.814 22.3305 150.402 22.0795C149.994 21.8286 149.516 21.7031 148.967 21.7031C148.37 21.7031 147.85 21.8499 147.404 22.1435C146.964 22.4323 146.623 22.8111 146.382 23.2798C146.145 23.7438 146.027 24.2481 146.027 24.7926V26.0355C146.027 26.7647 146.154 27.3849 146.41 27.8963C146.671 28.4077 147.033 28.7983 147.497 29.0682C147.961 29.3333 148.503 29.4659 149.123 29.4659C149.526 29.4659 149.893 29.4091 150.224 29.2955C150.556 29.1771 150.842 29.0019 151.083 28.7699C151.325 28.5379 151.51 28.2514 151.637 27.9105L153.647 28.2727C153.486 28.8646 153.198 29.383 152.781 29.8281C152.369 30.2685 151.85 30.6117 151.225 30.858C150.605 31.0994 149.897 31.2202 149.102 31.2202ZM156.138 31V20.0909H158.191V21.8239H158.305C158.504 21.2367 158.854 20.7751 159.356 20.4389C159.862 20.098 160.435 19.9276 161.075 19.9276C161.207 19.9276 161.363 19.9323 161.543 19.9418C161.728 19.9512 161.872 19.9631 161.977 19.9773V22.0085C161.891 21.9848 161.74 21.9588 161.522 21.9304C161.304 21.8973 161.086 21.8807 160.869 21.8807C160.367 21.8807 159.919 21.9872 159.526 22.2003C159.138 22.4086 158.83 22.6998 158.603 23.0739C158.376 23.4432 158.262 23.8646 158.262 24.3381V31H156.138ZM181.913 23.7273C181.913 25.2803 181.629 26.6155 181.06 27.733C180.492 28.8456 179.713 29.7027 178.724 30.304C177.739 30.9006 176.619 31.1989 175.364 31.1989C174.105 31.1989 172.98 30.9006 171.991 30.304C171.006 29.7027 170.229 28.8433 169.661 27.7259C169.093 26.6084 168.809 25.2756 168.809 23.7273C168.809 22.1742 169.093 20.8414 169.661 19.7287C170.229 18.6113 171.006 17.7543 171.991 17.1577C172.98 16.5563 174.105 16.2557 175.364 16.2557C176.619 16.2557 177.739 16.5563 178.724 17.1577C179.713 17.7543 180.492 18.6113 181.06 19.7287C181.629 20.8414 181.913 22.1742 181.913 23.7273ZM179.739 23.7273C179.739 22.5436 179.548 21.5469 179.164 20.7372C178.785 19.9228 178.264 19.3073 177.602 18.8906C176.943 18.4692 176.198 18.2585 175.364 18.2585C174.526 18.2585 173.778 18.4692 173.12 18.8906C172.462 19.3073 171.941 19.9228 171.558 20.7372C171.179 21.5469 170.989 22.5436 170.989 23.7273C170.989 24.911 171.179 25.91 171.558 26.7244C171.941 27.5341 172.462 28.1496 173.12 28.571C173.778 28.9877 174.526 29.196 175.364 29.196C176.198 29.196 176.943 28.9877 177.602 28.571C178.264 28.1496 178.785 27.5341 179.164 26.7244C179.548 25.91 179.739 24.911 179.739 23.7273ZM184.478 31V20.0909H186.531V21.8239H186.645C186.843 21.2367 187.194 20.7751 187.696 20.4389C188.202 20.098 188.775 19.9276 189.414 19.9276C189.547 19.9276 189.703 19.9323 189.883 19.9418C190.068 19.9512 190.212 19.9631 190.316 19.9773V22.0085C190.231 21.9848 190.08 21.9588 189.862 21.9304C189.644 21.8973 189.426 21.8807 189.208 21.8807C188.707 21.8807 188.259 21.9872 187.866 22.2003C187.478 22.4086 187.17 22.6998 186.943 23.0739C186.716 23.4432 186.602 23.8646 186.602 24.3381V31H184.478ZM195.847 31.2131C194.967 31.2131 194.181 30.9882 193.489 30.5384C192.803 30.0838 192.263 29.4375 191.87 28.5994C191.482 27.7566 191.288 26.7457 191.288 25.5668C191.288 24.3878 191.484 23.3793 191.877 22.5412C192.275 21.7031 192.819 21.0616 193.511 20.6165C194.202 20.1714 194.986 19.9489 195.862 19.9489C196.539 19.9489 197.083 20.0625 197.495 20.2898C197.912 20.5123 198.234 20.7727 198.461 21.071C198.693 21.3693 198.873 21.6321 199.001 21.8594H199.129V16.4545H201.252V31H199.178V29.3026H199.001C198.873 29.5346 198.688 29.7997 198.447 30.098C198.21 30.3963 197.883 30.6567 197.467 30.8793C197.05 31.1018 196.51 31.2131 195.847 31.2131ZM196.316 29.402C196.927 29.402 197.443 29.241 197.864 28.919C198.29 28.5923 198.612 28.1402 198.83 27.5625C199.053 26.9848 199.164 26.3125 199.164 25.5455C199.164 24.7879 199.055 24.125 198.837 23.5568C198.62 22.9886 198.3 22.5459 197.879 22.2287C197.457 21.9115 196.936 21.7528 196.316 21.7528C195.677 21.7528 195.144 21.9186 194.718 22.25C194.292 22.5814 193.97 23.0336 193.752 23.6065C193.539 24.1795 193.433 24.8258 193.433 25.5455C193.433 26.2746 193.541 26.9304 193.759 27.5128C193.977 28.0952 194.299 28.5568 194.725 28.8977C195.156 29.2339 195.686 29.402 196.316 29.402ZM208.985 31.2202C207.91 31.2202 206.984 30.9905 206.208 30.5312C205.436 30.0672 204.839 29.4162 204.418 28.5781C204.001 27.7353 203.793 26.7481 203.793 25.6165C203.793 24.4991 204.001 23.5142 204.418 22.6619C204.839 21.8097 205.426 21.1444 206.179 20.6662C206.937 20.188 207.822 19.9489 208.836 19.9489C209.451 19.9489 210.048 20.0507 210.625 20.2543C211.203 20.4579 211.721 20.7775 212.181 21.2131C212.64 21.6487 213.002 22.2145 213.267 22.9105C213.533 23.6018 213.665 24.4422 213.665 25.4318V26.1847H204.993V24.5938H211.584C211.584 24.035 211.471 23.5402 211.243 23.1094C211.016 22.6738 210.696 22.3305 210.284 22.0795C209.877 21.8286 209.399 21.7031 208.85 21.7031C208.253 21.7031 207.732 21.8499 207.287 22.1435C206.847 22.4323 206.506 22.8111 206.265 23.2798C206.028 23.7438 205.909 24.2481 205.909 24.7926V26.0355C205.909 26.7647 206.037 27.3849 206.293 27.8963C206.553 28.4077 206.916 28.7983 207.38 29.0682C207.844 29.3333 208.386 29.4659 209.006 29.4659C209.408 29.4659 209.775 29.4091 210.107 29.2955C210.438 29.1771 210.725 29.0019 210.966 28.7699C211.208 28.5379 211.392 28.2514 211.52 27.9105L213.53 28.2727C213.369 28.8646 213.08 29.383 212.664 29.8281C212.252 30.2685 211.733 30.6117 211.108 30.858C210.488 31.0994 209.78 31.2202 208.985 31.2202ZM216.021 31V20.0909H218.074V21.8239H218.188C218.386 21.2367 218.737 20.7751 219.239 20.4389C219.745 20.098 220.318 19.9276 220.957 19.9276C221.09 19.9276 221.246 19.9323 221.426 19.9418C221.611 19.9512 221.755 19.9631 221.859 19.9773V22.0085C221.774 21.9848 221.623 21.9588 221.405 21.9304C221.187 21.8973 220.969 21.8807 220.751 21.8807C220.25 21.8807 219.802 21.9872 219.409 22.2003C219.021 22.4086 218.713 22.6998 218.486 23.0739C218.259 23.4432 218.145 23.8646 218.145 24.3381V31H216.021ZM231.872 22.7543L229.947 23.0952C229.867 22.849 229.739 22.6146 229.564 22.392C229.393 22.1695 229.161 21.9872 228.868 21.8452C228.574 21.7031 228.207 21.6321 227.767 21.6321C227.165 21.6321 226.663 21.767 226.261 22.0369C225.859 22.3021 225.657 22.6454 225.657 23.0668C225.657 23.4313 225.792 23.7249 226.062 23.9474C226.332 24.17 226.768 24.3523 227.369 24.4943L229.102 24.892C230.106 25.1241 230.854 25.4815 231.346 25.9645C231.839 26.4474 232.085 27.0748 232.085 27.8466C232.085 28.5 231.895 29.0824 231.517 29.5938C231.143 30.1004 230.619 30.4981 229.947 30.7869C229.279 31.0758 228.505 31.2202 227.625 31.2202C226.403 31.2202 225.406 30.9598 224.635 30.4389C223.863 29.9134 223.389 29.1676 223.214 28.2017L225.267 27.8892C225.395 28.4242 225.657 28.8291 226.055 29.1037C226.453 29.3736 226.971 29.5085 227.61 29.5085C228.306 29.5085 228.863 29.3641 229.279 29.0753C229.696 28.7817 229.904 28.4242 229.904 28.0028C229.904 27.6619 229.777 27.3755 229.521 27.1435C229.27 26.9115 228.884 26.7363 228.363 26.6179L226.517 26.2131C225.499 25.9811 224.746 25.6117 224.258 25.1051C223.775 24.5985 223.534 23.9569 223.534 23.1804C223.534 22.5365 223.714 21.973 224.074 21.4901C224.433 21.0071 224.931 20.6307 225.565 20.3608C226.199 20.0862 226.926 19.9489 227.745 19.9489C228.924 19.9489 229.852 20.2045 230.529 20.7159C231.207 21.2225 231.654 21.902 231.872 22.7543Z" fill="white"/>
<path d="M16 60C16 59.7348 16.1054 59.4804 16.2929 59.2929C16.4804 59.1054 16.7348 59 17 59H20C20.2231 59.0001 20.4397 59.0747 20.6155 59.212C20.7912 59.3494 20.916 59.5416 20.97 59.758L21.78 63H45C45.1519 63 45.3018 63.0347 45.4383 63.1013C45.5748 63.1679 45.6943 63.2648 45.7878 63.3845C45.8813 63.5042 45.9463 63.6436 45.9779 63.7922C46.0095 63.9408 46.0068 64.0946 45.97 64.242L42.97 76.242C42.916 76.4584 42.7912 76.6506 42.6155 76.788C42.4397 76.9253 42.2231 76.9999 42 77H24C23.7769 76.9999 23.5603 76.9253 23.3845 76.788C23.2088 76.6506 23.084 76.4584 23.03 76.242L19.22 61H17C16.7348 61 16.4804 60.8946 16.2929 60.7071C16.1054 60.5196 16 60.2652 16 60ZM22.28 65L24.78 75H41.22L43.72 65H22.28ZM26 81C25.4696 81 24.9609 81.2107 24.5858 81.5858C24.2107 81.9609 24 82.4696 24 83C24 83.5304 24.2107 84.0391 24.5858 84.4142C24.9609 84.7893 25.4696 85 26 85C26.5304 85 27.0391 84.7893 27.4142 84.4142C27.7893 84.0391 28 83.5304 28 83C28 82.4696 27.7893 81.9609 27.4142 81.5858C27.0391 81.2107 26.5304 81 26 81ZM22 83C22 81.9391 22.4214 80.9217 23.1716 80.1716C23.9217 79.4214 24.9391 79 26 79C27.0609 79 28.0783 79.4214 28.8284 80.1716C29.5786 80.9217 30 81.9391 30 83C30 84.0609 29.5786 85.0783 28.8284 85.8284C28.0783 86.5786 27.0609 87 26 87C24.9391 87 23.9217 86.5786 23.1716 85.8284C22.4214 85.0783 22 84.0609 22 83ZM40 81C39.4696 81 38.9609 81.2107 38.5858 81.5858C38.2107 81.9609 38 82.4696 38 83C38 83.5304 38.2107 84.0391 38.5858 84.4142C38.9609 84.7893 39.4696 85 40 85C40.5304 85 41.0391 84.7893 41.4142 84.4142C41.7893 84.0391 42 83.5304 42 83C42 82.4696 41.7893 81.9609 41.4142 81.5858C41.0391 81.2107 40.5304 81 40 81ZM36 83C36 81.9391 36.4214 80.9217 37.1716 80.1716C37.9217 79.4214 38.9391 79 40 79C41.0609 79 42.0783 79.4214 42.8284 80.1716C43.5786 80.9217 44 81.9391 44 83C44 84.0609 43.5786 85.0783 42.8284 85.8284C42.0783 86.5786 41.0609 87 40 87C38.9391 87 37.9217 86.5786 37.1716 85.8284C36.4214 85.0783 36 84.0609 36 83Z" fill="white"/>
<path d="M166.399 78.5V76.9091L171.321 71.8097C171.847 71.2557 172.28 70.7704 172.621 70.3537C172.966 69.9323 173.224 69.5322 173.395 69.1534C173.565 68.7746 173.651 68.3722 173.651 67.946C173.651 67.4631 173.537 67.0464 173.31 66.696C173.082 66.3409 172.772 66.0687 172.379 65.8793C171.986 65.6851 171.544 65.5881 171.051 65.5881C170.53 65.5881 170.076 65.6946 169.688 65.9077C169.299 66.1207 169.001 66.4214 168.793 66.8097C168.584 67.1979 168.48 67.6525 168.48 68.1733H166.385C166.385 67.2879 166.589 66.5137 166.996 65.8509C167.403 65.188 167.962 64.6742 168.672 64.3097C169.382 63.9403 170.189 63.7557 171.094 63.7557C172.008 63.7557 172.813 63.938 173.509 64.3026C174.209 64.6624 174.756 65.1548 175.149 65.7798C175.542 66.4001 175.739 67.1009 175.739 67.8821C175.739 68.4219 175.637 68.9498 175.433 69.4659C175.234 69.982 174.886 70.5573 174.389 71.1918C173.892 71.8215 173.201 72.5862 172.315 73.4858L169.425 76.5114V76.6179H175.973V78.5H166.399ZM179.155 78.5L185.504 65.9432V65.8366H178.161V63.9545H187.777V65.9006L181.449 78.5H179.155ZM194.853 78.6989C193.962 78.6989 193.162 78.5284 192.452 78.1875C191.747 77.8419 191.183 77.3684 190.762 76.767C190.34 76.1657 190.115 75.4792 190.087 74.7074H192.218C192.27 75.3324 192.547 75.8461 193.049 76.2486C193.551 76.651 194.152 76.8523 194.853 76.8523C195.411 76.8523 195.906 76.7244 196.337 76.4688C196.773 76.2083 197.114 75.8509 197.36 75.3963C197.611 74.9418 197.736 74.4233 197.736 73.8409C197.736 73.2491 197.608 72.7211 197.353 72.2571C197.097 71.7931 196.744 71.4285 196.294 71.1634C195.849 70.8982 195.338 70.7633 194.76 70.7585C194.32 70.7585 193.877 70.8343 193.432 70.9858C192.987 71.1373 192.627 71.3362 192.353 71.5824L190.343 71.2841L191.159 63.9545H199.157V65.8366H192.985L192.523 69.9062H192.608C192.892 69.6316 193.269 69.402 193.738 69.2173C194.211 69.0327 194.718 68.9403 195.257 68.9403C196.143 68.9403 196.931 69.151 197.623 69.5724C198.319 69.9938 198.865 70.5691 199.263 71.2983C199.666 72.0227 199.864 72.8561 199.86 73.7983C199.864 74.7405 199.651 75.581 199.221 76.3196C198.794 77.0582 198.203 77.6406 197.445 78.0668C196.692 78.4882 195.828 78.6989 194.853 78.6989ZM202.944 78.5L209.293 65.9432V65.8366H201.95V63.9545H211.566V65.9006L205.238 78.5H202.944Z" fill="white"/>
<defs>
<linearGradient id="paint0_linear_6690_53174" x1="-1.85519e-06" y1="51.5" x2="249" y2="51.5" gradientUnits="userSpaceOnUse">
<stop stop-color="#636366"/>
<stop offset="1" stop-color="#8E8E92" stop-opacity="0.8"/>
</linearGradient>
</defs>
</svg>
