<svg width="249" height="103" viewBox="0 0 249 103" fill="none" xmlns="http://www.w3.org/2000/svg">
<rect width="249" height="103" rx="14" fill="url(#paint0_linear_6695_26617)"/>
<path d="M16.8807 18.3438V16.4545H28.1378V18.3438H23.5994V31H21.4119V18.3438H16.8807ZM33.468 31.2202C32.4453 31.2202 31.5528 30.9858 30.7905 30.517C30.0282 30.0483 29.4363 29.3925 29.0149 28.5497C28.5935 27.7069 28.3828 26.7221 28.3828 25.5952C28.3828 24.4635 28.5935 23.474 29.0149 22.6264C29.4363 21.7789 30.0282 21.1207 30.7905 20.652C31.5528 20.1832 32.4453 19.9489 33.468 19.9489C34.4908 19.9489 35.3833 20.1832 36.1456 20.652C36.9079 21.1207 37.4998 21.7789 37.9212 22.6264C38.3426 23.474 38.5533 24.4635 38.5533 25.5952C38.5533 26.7221 38.3426 27.7069 37.9212 28.5497C37.4998 29.3925 36.9079 30.0483 36.1456 30.517C35.3833 30.9858 34.4908 31.2202 33.468 31.2202ZM33.4751 29.4375C34.138 29.4375 34.6873 29.2623 35.1229 28.9119C35.5585 28.5616 35.8804 28.0952 36.0888 27.5128C36.3018 26.9304 36.4084 26.2888 36.4084 25.5881C36.4084 24.892 36.3018 24.2528 36.0888 23.6705C35.8804 23.0833 35.5585 22.6122 35.1229 22.2571C34.6873 21.902 34.138 21.7244 33.4751 21.7244C32.8075 21.7244 32.2536 21.902 31.8132 22.2571C31.3776 22.6122 31.0533 23.0833 30.8402 23.6705C30.6319 24.2528 30.5277 24.892 30.5277 25.5881C30.5277 26.2888 30.6319 26.9304 30.8402 27.5128C31.0533 28.0952 31.3776 28.5616 31.8132 28.9119C32.2536 29.2623 32.8075 29.4375 33.4751 29.4375ZM46.016 20.0909V21.7955H40.0572V20.0909H46.016ZM41.6552 17.4773H43.7788V27.7969C43.7788 28.2088 43.8403 28.5189 43.9634 28.7273C44.0865 28.9309 44.2451 29.0705 44.4393 29.1463C44.6381 29.2173 44.8536 29.2528 45.0856 29.2528C45.256 29.2528 45.4052 29.241 45.533 29.2173C45.6609 29.1937 45.7603 29.1747 45.8313 29.1605L46.2148 30.9148C46.0917 30.9621 45.9165 31.0095 45.6893 31.0568C45.462 31.1089 45.1779 31.1373 44.837 31.142C44.2783 31.1515 43.7575 31.0521 43.2745 30.8438C42.7915 30.6354 42.4009 30.3134 42.1026 29.8778C41.8043 29.4422 41.6552 28.8954 41.6552 28.2372V17.4773ZM51.5398 31.2415C50.8485 31.2415 50.2235 31.1136 49.6648 30.858C49.1061 30.5975 48.6634 30.2211 48.3366 29.7287C48.0147 29.2363 47.8537 28.6326 47.8537 27.9176C47.8537 27.3021 47.9721 26.7955 48.2088 26.3977C48.4455 26 48.7652 25.6851 49.1676 25.4531C49.5701 25.2211 50.0199 25.0459 50.517 24.9276C51.0142 24.8092 51.5208 24.7192 52.0369 24.6577C52.6903 24.5819 53.2206 24.5204 53.6278 24.473C54.035 24.4209 54.331 24.3381 54.5156 24.2244C54.7003 24.1108 54.7926 23.9261 54.7926 23.6705V23.6207C54.7926 23.0005 54.6174 22.5199 54.267 22.179C53.9214 21.8381 53.4053 21.6676 52.7188 21.6676C52.0038 21.6676 51.4403 21.8262 51.0284 22.1435C50.6212 22.456 50.3395 22.804 50.1832 23.1875L48.1875 22.733C48.4242 22.0701 48.7699 21.535 49.2244 21.1278C49.6837 20.7159 50.2116 20.4176 50.8082 20.233C51.4048 20.0436 52.0322 19.9489 52.6903 19.9489C53.1259 19.9489 53.5876 20.0009 54.0753 20.1051C54.5677 20.2045 55.027 20.3892 55.4531 20.6591C55.884 20.929 56.2367 21.3149 56.5114 21.8168C56.786 22.3139 56.9233 22.9602 56.9233 23.7557V31H54.8494V29.5085H54.7642C54.6269 29.7831 54.4209 30.053 54.1463 30.3182C53.8717 30.5833 53.5189 30.8035 53.0881 30.9787C52.6572 31.1539 52.1411 31.2415 51.5398 31.2415ZM52.0014 29.5369C52.5885 29.5369 53.0904 29.4209 53.5071 29.1889C53.9285 28.9569 54.2481 28.6539 54.4659 28.2798C54.6884 27.901 54.7997 27.4962 54.7997 27.0653V25.6591C54.724 25.7348 54.5772 25.8059 54.3594 25.8722C54.1463 25.9337 53.9025 25.9882 53.6278 26.0355C53.3532 26.0781 53.0857 26.1184 52.8253 26.1562C52.5649 26.1894 52.3471 26.2178 52.1719 26.2415C51.7599 26.2936 51.3835 26.3812 51.0426 26.5043C50.7064 26.6274 50.4366 26.8049 50.233 27.0369C50.0341 27.2642 49.9347 27.5672 49.9347 27.946C49.9347 28.4716 50.1288 28.8693 50.517 29.1392C50.9053 29.4044 51.4001 29.5369 52.0014 29.5369ZM61.8754 16.4545V31H59.7518V16.4545H61.8754ZM82.2766 21.1847H80.0607C79.9755 20.7112 79.8169 20.2945 79.5849 19.9347C79.3529 19.5748 79.0688 19.2694 78.7326 19.0185C78.3964 18.7675 78.02 18.5781 77.6033 18.4503C77.1914 18.3224 76.7534 18.2585 76.2894 18.2585C75.4513 18.2585 74.7009 18.4692 74.038 18.8906C73.3799 19.312 72.859 19.9299 72.4755 20.7443C72.0967 21.5587 71.9073 22.553 71.9073 23.7273C71.9073 24.911 72.0967 25.91 72.4755 26.7244C72.859 27.5388 73.3822 28.1544 74.0451 28.571C74.708 28.9877 75.4537 29.196 76.2823 29.196C76.7416 29.196 77.1772 29.1345 77.5891 29.0114C78.0058 28.8835 78.3822 28.6965 78.7184 28.4503C79.0546 28.2041 79.3387 27.9034 79.5707 27.5483C79.8074 27.1884 79.9708 26.7765 80.0607 26.3125L82.2766 26.3196C82.1583 27.0346 81.9286 27.6927 81.5877 28.294C81.2515 28.8906 80.8183 29.4067 80.288 29.8423C79.7624 30.2732 79.1611 30.607 78.484 30.8438C77.8069 31.0805 77.0683 31.1989 76.2681 31.1989C75.0086 31.1989 73.8865 30.9006 72.9016 30.304C71.9168 29.7027 71.1403 28.8433 70.5721 27.7259C70.0086 26.6084 69.7269 25.2756 69.7269 23.7273C69.7269 22.1742 70.011 20.8414 70.5792 19.7287C71.1474 18.6113 71.9239 17.7543 72.9087 17.1577C73.8936 16.5563 75.0134 16.2557 76.2681 16.2557C77.0399 16.2557 77.7596 16.367 78.4272 16.5895C79.0996 16.8073 79.7032 17.1293 80.2383 17.5554C80.7733 17.9768 81.216 18.4929 81.5664 19.1037C81.9168 19.7098 82.1535 20.4034 82.2766 21.1847ZM87.907 31.2415C87.2157 31.2415 86.5907 31.1136 86.032 30.858C85.4732 30.5975 85.0305 30.2211 84.7038 29.7287C84.3819 29.2363 84.2209 28.6326 84.2209 27.9176C84.2209 27.3021 84.3393 26.7955 84.576 26.3977C84.8127 26 85.1323 25.6851 85.5348 25.4531C85.9373 25.2211 86.3871 25.0459 86.8842 24.9276C87.3814 24.8092 87.888 24.7192 88.4041 24.6577C89.0575 24.5819 89.5878 24.5204 89.995 24.473C90.4022 24.4209 90.6982 24.3381 90.8828 24.2244C91.0675 24.1108 91.1598 23.9261 91.1598 23.6705V23.6207C91.1598 23.0005 90.9846 22.5199 90.6342 22.179C90.2886 21.8381 89.7725 21.6676 89.0859 21.6676C88.371 21.6676 87.8075 21.8262 87.3956 22.1435C86.9884 22.456 86.7067 22.804 86.5504 23.1875L84.5547 22.733C84.7914 22.0701 85.1371 21.535 85.5916 21.1278C86.0509 20.7159 86.5788 20.4176 87.1754 20.233C87.772 20.0436 88.3994 19.9489 89.0575 19.9489C89.4931 19.9489 89.9548 20.0009 90.4425 20.1051C90.9349 20.2045 91.3942 20.3892 91.8203 20.6591C92.2512 20.929 92.6039 21.3149 92.8786 21.8168C93.1532 22.3139 93.2905 22.9602 93.2905 23.7557V31H91.2166V29.5085H91.1314C90.9941 29.7831 90.7881 30.053 90.5135 30.3182C90.2389 30.5833 89.8861 30.8035 89.4553 30.9787C89.0244 31.1539 88.5083 31.2415 87.907 31.2415ZM88.3686 29.5369C88.9557 29.5369 89.4576 29.4209 89.8743 29.1889C90.2957 28.9569 90.6153 28.6539 90.8331 28.2798C91.0556 27.901 91.1669 27.4962 91.1669 27.0653V25.6591C91.0911 25.7348 90.9444 25.8059 90.7266 25.8722C90.5135 25.9337 90.2696 25.9882 89.995 26.0355C89.7204 26.0781 89.4529 26.1184 89.1925 26.1562C88.9321 26.1894 88.7143 26.2178 88.5391 26.2415C88.1271 26.2936 87.7507 26.3812 87.4098 26.5043C87.0736 26.6274 86.8037 26.8049 86.6001 27.0369C86.4013 27.2642 86.3018 27.5672 86.3018 27.946C86.3018 28.4716 86.496 28.8693 86.8842 29.1392C87.2725 29.4044 87.7673 29.5369 88.3686 29.5369ZM98.2425 24.5227V31H96.119V20.0909H98.1573V21.8665H98.2923C98.5432 21.2888 98.9362 20.8248 99.4712 20.4744C100.011 20.1241 100.69 19.9489 101.51 19.9489C102.253 19.9489 102.904 20.1051 103.463 20.4176C104.021 20.7254 104.455 21.1847 104.762 21.7955C105.07 22.4062 105.224 23.1615 105.224 24.0611V31H103.1V24.3168C103.1 23.526 102.895 22.9081 102.483 22.4631C102.071 22.0133 101.505 21.7884 100.785 21.7884C100.293 21.7884 99.8548 21.8949 99.4712 22.108C99.0924 22.321 98.7918 22.6335 98.5692 23.0455C98.3514 23.4527 98.2425 23.9451 98.2425 24.5227ZM112.667 31.2202C111.611 31.2202 110.702 30.9811 109.94 30.5028C109.182 30.0199 108.6 29.3546 108.193 28.5071C107.786 27.6596 107.582 26.6889 107.582 25.5952C107.582 24.4872 107.79 23.5095 108.207 22.6619C108.624 21.8097 109.211 21.1444 109.968 20.6662C110.726 20.188 111.618 19.9489 112.646 19.9489C113.475 19.9489 114.213 20.1027 114.862 20.4105C115.511 20.7135 116.034 21.1397 116.431 21.6889C116.834 22.2382 117.073 22.8797 117.149 23.6136H115.082C114.968 23.1023 114.708 22.6619 114.301 22.2926C113.898 21.9233 113.359 21.7386 112.681 21.7386C112.09 21.7386 111.571 21.8949 111.126 22.2074C110.686 22.5152 110.342 22.9555 110.096 23.5284C109.85 24.0966 109.727 24.7689 109.727 25.5455C109.727 26.3409 109.848 27.0275 110.089 27.6051C110.331 28.1828 110.672 28.6302 111.112 28.9474C111.557 29.2647 112.08 29.4233 112.681 29.4233C113.084 29.4233 113.449 29.3499 113.775 29.2031C114.107 29.0516 114.384 28.8362 114.606 28.5568C114.833 28.2775 114.992 27.9413 115.082 27.5483H117.149C117.073 28.2538 116.843 28.8835 116.46 29.4375C116.076 29.9915 115.563 30.4271 114.919 30.7443C114.279 31.0616 113.529 31.2202 112.667 31.2202ZM124.121 31.2202C123.047 31.2202 122.121 30.9905 121.344 30.5312C120.573 30.0672 119.976 29.4162 119.555 28.5781C119.138 27.7353 118.93 26.7481 118.93 25.6165C118.93 24.4991 119.138 23.5142 119.555 22.6619C119.976 21.8097 120.563 21.1444 121.316 20.6662C122.074 20.188 122.959 19.9489 123.972 19.9489C124.588 19.9489 125.184 20.0507 125.762 20.2543C126.34 20.4579 126.858 20.7775 127.317 21.2131C127.777 21.6487 128.139 22.2145 128.404 22.9105C128.669 23.6018 128.802 24.4422 128.802 25.4318V26.1847H120.13V24.5938H126.721C126.721 24.035 126.607 23.5402 126.38 23.1094C126.153 22.6738 125.833 22.3305 125.421 22.0795C125.014 21.8286 124.536 21.7031 123.987 21.7031C123.39 21.7031 122.869 21.8499 122.424 22.1435C121.984 22.4323 121.643 22.8111 121.401 23.2798C121.165 23.7438 121.046 24.2481 121.046 24.7926V26.0355C121.046 26.7647 121.174 27.3849 121.43 27.8963C121.69 28.4077 122.052 28.7983 122.516 29.0682C122.98 29.3333 123.522 29.4659 124.143 29.4659C124.545 29.4659 124.912 29.4091 125.244 29.2955C125.575 29.1771 125.862 29.0019 126.103 28.7699C126.344 28.5379 126.529 28.2514 126.657 27.9105L128.667 28.2727C128.506 28.8646 128.217 29.383 127.8 29.8281C127.388 30.2685 126.87 30.6117 126.245 30.858C125.625 31.0994 124.917 31.2202 124.121 31.2202ZM133.282 16.4545V31H131.158V16.4545H133.282ZM140.84 31.2202C139.765 31.2202 138.84 30.9905 138.063 30.5312C137.291 30.0672 136.695 29.4162 136.273 28.5781C135.857 27.7353 135.648 26.7481 135.648 25.6165C135.648 24.4991 135.857 23.5142 136.273 22.6619C136.695 21.8097 137.282 21.1444 138.035 20.6662C138.792 20.188 139.678 19.9489 140.691 19.9489C141.307 19.9489 141.903 20.0507 142.481 20.2543C143.058 20.4579 143.577 20.7775 144.036 21.2131C144.496 21.6487 144.858 22.2145 145.123 22.9105C145.388 23.6018 145.521 24.4422 145.521 25.4318V26.1847H136.849V24.5938H143.44C143.44 24.035 143.326 23.5402 143.099 23.1094C142.871 22.6738 142.552 22.3305 142.14 22.0795C141.733 21.8286 141.254 21.7031 140.705 21.7031C140.109 21.7031 139.588 21.8499 139.143 22.1435C138.702 22.4323 138.362 22.8111 138.12 23.2798C137.883 23.7438 137.765 24.2481 137.765 24.7926V26.0355C137.765 26.7647 137.893 27.3849 138.148 27.8963C138.409 28.4077 138.771 28.7983 139.235 29.0682C139.699 29.3333 140.241 29.4659 140.862 29.4659C141.264 29.4659 141.631 29.4091 141.962 29.2955C142.294 29.1771 142.58 29.0019 142.822 28.7699C143.063 28.5379 143.248 28.2514 143.376 27.9105L145.386 28.2727C145.225 28.8646 144.936 29.383 144.519 29.8281C144.107 30.2685 143.589 30.6117 142.964 30.858C142.344 31.0994 141.636 31.2202 140.84 31.2202ZM151.961 31.2131C151.08 31.2131 150.294 30.9882 149.603 30.5384C148.916 30.0838 148.376 29.4375 147.983 28.5994C147.595 27.7566 147.401 26.7457 147.401 25.5668C147.401 24.3878 147.597 23.3793 147.99 22.5412C148.388 21.7031 148.933 21.0616 149.624 20.6165C150.315 20.1714 151.099 19.9489 151.975 19.9489C152.652 19.9489 153.196 20.0625 153.608 20.2898C154.025 20.5123 154.347 20.7727 154.574 21.071C154.806 21.3693 154.986 21.6321 155.114 21.8594H155.242V16.4545H157.365V31H155.292V29.3026H155.114C154.986 29.5346 154.801 29.7997 154.56 30.098C154.323 30.3963 153.997 30.6567 153.58 30.8793C153.163 31.1018 152.623 31.2131 151.961 31.2131ZM152.429 29.402C153.04 29.402 153.556 29.241 153.978 28.919C154.404 28.5923 154.726 28.1402 154.944 27.5625C155.166 26.9848 155.277 26.3125 155.277 25.5455C155.277 24.7879 155.168 24.125 154.951 23.5568C154.733 22.9886 154.413 22.5459 153.992 22.2287C153.57 21.9115 153.05 21.7528 152.429 21.7528C151.79 21.7528 151.257 21.9186 150.831 22.25C150.405 22.5814 150.083 23.0336 149.865 23.6065C149.652 24.1795 149.546 24.8258 149.546 25.5455C149.546 26.2746 149.655 26.9304 149.873 27.5128C150.09 28.0952 150.412 28.5568 150.838 28.8977C151.269 29.2339 151.8 29.402 152.429 29.402ZM178.495 23.7273C178.495 25.2803 178.211 26.6155 177.642 27.733C177.074 28.8456 176.295 29.7027 175.306 30.304C174.321 30.9006 173.201 31.1989 171.946 31.1989C170.687 31.1989 169.562 30.9006 168.573 30.304C167.588 29.7027 166.811 28.8433 166.243 27.7259C165.675 26.6084 165.391 25.2756 165.391 23.7273C165.391 22.1742 165.675 20.8414 166.243 19.7287C166.811 18.6113 167.588 17.7543 168.573 17.1577C169.562 16.5563 170.687 16.2557 171.946 16.2557C173.201 16.2557 174.321 16.5563 175.306 17.1577C176.295 17.7543 177.074 18.6113 177.642 19.7287C178.211 20.8414 178.495 22.1742 178.495 23.7273ZM176.321 23.7273C176.321 22.5436 176.13 21.5469 175.746 20.7372C175.367 19.9228 174.846 19.3073 174.184 18.8906C173.525 18.4692 172.78 18.2585 171.946 18.2585C171.108 18.2585 170.36 18.4692 169.702 18.8906C169.044 19.3073 168.523 19.9228 168.14 20.7372C167.761 21.5469 167.571 22.5436 167.571 23.7273C167.571 24.911 167.761 25.91 168.14 26.7244C168.523 27.5341 169.044 28.1496 169.702 28.571C170.36 28.9877 171.108 29.196 171.946 29.196C172.78 29.196 173.525 28.9877 174.184 28.571C174.846 28.1496 175.367 27.5341 175.746 26.7244C176.13 25.91 176.321 24.911 176.321 23.7273ZM181.06 31V20.0909H183.113V21.8239H183.227C183.425 21.2367 183.776 20.7751 184.278 20.4389C184.784 20.098 185.357 19.9276 185.996 19.9276C186.129 19.9276 186.285 19.9323 186.465 19.9418C186.65 19.9512 186.794 19.9631 186.898 19.9773V22.0085C186.813 21.9848 186.662 21.9588 186.444 21.9304C186.226 21.8973 186.008 21.8807 185.79 21.8807C185.289 21.8807 184.841 21.9872 184.448 22.2003C184.06 22.4086 183.752 22.6998 183.525 23.0739C183.298 23.4432 183.184 23.8646 183.184 24.3381V31H181.06ZM192.429 31.2131C191.549 31.2131 190.763 30.9882 190.071 30.5384C189.385 30.0838 188.845 29.4375 188.452 28.5994C188.064 27.7566 187.87 26.7457 187.87 25.5668C187.87 24.3878 188.066 23.3793 188.459 22.5412C188.857 21.7031 189.401 21.0616 190.093 20.6165C190.784 20.1714 191.568 19.9489 192.444 19.9489C193.121 19.9489 193.665 20.0625 194.077 20.2898C194.494 20.5123 194.816 20.7727 195.043 21.071C195.275 21.3693 195.455 21.6321 195.583 21.8594H195.711V16.4545H197.834V31H195.76V29.3026H195.583C195.455 29.5346 195.27 29.7997 195.029 30.098C194.792 30.3963 194.465 30.6567 194.049 30.8793C193.632 31.1018 193.092 31.2131 192.429 31.2131ZM192.898 29.402C193.509 29.402 194.025 29.241 194.446 28.919C194.873 28.5923 195.194 28.1402 195.412 27.5625C195.635 26.9848 195.746 26.3125 195.746 25.5455C195.746 24.7879 195.637 24.125 195.419 23.5568C195.202 22.9886 194.882 22.5459 194.461 22.2287C194.039 21.9115 193.518 21.7528 192.898 21.7528C192.259 21.7528 191.726 21.9186 191.3 22.25C190.874 22.5814 190.552 23.0336 190.334 23.6065C190.121 24.1795 190.015 24.8258 190.015 25.5455C190.015 26.2746 190.123 26.9304 190.341 27.5128C190.559 28.0952 190.881 28.5568 191.307 28.8977C191.738 29.2339 192.268 29.402 192.898 29.402ZM205.567 31.2202C204.492 31.2202 203.566 30.9905 202.79 30.5312C202.018 30.0672 201.421 29.4162 201 28.5781C200.583 27.7353 200.375 26.7481 200.375 25.6165C200.375 24.4991 200.583 23.5142 201 22.6619C201.421 21.8097 202.009 21.1444 202.761 20.6662C203.519 20.188 204.404 19.9489 205.418 19.9489C206.033 19.9489 206.63 20.0507 207.207 20.2543C207.785 20.4579 208.304 20.7775 208.763 21.2131C209.222 21.6487 209.584 22.2145 209.849 22.9105C210.115 23.6018 210.247 24.4422 210.247 25.4318V26.1847H201.575V24.5938H208.166C208.166 24.035 208.053 23.5402 207.825 23.1094C207.598 22.6738 207.278 22.3305 206.866 22.0795C206.459 21.8286 205.981 21.7031 205.432 21.7031C204.835 21.7031 204.314 21.8499 203.869 22.1435C203.429 22.4323 203.088 22.8111 202.847 23.2798C202.61 23.7438 202.491 24.2481 202.491 24.7926V26.0355C202.491 26.7647 202.619 27.3849 202.875 27.8963C203.135 28.4077 203.498 28.7983 203.962 29.0682C204.426 29.3333 204.968 29.4659 205.588 29.4659C205.991 29.4659 206.357 29.4091 206.689 29.2955C207.02 29.1771 207.307 29.0019 207.548 28.7699C207.79 28.5379 207.974 28.2514 208.102 27.9105L210.112 28.2727C209.951 28.8646 209.662 29.383 209.246 29.8281C208.834 30.2685 208.315 30.6117 207.69 30.858C207.07 31.0994 206.362 31.2202 205.567 31.2202ZM212.603 31V20.0909H214.656V21.8239H214.77C214.968 21.2367 215.319 20.7751 215.821 20.4389C216.327 20.098 216.9 19.9276 217.539 19.9276C217.672 19.9276 217.828 19.9323 218.008 19.9418C218.193 19.9512 218.337 19.9631 218.441 19.9773V22.0085C218.356 21.9848 218.205 21.9588 217.987 21.9304C217.769 21.8973 217.551 21.8807 217.333 21.8807C216.832 21.8807 216.384 21.9872 215.991 22.2003C215.603 22.4086 215.295 22.6998 215.068 23.0739C214.841 23.4432 214.727 23.8646 214.727 24.3381V31H212.603ZM228.454 22.7543L226.529 23.0952C226.449 22.849 226.321 22.6146 226.146 22.392C225.975 22.1695 225.743 21.9872 225.45 21.8452C225.156 21.7031 224.789 21.6321 224.349 21.6321C223.747 21.6321 223.246 21.767 222.843 22.0369C222.441 22.3021 222.239 22.6454 222.239 23.0668C222.239 23.4313 222.374 23.7249 222.644 23.9474C222.914 24.17 223.35 24.3523 223.951 24.4943L225.684 24.892C226.688 25.1241 227.436 25.4815 227.928 25.9645C228.421 26.4474 228.667 27.0748 228.667 27.8466C228.667 28.5 228.478 29.0824 228.099 29.5938C227.725 30.1004 227.201 30.4981 226.529 30.7869C225.862 31.0758 225.087 31.2202 224.207 31.2202C222.985 31.2202 221.988 30.9598 221.217 30.4389C220.445 29.9134 219.971 29.1676 219.796 28.2017L221.849 27.8892C221.977 28.4242 222.239 28.8291 222.637 29.1037C223.035 29.3736 223.553 29.5085 224.192 29.5085C224.888 29.5085 225.445 29.3641 225.862 29.0753C226.278 28.7817 226.487 28.4242 226.487 28.0028C226.487 27.6619 226.359 27.3755 226.103 27.1435C225.852 26.9115 225.466 26.7363 224.945 26.6179L223.099 26.2131C222.081 25.9811 221.328 25.6117 220.84 25.1051C220.357 24.5985 220.116 23.9569 220.116 23.1804C220.116 22.5365 220.296 21.973 220.656 21.4901C221.015 21.0071 221.513 20.6307 222.147 20.3608C222.781 20.0862 223.508 19.9489 224.327 19.9489C225.506 19.9489 226.434 20.2045 227.112 20.7159C227.789 21.2225 228.236 21.902 228.454 22.7543Z" fill="white"/>
<g clip-path="url(#clip0_6695_26617)">
<path d="M30.7093 66.2918C30.6163 66.1988 30.5059 66.1251 30.3844 66.0748C30.263 66.0244 30.1328 65.9985 30.0013 65.9985C29.8698 65.9985 29.7396 66.0244 29.6181 66.0748C29.4966 66.1251 29.3862 66.1988 29.2933 66.2918C29.2003 66.3848 29.1265 66.4952 29.0762 66.6166C29.0259 66.7381 29 66.8683 29 66.9998C29 67.1313 29.0259 67.2615 29.0762 67.383C29.1265 67.5044 29.2003 67.6148 29.2933 67.7078L31.5873 69.9998L29.2933 72.2918C29.2003 72.3848 29.1265 72.4952 29.0762 72.6166C29.0259 72.7381 29 72.8683 29 72.9998C29 73.1313 29.0259 73.2615 29.0762 73.383C29.1265 73.5044 29.2003 73.6148 29.2933 73.7078C29.3862 73.8008 29.4966 73.8745 29.6181 73.9248C29.7396 73.9752 29.8698 74.0011 30.0013 74.0011C30.1328 74.0011 30.263 73.9752 30.3844 73.9248C30.5059 73.8745 30.6163 73.8008 30.7093 73.7078L33.0013 71.4138L35.2933 73.7078C35.481 73.8956 35.7357 74.0011 36.0013 74.0011C36.2668 74.0011 36.5215 73.8956 36.7093 73.7078C36.897 73.52 37.0025 73.2654 37.0025 72.9998C37.0025 72.7342 36.897 72.4796 36.7093 72.2918L34.4153 69.9998L36.7093 67.7078C36.897 67.52 37.0025 67.2654 37.0025 66.9998C37.0025 66.7342 36.897 66.4796 36.7093 66.2918C36.5215 66.104 36.2668 65.9985 36.0013 65.9985C35.7357 65.9985 35.481 66.104 35.2933 66.2918L33.0013 68.5858L30.7093 66.2918Z" fill="white"/>
<path d="M17 57C16.7348 57 16.4804 57.1054 16.2929 57.2929C16.1054 57.4804 16 57.7348 16 58C16 58.2652 16.1054 58.5196 16.2929 58.7071C16.4804 58.8946 16.7348 59 17 59H19.22L20.022 62.214L23.018 78.184C23.0609 78.4132 23.1825 78.6201 23.3618 78.7691C23.5411 78.9181 23.7669 78.9998 24 79H26C24.9391 79 23.9217 79.4214 23.1716 80.1716C22.4214 80.9217 22 81.9391 22 83C22 84.0609 22.4214 85.0783 23.1716 85.8284C23.9217 86.5786 24.9391 87 26 87C27.0609 87 28.0783 86.5786 28.8284 85.8284C29.5786 85.0783 30 84.0609 30 83C30 81.9391 29.5786 80.9217 28.8284 80.1716C28.0783 79.4214 27.0609 79 26 79H40C38.9391 79 37.9217 79.4214 37.1716 80.1716C36.4214 80.9217 36 81.9391 36 83C36 84.0609 36.4214 85.0783 37.1716 85.8284C37.9217 86.5786 38.9391 87 40 87C41.0609 87 42.0783 86.5786 42.8284 85.8284C43.5786 85.0783 44 84.0609 44 83C44 81.9391 43.5786 80.9217 42.8284 80.1716C42.0783 79.4214 41.0609 79 40 79H42C42.2331 78.9998 42.4589 78.9181 42.6382 78.7691C42.8175 78.6201 42.9391 78.4132 42.982 78.184L45.982 62.184C46.009 62.0397 46.0039 61.8912 45.9671 61.749C45.9302 61.6069 45.8625 61.4746 45.7688 61.3616C45.6751 61.2486 45.5576 61.1576 45.4247 61.0951C45.2918 61.0326 45.1468 61.0001 45 61H21.78L20.97 57.758C20.916 57.5416 20.7912 57.3494 20.6155 57.212C20.4397 57.0747 20.2231 57.0001 20 57H17ZM24.83 77L22.204 63H43.796L41.17 77H24.83ZM28 83C28 83.5304 27.7893 84.0391 27.4142 84.4142C27.0391 84.7893 26.5304 85 26 85C25.4696 85 24.9609 84.7893 24.5858 84.4142C24.2107 84.0391 24 83.5304 24 83C24 82.4696 24.2107 81.9609 24.5858 81.5858C24.9609 81.2107 25.4696 81 26 81C26.5304 81 27.0391 81.2107 27.4142 81.5858C27.7893 81.9609 28 82.4696 28 83ZM42 83C42 83.5304 41.7893 84.0391 41.4142 84.4142C41.0391 84.7893 40.5304 85 40 85C39.4696 85 38.9609 84.7893 38.5858 84.4142C38.2107 84.0391 38 83.5304 38 83C38 82.4696 38.2107 81.9609 38.5858 81.5858C38.9609 81.2107 39.4696 81 40 81C40.5304 81 41.0391 81.2107 41.4142 81.5858C41.7893 81.9609 42 82.4696 42 83Z" fill="white"/>
</g>
<path d="M166.399 78.5V76.9091L171.321 71.8097C171.847 71.2557 172.28 70.7704 172.621 70.3537C172.966 69.9323 173.224 69.5322 173.395 69.1534C173.565 68.7746 173.651 68.3722 173.651 67.946C173.651 67.4631 173.537 67.0464 173.31 66.696C173.082 66.3409 172.772 66.0687 172.379 65.8793C171.986 65.6851 171.544 65.5881 171.051 65.5881C170.53 65.5881 170.076 65.6946 169.688 65.9077C169.299 66.1207 169.001 66.4214 168.793 66.8097C168.584 67.1979 168.48 67.6525 168.48 68.1733H166.385C166.385 67.2879 166.589 66.5137 166.996 65.8509C167.403 65.188 167.962 64.6742 168.672 64.3097C169.382 63.9403 170.189 63.7557 171.094 63.7557C172.008 63.7557 172.813 63.938 173.509 64.3026C174.209 64.6624 174.756 65.1548 175.149 65.7798C175.542 66.4001 175.739 67.1009 175.739 67.8821C175.739 68.4219 175.637 68.9498 175.433 69.4659C175.234 69.982 174.886 70.5573 174.389 71.1918C173.892 71.8215 173.201 72.5862 172.315 73.4858L169.425 76.5114V76.6179H175.973V78.5H166.399ZM183.729 78.7415C182.607 78.7367 181.648 78.4408 180.852 77.8537C180.057 77.2666 179.448 76.4119 179.027 75.2898C178.606 74.1676 178.395 72.8158 178.395 71.2344C178.395 69.6577 178.606 68.3106 179.027 67.1932C179.453 66.0758 180.064 65.2235 180.859 64.6364C181.66 64.0492 182.616 63.7557 183.729 63.7557C184.841 63.7557 185.795 64.0516 186.591 64.6435C187.386 65.2306 187.995 66.0829 188.416 67.2003C188.842 68.313 189.055 69.6577 189.055 71.2344C189.055 72.8205 188.845 74.1747 188.423 75.2969C188.002 76.4143 187.393 77.2689 186.598 77.8608C185.803 78.4479 184.846 78.7415 183.729 78.7415ZM183.729 76.8452C184.714 76.8452 185.483 76.3646 186.037 75.4034C186.596 74.4422 186.875 73.0526 186.875 71.2344C186.875 70.027 186.747 69.0066 186.491 68.1733C186.241 67.3352 185.878 66.7008 185.405 66.2699C184.936 65.8343 184.377 65.6165 183.729 65.6165C182.749 65.6165 181.979 66.0994 181.42 67.0653C180.862 68.0312 180.58 69.4209 180.575 71.2344C180.575 72.4465 180.701 73.4716 180.952 74.3097C181.207 75.143 181.57 75.7751 182.038 76.206C182.507 76.6321 183.071 76.8452 183.729 76.8452ZM196.639 78.7415C195.517 78.7367 194.558 78.4408 193.762 77.8537C192.967 77.2666 192.359 76.4119 191.937 75.2898C191.516 74.1676 191.305 72.8158 191.305 71.2344C191.305 69.6577 191.516 68.3106 191.937 67.1932C192.363 66.0758 192.974 65.2235 193.77 64.6364C194.57 64.0492 195.526 63.7557 196.639 63.7557C197.752 63.7557 198.706 64.0516 199.501 64.6435C200.297 65.2306 200.905 66.0829 201.326 67.2003C201.752 68.313 201.966 69.6577 201.966 71.2344C201.966 72.8205 201.755 74.1747 201.333 75.2969C200.912 76.4143 200.304 77.2689 199.508 77.8608C198.713 78.4479 197.756 78.7415 196.639 78.7415ZM196.639 76.8452C197.624 76.8452 198.393 76.3646 198.947 75.4034C199.506 74.4422 199.785 73.0526 199.785 71.2344C199.785 70.027 199.657 69.0066 199.402 68.1733C199.151 67.3352 198.788 66.7008 198.315 66.2699C197.846 65.8343 197.288 65.6165 196.639 65.6165C195.659 65.6165 194.889 66.0994 194.331 67.0653C193.772 68.0312 193.49 69.4209 193.485 71.2344C193.485 72.4465 193.611 73.4716 193.862 74.3097C194.118 75.143 194.48 75.7751 194.949 76.206C195.417 76.6321 195.981 76.8452 196.639 76.8452Z" fill="white"/>
<defs>
<linearGradient id="paint0_linear_6695_26617" x1="249" y1="51" x2="9.87515e-07" y2="51" gradientUnits="userSpaceOnUse">
<stop stop-color="#E20000"/>
<stop offset="1" stop-color="#C60000"/>
</linearGradient>
<clipPath id="clip0_6695_26617">
<rect width="32" height="32" fill="white" transform="translate(16 55)"/>
</clipPath>
</defs>
</svg>
