<svg width="249" height="103" viewBox="0 0 249 103" fill="none" xmlns="http://www.w3.org/2000/svg">
<rect width="249" height="103" rx="14" fill="url(#paint0_linear_6690_53185)"/>
<path d="M16.8807 18.3438V16.4545H28.1378V18.3438H23.5994V31H21.4119V18.3438H16.8807ZM33.468 31.2202C32.4453 31.2202 31.5528 30.9858 30.7905 30.517C30.0282 30.0483 29.4363 29.3925 29.0149 28.5497C28.5935 27.7069 28.3828 26.7221 28.3828 25.5952C28.3828 24.4635 28.5935 23.474 29.0149 22.6264C29.4363 21.7789 30.0282 21.1207 30.7905 20.652C31.5528 20.1832 32.4453 19.9489 33.468 19.9489C34.4908 19.9489 35.3833 20.1832 36.1456 20.652C36.9079 21.1207 37.4998 21.7789 37.9212 22.6264C38.3426 23.474 38.5533 24.4635 38.5533 25.5952C38.5533 26.7221 38.3426 27.7069 37.9212 28.5497C37.4998 29.3925 36.9079 30.0483 36.1456 30.517C35.3833 30.9858 34.4908 31.2202 33.468 31.2202ZM33.4751 29.4375C34.138 29.4375 34.6873 29.2623 35.1229 28.9119C35.5585 28.5616 35.8804 28.0952 36.0888 27.5128C36.3018 26.9304 36.4084 26.2888 36.4084 25.5881C36.4084 24.892 36.3018 24.2528 36.0888 23.6705C35.8804 23.0833 35.5585 22.6122 35.1229 22.2571C34.6873 21.902 34.138 21.7244 33.4751 21.7244C32.8075 21.7244 32.2536 21.902 31.8132 22.2571C31.3776 22.6122 31.0533 23.0833 30.8402 23.6705C30.6319 24.2528 30.5277 24.892 30.5277 25.5881C30.5277 26.2888 30.6319 26.9304 30.8402 27.5128C31.0533 28.0952 31.3776 28.5616 31.8132 28.9119C32.2536 29.2623 32.8075 29.4375 33.4751 29.4375ZM46.016 20.0909V21.7955H40.0572V20.0909H46.016ZM41.6552 17.4773H43.7788V27.7969C43.7788 28.2088 43.8403 28.5189 43.9634 28.7273C44.0865 28.9309 44.2451 29.0705 44.4393 29.1463C44.6381 29.2173 44.8536 29.2528 45.0856 29.2528C45.256 29.2528 45.4052 29.241 45.533 29.2173C45.6609 29.1937 45.7603 29.1747 45.8313 29.1605L46.2148 30.9148C46.0917 30.9621 45.9165 31.0095 45.6893 31.0568C45.462 31.1089 45.1779 31.1373 44.837 31.142C44.2783 31.1515 43.7575 31.0521 43.2745 30.8438C42.7915 30.6354 42.4009 30.3134 42.1026 29.8778C41.8043 29.4422 41.6552 28.8954 41.6552 28.2372V17.4773ZM51.5398 31.2415C50.8485 31.2415 50.2235 31.1136 49.6648 30.858C49.1061 30.5975 48.6634 30.2211 48.3366 29.7287C48.0147 29.2363 47.8537 28.6326 47.8537 27.9176C47.8537 27.3021 47.9721 26.7955 48.2088 26.3977C48.4455 26 48.7652 25.6851 49.1676 25.4531C49.5701 25.2211 50.0199 25.0459 50.517 24.9276C51.0142 24.8092 51.5208 24.7192 52.0369 24.6577C52.6903 24.5819 53.2206 24.5204 53.6278 24.473C54.035 24.4209 54.331 24.3381 54.5156 24.2244C54.7003 24.1108 54.7926 23.9261 54.7926 23.6705V23.6207C54.7926 23.0005 54.6174 22.5199 54.267 22.179C53.9214 21.8381 53.4053 21.6676 52.7188 21.6676C52.0038 21.6676 51.4403 21.8262 51.0284 22.1435C50.6212 22.456 50.3395 22.804 50.1832 23.1875L48.1875 22.733C48.4242 22.0701 48.7699 21.535 49.2244 21.1278C49.6837 20.7159 50.2116 20.4176 50.8082 20.233C51.4048 20.0436 52.0322 19.9489 52.6903 19.9489C53.1259 19.9489 53.5876 20.0009 54.0753 20.1051C54.5677 20.2045 55.027 20.3892 55.4531 20.6591C55.884 20.929 56.2367 21.3149 56.5114 21.8168C56.786 22.3139 56.9233 22.9602 56.9233 23.7557V31H54.8494V29.5085H54.7642C54.6269 29.7831 54.4209 30.053 54.1463 30.3182C53.8717 30.5833 53.5189 30.8035 53.0881 30.9787C52.6572 31.1539 52.1411 31.2415 51.5398 31.2415ZM52.0014 29.5369C52.5885 29.5369 53.0904 29.4209 53.5071 29.1889C53.9285 28.9569 54.2481 28.6539 54.4659 28.2798C54.6884 27.901 54.7997 27.4962 54.7997 27.0653V25.6591C54.724 25.7348 54.5772 25.8059 54.3594 25.8722C54.1463 25.9337 53.9025 25.9882 53.6278 26.0355C53.3532 26.0781 53.0857 26.1184 52.8253 26.1562C52.5649 26.1894 52.3471 26.2178 52.1719 26.2415C51.7599 26.2936 51.3835 26.3812 51.0426 26.5043C50.7064 26.6274 50.4366 26.8049 50.233 27.0369C50.0341 27.2642 49.9347 27.5672 49.9347 27.946C49.9347 28.4716 50.1288 28.8693 50.517 29.1392C50.9053 29.4044 51.4001 29.5369 52.0014 29.5369ZM61.8754 16.4545V31H59.7518V16.4545H61.8754ZM74.9045 31H70.1957V16.4545H75.0536C76.4788 16.4545 77.7028 16.7457 78.7255 17.3281C79.7482 17.9058 80.5318 18.7367 81.0763 19.821C81.6256 20.9006 81.9002 22.1955 81.9002 23.706C81.9002 25.2211 81.6232 26.5232 81.0692 27.6122C80.52 28.7012 79.7246 29.5393 78.6829 30.1264C77.6412 30.7088 76.3817 31 74.9045 31ZM72.3903 29.0824H74.7837C75.8917 29.0824 76.8126 28.8741 77.5465 28.4574C78.2804 28.036 78.8297 27.4276 79.1942 26.6321C79.5588 25.8319 79.7411 24.8565 79.7411 23.706C79.7411 22.5649 79.5588 21.5966 79.1942 20.8011C78.8344 20.0057 78.297 19.402 77.582 18.9901C76.8671 18.5781 75.9793 18.3722 74.9187 18.3722H72.3903V29.0824ZM89.1605 31.2202C88.0857 31.2202 87.16 30.9905 86.3835 30.5312C85.6117 30.0672 85.0152 29.4162 84.5938 28.5781C84.1771 27.7353 83.9688 26.7481 83.9688 25.6165C83.9688 24.4991 84.1771 23.5142 84.5938 22.6619C85.0152 21.8097 85.6023 21.1444 86.3551 20.6662C87.1127 20.188 87.9981 19.9489 89.0114 19.9489C89.6269 19.9489 90.2235 20.0507 90.8011 20.2543C91.3788 20.4579 91.8973 20.7775 92.3565 21.2131C92.8158 21.6487 93.178 22.2145 93.4432 22.9105C93.7083 23.6018 93.8409 24.4422 93.8409 25.4318V26.1847H85.169V24.5938H91.7599C91.7599 24.035 91.6463 23.5402 91.419 23.1094C91.1918 22.6738 90.8722 22.3305 90.4602 22.0795C90.053 21.8286 89.5748 21.7031 89.0256 21.7031C88.429 21.7031 87.9081 21.8499 87.4631 22.1435C87.0227 22.4323 86.6818 22.8111 86.4403 23.2798C86.2036 23.7438 86.0852 24.2481 86.0852 24.7926V26.0355C86.0852 26.7647 86.2131 27.3849 86.4688 27.8963C86.7292 28.4077 87.0914 28.7983 87.5554 29.0682C88.0194 29.3333 88.5616 29.4659 89.1818 29.4659C89.5843 29.4659 89.9512 29.4091 90.2827 29.2955C90.6141 29.1771 90.9006 29.0019 91.142 28.7699C91.3835 28.5379 91.5682 28.2514 91.696 27.9105L93.706 28.2727C93.545 28.8646 93.2562 29.383 92.8395 29.8281C92.4276 30.2685 91.9091 30.6117 91.2841 30.858C90.6638 31.0994 89.956 31.2202 89.1605 31.2202ZM98.3207 16.4545V31H96.1971V16.4545H98.3207ZM101.178 31V20.0909H103.301V31H101.178ZM102.25 18.4077C101.881 18.4077 101.563 18.2846 101.298 18.0384C101.038 17.7874 100.908 17.4891 100.908 17.1435C100.908 16.7931 101.038 16.4948 101.298 16.2486C101.563 15.9976 101.881 15.8722 102.25 15.8722C102.619 15.8722 102.934 15.9976 103.195 16.2486C103.46 16.4948 103.592 16.7931 103.592 17.1435C103.592 17.4891 103.46 17.7874 103.195 18.0384C102.934 18.2846 102.619 18.4077 102.25 18.4077ZM115.49 20.0909L111.534 31H109.262L105.299 20.0909H107.578L110.341 28.4858H110.455L113.211 20.0909H115.49ZM121.817 31.2202C120.742 31.2202 119.816 30.9905 119.04 30.5312C118.268 30.0672 117.671 29.4162 117.25 28.5781C116.833 27.7353 116.625 26.7481 116.625 25.6165C116.625 24.4991 116.833 23.5142 117.25 22.6619C117.671 21.8097 118.259 21.1444 119.011 20.6662C119.769 20.188 120.654 19.9489 121.668 19.9489C122.283 19.9489 122.88 20.0507 123.457 20.2543C124.035 20.4579 124.554 20.7775 125.013 21.2131C125.472 21.6487 125.834 22.2145 126.099 22.9105C126.365 23.6018 126.497 24.4422 126.497 25.4318V26.1847H117.825V24.5938H124.416C124.416 24.035 124.303 23.5402 124.075 23.1094C123.848 22.6738 123.528 22.3305 123.116 22.0795C122.709 21.8286 122.231 21.7031 121.682 21.7031C121.085 21.7031 120.564 21.8499 120.119 22.1435C119.679 22.4323 119.338 22.8111 119.097 23.2798C118.86 23.7438 118.741 24.2481 118.741 24.7926V26.0355C118.741 26.7647 118.869 27.3849 119.125 27.8963C119.385 28.4077 119.748 28.7983 120.212 29.0682C120.676 29.3333 121.218 29.4659 121.838 29.4659C122.241 29.4659 122.607 29.4091 122.939 29.2955C123.27 29.1771 123.557 29.0019 123.798 28.7699C124.04 28.5379 124.224 28.2514 124.352 27.9105L126.362 28.2727C126.201 28.8646 125.912 29.383 125.496 29.8281C125.084 30.2685 124.565 30.6117 123.94 30.858C123.32 31.0994 122.612 31.2202 121.817 31.2202ZM128.853 31V20.0909H130.906V21.8239H131.02C131.218 21.2367 131.569 20.7751 132.071 20.4389C132.577 20.098 133.15 19.9276 133.789 19.9276C133.922 19.9276 134.078 19.9323 134.258 19.9418C134.443 19.9512 134.587 19.9631 134.691 19.9773V22.0085C134.606 21.9848 134.455 21.9588 134.237 21.9304C134.019 21.8973 133.801 21.8807 133.583 21.8807C133.082 21.8807 132.634 21.9872 132.241 22.2003C131.853 22.4086 131.545 22.6998 131.318 23.0739C131.091 23.4432 130.977 23.8646 130.977 24.3381V31H128.853ZM140.84 31.2202C139.765 31.2202 138.84 30.9905 138.063 30.5312C137.291 30.0672 136.695 29.4162 136.273 28.5781C135.857 27.7353 135.648 26.7481 135.648 25.6165C135.648 24.4991 135.857 23.5142 136.273 22.6619C136.695 21.8097 137.282 21.1444 138.035 20.6662C138.792 20.188 139.678 19.9489 140.691 19.9489C141.307 19.9489 141.903 20.0507 142.481 20.2543C143.058 20.4579 143.577 20.7775 144.036 21.2131C144.496 21.6487 144.858 22.2145 145.123 22.9105C145.388 23.6018 145.521 24.4422 145.521 25.4318V26.1847H136.849V24.5938H143.44C143.44 24.035 143.326 23.5402 143.099 23.1094C142.871 22.6738 142.552 22.3305 142.14 22.0795C141.733 21.8286 141.254 21.7031 140.705 21.7031C140.109 21.7031 139.588 21.8499 139.143 22.1435C138.702 22.4323 138.362 22.8111 138.12 23.2798C137.883 23.7438 137.765 24.2481 137.765 24.7926V26.0355C137.765 26.7647 137.893 27.3849 138.148 27.8963C138.409 28.4077 138.771 28.7983 139.235 29.0682C139.699 29.3333 140.241 29.4659 140.862 29.4659C141.264 29.4659 141.631 29.4091 141.962 29.2955C142.294 29.1771 142.58 29.0019 142.822 28.7699C143.063 28.5379 143.248 28.2514 143.376 27.9105L145.386 28.2727C145.225 28.8646 144.936 29.383 144.519 29.8281C144.107 30.2685 143.589 30.6117 142.964 30.858C142.344 31.0994 141.636 31.2202 140.84 31.2202ZM151.961 31.2131C151.08 31.2131 150.294 30.9882 149.603 30.5384C148.916 30.0838 148.376 29.4375 147.983 28.5994C147.595 27.7566 147.401 26.7457 147.401 25.5668C147.401 24.3878 147.597 23.3793 147.99 22.5412C148.388 21.7031 148.933 21.0616 149.624 20.6165C150.315 20.1714 151.099 19.9489 151.975 19.9489C152.652 19.9489 153.196 20.0625 153.608 20.2898C154.025 20.5123 154.347 20.7727 154.574 21.071C154.806 21.3693 154.986 21.6321 155.114 21.8594H155.242V16.4545H157.365V31H155.292V29.3026H155.114C154.986 29.5346 154.801 29.7997 154.56 30.098C154.323 30.3963 153.997 30.6567 153.58 30.8793C153.163 31.1018 152.623 31.2131 151.961 31.2131ZM152.429 29.402C153.04 29.402 153.556 29.241 153.978 28.919C154.404 28.5923 154.726 28.1402 154.944 27.5625C155.166 26.9848 155.277 26.3125 155.277 25.5455C155.277 24.7879 155.168 24.125 154.951 23.5568C154.733 22.9886 154.413 22.5459 153.992 22.2287C153.57 21.9115 153.05 21.7528 152.429 21.7528C151.79 21.7528 151.257 21.9186 150.831 22.25C150.405 22.5814 150.083 23.0336 149.865 23.6065C149.652 24.1795 149.546 24.8258 149.546 25.5455C149.546 26.2746 149.655 26.9304 149.873 27.5128C150.09 28.0952 150.412 28.5568 150.838 28.8977C151.269 29.2339 151.8 29.402 152.429 29.402ZM178.495 23.7273C178.495 25.2803 178.211 26.6155 177.642 27.733C177.074 28.8456 176.295 29.7027 175.306 30.304C174.321 30.9006 173.201 31.1989 171.946 31.1989C170.687 31.1989 169.562 30.9006 168.573 30.304C167.588 29.7027 166.811 28.8433 166.243 27.7259C165.675 26.6084 165.391 25.2756 165.391 23.7273C165.391 22.1742 165.675 20.8414 166.243 19.7287C166.811 18.6113 167.588 17.7543 168.573 17.1577C169.562 16.5563 170.687 16.2557 171.946 16.2557C173.201 16.2557 174.321 16.5563 175.306 17.1577C176.295 17.7543 177.074 18.6113 177.642 19.7287C178.211 20.8414 178.495 22.1742 178.495 23.7273ZM176.321 23.7273C176.321 22.5436 176.13 21.5469 175.746 20.7372C175.367 19.9228 174.846 19.3073 174.184 18.8906C173.525 18.4692 172.78 18.2585 171.946 18.2585C171.108 18.2585 170.36 18.4692 169.702 18.8906C169.044 19.3073 168.523 19.9228 168.14 20.7372C167.761 21.5469 167.571 22.5436 167.571 23.7273C167.571 24.911 167.761 25.91 168.14 26.7244C168.523 27.5341 169.044 28.1496 169.702 28.571C170.36 28.9877 171.108 29.196 171.946 29.196C172.78 29.196 173.525 28.9877 174.184 28.571C174.846 28.1496 175.367 27.5341 175.746 26.7244C176.13 25.91 176.321 24.911 176.321 23.7273ZM181.06 31V20.0909H183.113V21.8239H183.227C183.425 21.2367 183.776 20.7751 184.278 20.4389C184.784 20.098 185.357 19.9276 185.996 19.9276C186.129 19.9276 186.285 19.9323 186.465 19.9418C186.65 19.9512 186.794 19.9631 186.898 19.9773V22.0085C186.813 21.9848 186.662 21.9588 186.444 21.9304C186.226 21.8973 186.008 21.8807 185.79 21.8807C185.289 21.8807 184.841 21.9872 184.448 22.2003C184.06 22.4086 183.752 22.6998 183.525 23.0739C183.298 23.4432 183.184 23.8646 183.184 24.3381V31H181.06ZM192.429 31.2131C191.549 31.2131 190.763 30.9882 190.071 30.5384C189.385 30.0838 188.845 29.4375 188.452 28.5994C188.064 27.7566 187.87 26.7457 187.87 25.5668C187.87 24.3878 188.066 23.3793 188.459 22.5412C188.857 21.7031 189.401 21.0616 190.093 20.6165C190.784 20.1714 191.568 19.9489 192.444 19.9489C193.121 19.9489 193.665 20.0625 194.077 20.2898C194.494 20.5123 194.816 20.7727 195.043 21.071C195.275 21.3693 195.455 21.6321 195.583 21.8594H195.711V16.4545H197.834V31H195.76V29.3026H195.583C195.455 29.5346 195.27 29.7997 195.029 30.098C194.792 30.3963 194.465 30.6567 194.049 30.8793C193.632 31.1018 193.092 31.2131 192.429 31.2131ZM192.898 29.402C193.509 29.402 194.025 29.241 194.446 28.919C194.873 28.5923 195.194 28.1402 195.412 27.5625C195.635 26.9848 195.746 26.3125 195.746 25.5455C195.746 24.7879 195.637 24.125 195.419 23.5568C195.202 22.9886 194.882 22.5459 194.461 22.2287C194.039 21.9115 193.518 21.7528 192.898 21.7528C192.259 21.7528 191.726 21.9186 191.3 22.25C190.874 22.5814 190.552 23.0336 190.334 23.6065C190.121 24.1795 190.015 24.8258 190.015 25.5455C190.015 26.2746 190.123 26.9304 190.341 27.5128C190.559 28.0952 190.881 28.5568 191.307 28.8977C191.738 29.2339 192.268 29.402 192.898 29.402ZM205.567 31.2202C204.492 31.2202 203.566 30.9905 202.79 30.5312C202.018 30.0672 201.421 29.4162 201 28.5781C200.583 27.7353 200.375 26.7481 200.375 25.6165C200.375 24.4991 200.583 23.5142 201 22.6619C201.421 21.8097 202.009 21.1444 202.761 20.6662C203.519 20.188 204.404 19.9489 205.418 19.9489C206.033 19.9489 206.63 20.0507 207.207 20.2543C207.785 20.4579 208.304 20.7775 208.763 21.2131C209.222 21.6487 209.584 22.2145 209.849 22.9105C210.115 23.6018 210.247 24.4422 210.247 25.4318V26.1847H201.575V24.5938H208.166C208.166 24.035 208.053 23.5402 207.825 23.1094C207.598 22.6738 207.278 22.3305 206.866 22.0795C206.459 21.8286 205.981 21.7031 205.432 21.7031C204.835 21.7031 204.314 21.8499 203.869 22.1435C203.429 22.4323 203.088 22.8111 202.847 23.2798C202.61 23.7438 202.491 24.2481 202.491 24.7926V26.0355C202.491 26.7647 202.619 27.3849 202.875 27.8963C203.135 28.4077 203.498 28.7983 203.962 29.0682C204.426 29.3333 204.968 29.4659 205.588 29.4659C205.991 29.4659 206.357 29.4091 206.689 29.2955C207.02 29.1771 207.307 29.0019 207.548 28.7699C207.79 28.5379 207.974 28.2514 208.102 27.9105L210.112 28.2727C209.951 28.8646 209.662 29.383 209.246 29.8281C208.834 30.2685 208.315 30.6117 207.69 30.858C207.07 31.0994 206.362 31.2202 205.567 31.2202ZM212.603 31V20.0909H214.656V21.8239H214.77C214.968 21.2367 215.319 20.7751 215.821 20.4389C216.327 20.098 216.9 19.9276 217.539 19.9276C217.672 19.9276 217.828 19.9323 218.008 19.9418C218.193 19.9512 218.337 19.9631 218.441 19.9773V22.0085C218.356 21.9848 218.205 21.9588 217.987 21.9304C217.769 21.8973 217.551 21.8807 217.333 21.8807C216.832 21.8807 216.384 21.9872 215.991 22.2003C215.603 22.4086 215.295 22.6998 215.068 23.0739C214.841 23.4432 214.727 23.8646 214.727 24.3381V31H212.603ZM228.454 22.7543L226.529 23.0952C226.449 22.849 226.321 22.6146 226.146 22.392C225.975 22.1695 225.743 21.9872 225.45 21.8452C225.156 21.7031 224.789 21.6321 224.349 21.6321C223.747 21.6321 223.246 21.767 222.843 22.0369C222.441 22.3021 222.239 22.6454 222.239 23.0668C222.239 23.4313 222.374 23.7249 222.644 23.9474C222.914 24.17 223.35 24.3523 223.951 24.4943L225.684 24.892C226.688 25.1241 227.436 25.4815 227.928 25.9645C228.421 26.4474 228.667 27.0748 228.667 27.8466C228.667 28.5 228.478 29.0824 228.099 29.5938C227.725 30.1004 227.201 30.4981 226.529 30.7869C225.862 31.0758 225.087 31.2202 224.207 31.2202C222.985 31.2202 221.988 30.9598 221.217 30.4389C220.445 29.9134 219.971 29.1676 219.796 28.2017L221.849 27.8892C221.977 28.4242 222.239 28.8291 222.637 29.1037C223.035 29.3736 223.553 29.5085 224.192 29.5085C224.888 29.5085 225.445 29.3641 225.862 29.0753C226.278 28.7817 226.487 28.4242 226.487 28.0028C226.487 27.6619 226.359 27.3755 226.103 27.1435C225.852 26.9115 225.466 26.7363 224.945 26.6179L223.099 26.2131C222.081 25.9811 221.328 25.6117 220.84 25.1051C220.357 24.5985 220.116 23.9569 220.116 23.1804C220.116 22.5365 220.296 21.973 220.656 21.4901C221.015 21.0071 221.513 20.6307 222.147 20.3608C222.781 20.0862 223.508 19.9489 224.327 19.9489C225.506 19.9489 226.434 20.2045 227.112 20.7159C227.789 21.2225 228.236 21.902 228.454 22.7543Z" fill="white"/>
<g clip-path="url(#clip0_6690_53185)">
<path d="M38.7093 67.7078C38.897 67.52 39.0025 67.2654 39.0025 66.9998C39.0025 66.7342 38.897 66.4796 38.7093 66.2918C38.5215 66.104 38.2668 65.9985 38.0013 65.9985C37.7357 65.9985 37.481 66.104 37.2933 66.2918L32.0013 71.5858L29.7093 69.2918C29.6163 69.1988 29.5059 69.1251 29.3844 69.0748C29.263 69.0244 29.1328 68.9985 29.0013 68.9985C28.8698 68.9985 28.7396 69.0244 28.6181 69.0748C28.4966 69.1251 28.3862 69.1988 28.2933 69.2918C28.2003 69.3848 28.1265 69.4952 28.0762 69.6166C28.0259 69.7381 28 69.8683 28 69.9998C28 70.1313 28.0259 70.2615 28.0762 70.383C28.1265 70.5044 28.2003 70.6148 28.2933 70.7078L31.2933 73.7078C31.3862 73.8009 31.4965 73.8748 31.618 73.9252C31.7395 73.9756 31.8697 74.0016 32.0013 74.0016C32.1328 74.0016 32.263 73.9756 32.3845 73.9252C32.506 73.8748 32.6164 73.8009 32.7093 73.7078L38.7093 67.7078Z" fill="white"/>
<path d="M17 57C16.7348 57 16.4804 57.1054 16.2929 57.2929C16.1054 57.4804 16 57.7348 16 58C16 58.2652 16.1054 58.5196 16.2929 58.7071C16.4804 58.8946 16.7348 59 17 59H19.22L20.022 62.214L23.018 78.184C23.0609 78.4132 23.1825 78.6201 23.3618 78.7691C23.5411 78.9181 23.7669 78.9998 24 79H26C24.9391 79 23.9217 79.4214 23.1716 80.1716C22.4214 80.9217 22 81.9391 22 83C22 84.0609 22.4214 85.0783 23.1716 85.8284C23.9217 86.5786 24.9391 87 26 87C27.0609 87 28.0783 86.5786 28.8284 85.8284C29.5786 85.0783 30 84.0609 30 83C30 81.9391 29.5786 80.9217 28.8284 80.1716C28.0783 79.4214 27.0609 79 26 79H40C38.9391 79 37.9217 79.4214 37.1716 80.1716C36.4214 80.9217 36 81.9391 36 83C36 84.0609 36.4214 85.0783 37.1716 85.8284C37.9217 86.5786 38.9391 87 40 87C41.0609 87 42.0783 86.5786 42.8284 85.8284C43.5786 85.0783 44 84.0609 44 83C44 81.9391 43.5786 80.9217 42.8284 80.1716C42.0783 79.4214 41.0609 79 40 79H42C42.2331 78.9998 42.4589 78.9181 42.6382 78.7691C42.8175 78.6201 42.9391 78.4132 42.982 78.184L45.982 62.184C46.009 62.0397 46.0039 61.8912 45.9671 61.749C45.9302 61.6069 45.8625 61.4746 45.7688 61.3616C45.6751 61.2486 45.5576 61.1576 45.4247 61.0951C45.2918 61.0326 45.1468 61.0001 45 61H21.78L20.97 57.758C20.916 57.5416 20.7912 57.3494 20.6155 57.212C20.4397 57.0747 20.2231 57.0001 20 57H17ZM24.83 77L22.204 63H43.796L41.17 77H24.83ZM28 83C28 83.5304 27.7893 84.0391 27.4142 84.4142C27.0391 84.7893 26.5304 85 26 85C25.4696 85 24.9609 84.7893 24.5858 84.4142C24.2107 84.0391 24 83.5304 24 83C24 82.4696 24.2107 81.9609 24.5858 81.5858C24.9609 81.2107 25.4696 81 26 81C26.5304 81 27.0391 81.2107 27.4142 81.5858C27.7893 81.9609 28 82.4696 28 83ZM42 83C42 83.5304 41.7893 84.0391 41.4142 84.4142C41.0391 84.7893 40.5304 85 40 85C39.4696 85 38.9609 84.7893 38.5858 84.4142C38.2107 84.0391 38 83.5304 38 83C38 82.4696 38.2107 81.9609 38.5858 81.5858C38.9609 81.2107 39.4696 81 40 81C40.5304 81 41.0391 81.2107 41.4142 81.5858C41.7893 81.9609 42 82.4696 42 83Z" fill="white"/>
</g>
<path d="M171.918 63.9545V78.5H169.716V66.1562H169.631L166.151 68.429V66.3267L169.78 63.9545H171.918ZM180.767 78.6989C179.749 78.6989 178.849 78.5237 178.068 78.1733C177.292 77.8229 176.683 77.34 176.243 76.7244C175.803 76.1089 175.585 75.4081 175.589 74.6222C175.585 74.0066 175.71 73.4408 175.966 72.9247C176.226 72.4039 176.579 71.9706 177.024 71.625C177.469 71.2746 177.966 71.0521 178.516 70.9574V70.8722C177.791 70.697 177.211 70.3087 176.776 69.7074C176.34 69.1061 176.125 68.4148 176.129 67.6335C176.125 66.8902 176.321 66.2273 176.719 65.6449C177.121 65.0578 177.673 64.5961 178.374 64.2599C179.074 63.9238 179.872 63.7557 180.767 63.7557C181.652 63.7557 182.443 63.9261 183.139 64.267C183.84 64.6032 184.392 65.0649 184.794 65.652C185.196 66.2344 185.4 66.8949 185.405 67.6335C185.4 68.4148 185.178 69.1061 184.737 69.7074C184.297 70.3087 183.724 70.697 183.018 70.8722V70.9574C183.563 71.0521 184.053 71.2746 184.489 71.625C184.929 71.9706 185.279 72.4039 185.54 72.9247C185.805 73.4408 185.94 74.0066 185.945 74.6222C185.94 75.4081 185.717 76.1089 185.277 76.7244C184.837 77.34 184.226 77.8229 183.445 78.1733C182.668 78.5237 181.776 78.6989 180.767 78.6989ZM180.767 76.902C181.368 76.902 181.889 76.8026 182.33 76.6037C182.77 76.4001 183.111 76.1184 183.352 75.7585C183.594 75.3939 183.717 74.9678 183.722 74.4801C183.717 73.9735 183.584 73.526 183.324 73.1378C183.068 72.7495 182.72 72.4441 182.28 72.2216C181.839 71.9991 181.335 71.8878 180.767 71.8878C180.194 71.8878 179.685 71.9991 179.24 72.2216C178.795 72.4441 178.445 72.7495 178.189 73.1378C177.933 73.526 177.808 73.9735 177.812 74.4801C177.808 74.9678 177.924 75.3939 178.161 75.7585C178.402 76.1184 178.745 76.4001 179.19 76.6037C179.635 76.8026 180.161 76.902 180.767 76.902ZM180.767 70.1335C181.25 70.1335 181.679 70.0365 182.053 69.8423C182.427 69.6482 182.72 69.3783 182.933 69.0327C183.151 68.687 183.262 68.2822 183.267 67.8182C183.262 67.3636 183.153 66.9659 182.94 66.625C182.732 66.2841 182.441 66.0213 182.067 65.8366C181.693 65.6473 181.259 65.5526 180.767 65.5526C180.265 65.5526 179.825 65.6473 179.446 65.8366C179.072 66.0213 178.781 66.2841 178.572 66.625C178.364 66.9659 178.262 67.3636 178.267 67.8182C178.262 68.2822 178.366 68.687 178.58 69.0327C178.793 69.3783 179.086 69.6482 179.46 69.8423C179.839 70.0365 180.275 70.1335 180.767 70.1335ZM193.404 78.6989C192.386 78.6989 191.486 78.5237 190.705 78.1733C189.928 77.8229 189.32 77.34 188.88 76.7244C188.439 76.1089 188.221 75.4081 188.226 74.6222C188.221 74.0066 188.347 73.4408 188.603 72.9247C188.863 72.4039 189.216 71.9706 189.661 71.625C190.106 71.2746 190.603 71.0521 191.152 70.9574V70.8722C190.428 70.697 189.848 70.3087 189.412 69.7074C188.977 69.1061 188.761 68.4148 188.766 67.6335C188.761 66.8902 188.958 66.2273 189.355 65.6449C189.758 65.0578 190.31 64.5961 191.01 64.2599C191.711 63.9238 192.509 63.7557 193.404 63.7557C194.289 63.7557 195.08 63.9261 195.776 64.267C196.477 64.6032 197.028 65.0649 197.431 65.652C197.833 66.2344 198.037 66.8949 198.042 67.6335C198.037 68.4148 197.814 69.1061 197.374 69.7074C196.934 70.3087 196.361 70.697 195.655 70.8722V70.9574C196.2 71.0521 196.69 71.2746 197.125 71.625C197.566 71.9706 197.916 72.4039 198.176 72.9247C198.442 73.4408 198.577 74.0066 198.581 74.6222C198.577 75.4081 198.354 76.1089 197.914 76.7244C197.473 77.34 196.863 77.8229 196.081 78.1733C195.305 78.5237 194.412 78.6989 193.404 78.6989ZM193.404 76.902C194.005 76.902 194.526 76.8026 194.966 76.6037C195.407 76.4001 195.748 76.1184 195.989 75.7585C196.23 75.3939 196.354 74.9678 196.358 74.4801C196.354 73.9735 196.221 73.526 195.961 73.1378C195.705 72.7495 195.357 72.4441 194.917 72.2216C194.476 71.9991 193.972 71.8878 193.404 71.8878C192.831 71.8878 192.322 71.9991 191.877 72.2216C191.432 72.4441 191.081 72.7495 190.826 73.1378C190.57 73.526 190.444 73.9735 190.449 74.4801C190.444 74.9678 190.56 75.3939 190.797 75.7585C191.039 76.1184 191.382 76.4001 191.827 76.6037C192.272 76.8026 192.798 76.902 193.404 76.902ZM193.404 70.1335C193.887 70.1335 194.315 70.0365 194.689 69.8423C195.063 69.6482 195.357 69.3783 195.57 69.0327C195.788 68.687 195.899 68.2822 195.904 67.8182C195.899 67.3636 195.79 66.9659 195.577 66.625C195.369 66.2841 195.078 66.0213 194.703 65.8366C194.329 65.6473 193.896 65.5526 193.404 65.5526C192.902 65.5526 192.462 65.6473 192.083 65.8366C191.709 66.0213 191.417 66.2841 191.209 66.625C191.001 66.9659 190.899 67.3636 190.904 67.8182C190.899 68.2822 191.003 68.687 191.216 69.0327C191.429 69.3783 191.723 69.6482 192.097 69.8423C192.476 70.0365 192.911 70.1335 193.404 70.1335ZM206.644 63.9545V78.5H204.442V66.1562H204.357L200.877 68.429V66.3267L204.506 63.9545H206.644Z" fill="white"/>
<defs>
<linearGradient id="paint0_linear_6690_53185" x1="-2.59035e-06" y1="51" x2="249" y2="51" gradientUnits="userSpaceOnUse">
<stop stop-color="#21A365"/>
<stop offset="1" stop-color="#48BB84" stop-opacity="0.9"/>
</linearGradient>
<clipPath id="clip0_6690_53185">
<rect width="32" height="32" fill="white" transform="translate(16 55)"/>
</clipPath>
</defs>
</svg>
