<svg width="15" height="16" viewBox="0 0 15 16" fill="none" xmlns="http://www.w3.org/2000/svg">
<path d="M6.35518 1.75496L5.37847 2.73167H3.83961C2.88684 2.73167 2.11448 3.50403 2.11448 4.45679V5.99566L1.13778 6.97236C0.464073 7.64607 0.464072 8.73836 1.13778 9.41206L2.11448 10.3888V11.9276C2.11448 12.8804 2.88685 13.6528 3.83961 13.6528H5.37847L6.35518 14.6295C7.02888 15.3032 8.12117 15.3032 8.79487 14.6295L9.77158 13.6528H11.3104C12.2632 13.6528 13.0356 12.8804 13.0356 11.9276V10.3888L14.0123 9.41206C14.686 8.73836 14.686 7.64607 14.0123 6.97236L13.0356 5.99566V4.45679C13.0356 3.50403 12.2632 2.73167 11.3104 2.73167H9.77158L8.79487 1.75496C8.12117 1.08126 7.02888 1.08126 6.35518 1.75496ZM2.11756 10.3918C2.11755 10.3918 2.11754 10.3918 2.11753 10.3918L2.11756 10.3918Z" stroke="black" stroke-opacity="0.7" stroke-width="0.867816"/>
</svg>
