<svg width="13" height="13" viewBox="0 0 13 13" fill="none" xmlns="http://www.w3.org/2000/svg">
<path d="M6.56641 9.48984C7.149 9.28392 7.56641 8.7283 7.56641 8.0752C7.56641 7.24677 6.89483 6.5752 6.06641 6.5752C5.23798 6.5752 4.56641 7.24677 4.56641 8.0752C4.56641 8.7283 4.98381 9.28392 5.56641 9.48984V10.5752H6.56641V9.48984Z" fill="black" fill-opacity="0.7"/>
<path fill-rule="evenodd" clip-rule="evenodd" d="M2.06641 4.5752H0.0664062V12.5752H12.0664V4.5752H10.0664V2.5752C10.0664 1.47063 9.17098 0.575195 8.06641 0.575195H4.06641C2.96184 0.575195 2.06641 1.47063 2.06641 2.5752V4.5752ZM3.06641 2.5752C3.06641 2.02291 3.51412 1.5752 4.06641 1.5752H8.06641C8.61869 1.5752 9.06641 2.02291 9.06641 2.5752V4.5752H3.06641V2.5752ZM1.06641 11.5752V5.5752H11.0664V11.5752H1.06641Z" fill="black" fill-opacity="0.7"/>
</svg>
