<svg width="50" height="50" viewBox="0 0 50 50" fill="none" xmlns="http://www.w3.org/2000/svg">
<path d="M27.0846 37.5003C27.0846 38.6509 26.1519 39.5837 25.0013 39.5837C23.8507 39.5837 22.918 38.6509 22.918 37.5003C22.918 36.3497 23.8507 35.417 25.0013 35.417C26.1519 35.417 27.0846 36.3497 27.0846 37.5003Z" fill="#E20000"/>
<path fill-rule="evenodd" clip-rule="evenodd" d="M24.9987 4.16699C25.7553 4.16699 26.4524 4.57718 26.8199 5.23857L47.6532 42.7386C48.0117 43.3838 48.0019 44.1706 47.6276 44.8068C47.2533 45.4431 46.5702 45.8337 45.832 45.8337H4.16536C3.4272 45.8337 2.74414 45.4431 2.3698 44.8068C1.99546 44.1706 1.98572 43.3838 2.3442 42.7386L23.1775 5.23857C23.545 4.57718 24.2421 4.16699 24.9987 4.16699ZM7.70602 41.667H42.2914L24.9987 10.5402L7.70602 41.667ZM24.9987 18.7503C26.1493 18.7503 27.082 19.6831 27.082 20.8337V29.167C27.082 30.3176 26.1493 31.2503 24.9987 31.2503C23.8481 31.2503 22.9154 30.3176 22.9154 29.167V20.8337C22.9154 19.6831 23.8481 18.7503 24.9987 18.7503Z" fill="#E20000"/>
</svg>
