<svg width="200" height="201" viewBox="0 0 200 201" fill="none" xmlns="http://www.w3.org/2000/svg">
<path d="M100 0.857422C121.118 0.857422 141.694 7.52582 158.779 19.9069C175.863 32.288 188.58 49.7461 195.106 69.779C201.631 89.812 201.631 111.391 195.106 131.424C188.58 151.457 175.863 168.916 158.779 181.297L100 100.602V0.857422Z" fill="#165DFF"/>
<path d="M158.765 181.306C145.996 190.556 131.214 196.661 115.627 199.121C100.04 201.58 84.0903 200.326 69.0825 195.459C54.0746 190.592 40.4346 182.252 29.2776 171.12C18.1205 159.988 9.76332 146.38 4.88921 131.409L100 100.602L158.765 181.306Z" fill="#14C9C9"/>
<path d="M4.88198 131.386C0.0113865 116.414 -1.2375 100.505 1.23743 84.9589C3.71236 69.413 9.84084 54.672 19.1218 41.9413C28.4027 29.2105 40.5727 18.8514 54.6365 11.7108C68.7004 4.57032 84.2588 0.851155 100.04 0.85743L100 100.602L4.88198 131.386Z" fill="#F7BA1E"/>
<path d="M140.009 88.082H142.977V83.77H142.949L140.009 88.082ZM145.749 89.342H144.489V91.666H142.977V89.342H138.777V87.76L142.977 81.866H144.489V88.082H145.749V89.342ZM150.113 81.67C150.813 81.67 151.382 81.8333 151.821 82.16C152.269 82.4773 152.614 82.888 152.857 83.392C153.109 83.8867 153.277 84.4327 153.361 85.03C153.454 85.6273 153.501 86.206 153.501 86.766C153.501 87.326 153.454 87.9047 153.361 88.502C153.277 89.0993 153.109 89.65 152.857 90.154C152.614 90.6487 152.269 91.0593 151.821 91.386C151.382 91.7033 150.813 91.862 150.113 91.862C149.413 91.862 148.839 91.7033 148.391 91.386C147.952 91.0593 147.607 90.6487 147.355 90.154C147.112 89.65 146.944 89.0993 146.851 88.502C146.767 87.9047 146.725 87.326 146.725 86.766C146.725 86.206 146.767 85.6273 146.851 85.03C146.944 84.4327 147.112 83.8867 147.355 83.392C147.607 82.888 147.952 82.4773 148.391 82.16C148.839 81.8333 149.413 81.67 150.113 81.67ZM150.113 90.532C150.458 90.532 150.747 90.434 150.981 90.238C151.214 90.0327 151.396 89.762 151.527 89.426C151.667 89.0807 151.765 88.6793 151.821 88.222C151.877 87.7647 151.905 87.2793 151.905 86.766C151.905 86.2527 151.877 85.772 151.821 85.324C151.765 84.8667 151.667 84.4653 151.527 84.12C151.396 83.7747 151.214 83.504 150.981 83.308C150.747 83.1027 150.458 83 150.113 83C149.758 83 149.464 83.1027 149.231 83.308C149.007 83.504 148.825 83.7747 148.685 84.12C148.554 84.4653 148.461 84.8667 148.405 85.324C148.349 85.772 148.321 86.2527 148.321 86.766C148.321 87.2793 148.349 87.7647 148.405 88.222C148.461 88.6793 148.554 89.0807 148.685 89.426C148.825 89.762 149.007 90.0327 149.231 90.238C149.464 90.434 149.758 90.532 150.113 90.532ZM156.408 84.456C156.408 84.7173 156.427 84.9647 156.464 85.198C156.501 85.422 156.562 85.618 156.646 85.786C156.73 85.954 156.837 86.0893 156.968 86.192C157.108 86.2853 157.276 86.332 157.472 86.332C157.668 86.332 157.836 86.2853 157.976 86.192C158.116 86.0893 158.228 85.954 158.312 85.786C158.396 85.618 158.457 85.422 158.494 85.198C158.541 84.9647 158.564 84.7173 158.564 84.456C158.564 84.2227 158.545 83.994 158.508 83.77C158.48 83.546 158.424 83.3453 158.34 83.168C158.256 82.9907 158.144 82.8507 158.004 82.748C157.864 82.636 157.687 82.58 157.472 82.58C157.257 82.58 157.08 82.636 156.94 82.748C156.8 82.8507 156.688 82.9907 156.604 83.168C156.529 83.3453 156.478 83.546 156.45 83.77C156.422 83.994 156.408 84.2227 156.408 84.456ZM157.486 87.242C157.066 87.242 156.707 87.1673 156.408 87.018C156.109 86.8687 155.867 86.668 155.68 86.416C155.493 86.164 155.358 85.87 155.274 85.534C155.19 85.198 155.148 84.8387 155.148 84.456C155.148 84.0827 155.19 83.728 155.274 83.392C155.367 83.0467 155.507 82.748 155.694 82.496C155.89 82.244 156.133 82.0433 156.422 81.894C156.721 81.7447 157.075 81.67 157.486 81.67C157.897 81.67 158.247 81.7447 158.536 81.894C158.835 82.0433 159.077 82.244 159.264 82.496C159.46 82.748 159.6 83.0467 159.684 83.392C159.777 83.728 159.824 84.0827 159.824 84.456C159.824 84.8387 159.782 85.198 159.698 85.534C159.614 85.87 159.479 86.164 159.292 86.416C159.105 86.668 158.863 86.8687 158.564 87.018C158.265 87.1673 157.906 87.242 157.486 87.242ZM163.436 89.076C163.436 89.3373 163.455 89.5847 163.492 89.818C163.529 90.042 163.59 90.238 163.674 90.406C163.758 90.574 163.865 90.7093 163.996 90.812C164.136 90.9053 164.304 90.952 164.5 90.952C164.696 90.952 164.864 90.9053 165.004 90.812C165.144 90.7093 165.256 90.574 165.34 90.406C165.424 90.238 165.485 90.042 165.522 89.818C165.569 89.5847 165.592 89.3373 165.592 89.076C165.592 88.8427 165.573 88.614 165.536 88.39C165.508 88.166 165.452 87.9653 165.368 87.788C165.284 87.6107 165.172 87.4707 165.032 87.368C164.892 87.256 164.715 87.2 164.5 87.2C164.285 87.2 164.108 87.256 163.968 87.368C163.828 87.4707 163.716 87.6107 163.632 87.788C163.557 87.9653 163.506 88.166 163.478 88.39C163.45 88.614 163.436 88.8427 163.436 89.076ZM164.514 91.862C164.094 91.862 163.735 91.7873 163.436 91.638C163.137 91.4887 162.895 91.288 162.708 91.036C162.521 90.784 162.386 90.49 162.302 90.154C162.218 89.818 162.176 89.4587 162.176 89.076C162.176 88.7027 162.218 88.348 162.302 88.012C162.395 87.6667 162.535 87.368 162.722 87.116C162.918 86.864 163.161 86.6633 163.45 86.514C163.749 86.3647 164.103 86.29 164.514 86.29C164.925 86.29 165.275 86.3647 165.564 86.514C165.863 86.6633 166.105 86.864 166.292 87.116C166.488 87.368 166.628 87.6667 166.712 88.012C166.805 88.348 166.852 88.7027 166.852 89.076C166.852 89.4587 166.81 89.818 166.726 90.154C166.642 90.49 166.507 90.784 166.32 91.036C166.133 91.288 165.891 91.4887 165.592 91.638C165.293 91.7873 164.934 91.862 164.514 91.862ZM163.086 81.53H164.15L158.732 92.002H157.64L163.086 81.53Z" fill="white"/>
<path d="M73.6334 150.759C73.8947 150.768 74.1561 150.75 74.4174 150.703C74.6787 150.656 74.9121 150.577 75.1174 150.465C75.3227 150.344 75.4861 150.18 75.6074 149.975C75.7381 149.77 75.8034 149.518 75.8034 149.219C75.8034 148.799 75.6587 148.463 75.3694 148.211C75.0894 147.959 74.7254 147.833 74.2774 147.833C73.9974 147.833 73.7547 147.889 73.5494 148.001C73.3441 148.113 73.1714 148.267 73.0314 148.463C72.9007 148.65 72.8027 148.864 72.7374 149.107C72.6721 149.34 72.6441 149.583 72.6534 149.835H71.0574C71.0761 149.359 71.1647 148.92 71.3234 148.519C71.4821 148.108 71.6967 147.754 71.9674 147.455C72.2474 147.156 72.5834 146.923 72.9754 146.755C73.3674 146.587 73.8107 146.503 74.3054 146.503C74.6881 146.503 75.0614 146.559 75.4254 146.671C75.7987 146.783 76.1301 146.946 76.4194 147.161C76.7181 147.376 76.9561 147.651 77.1334 147.987C77.3107 148.314 77.3994 148.692 77.3994 149.121C77.3994 149.616 77.2874 150.05 77.0634 150.423C76.8394 150.787 76.4894 151.053 76.0134 151.221V151.249C76.5734 151.361 77.0074 151.641 77.3154 152.089C77.6327 152.528 77.7914 153.064 77.7914 153.699C77.7914 154.166 77.6981 154.586 77.5114 154.959C77.3247 155.323 77.0727 155.636 76.7554 155.897C76.4381 156.149 76.0694 156.345 75.6494 156.485C75.2294 156.625 74.7861 156.695 74.3194 156.695C73.7501 156.695 73.2507 156.616 72.8214 156.457C72.4014 156.289 72.0467 156.056 71.7574 155.757C71.4774 155.458 71.2627 155.099 71.1134 154.679C70.9641 154.259 70.8847 153.792 70.8754 153.279H72.4714C72.4527 153.876 72.5974 154.376 72.9054 154.777C73.2227 155.169 73.6941 155.365 74.3194 155.365C74.8514 155.365 75.2947 155.216 75.6494 154.917C76.0134 154.609 76.1954 154.175 76.1954 153.615C76.1954 153.232 76.1207 152.929 75.9714 152.705C75.8221 152.481 75.6261 152.313 75.3834 152.201C75.1407 152.08 74.8654 152.005 74.5574 151.977C74.2587 151.949 73.9507 151.94 73.6334 151.949V150.759ZM82.1127 146.503C82.8127 146.503 83.382 146.666 83.8207 146.993C84.2687 147.31 84.614 147.721 84.8567 148.225C85.1087 148.72 85.2767 149.266 85.3607 149.863C85.454 150.46 85.5007 151.039 85.5007 151.599C85.5007 152.159 85.454 152.738 85.3607 153.335C85.2767 153.932 85.1087 154.483 84.8567 154.987C84.614 155.482 84.2687 155.892 83.8207 156.219C83.382 156.536 82.8127 156.695 82.1127 156.695C81.4127 156.695 80.8387 156.536 80.3907 156.219C79.952 155.892 79.6067 155.482 79.3547 154.987C79.112 154.483 78.944 153.932 78.8507 153.335C78.7667 152.738 78.7247 152.159 78.7247 151.599C78.7247 151.039 78.7667 150.46 78.8507 149.863C78.944 149.266 79.112 148.72 79.3547 148.225C79.6067 147.721 79.952 147.31 80.3907 146.993C80.8387 146.666 81.4127 146.503 82.1127 146.503ZM82.1127 155.365C82.458 155.365 82.7474 155.267 82.9807 155.071C83.214 154.866 83.396 154.595 83.5267 154.259C83.6667 153.914 83.7647 153.512 83.8207 153.055C83.8767 152.598 83.9047 152.112 83.9047 151.599C83.9047 151.086 83.8767 150.605 83.8207 150.157C83.7647 149.7 83.6667 149.298 83.5267 148.953C83.396 148.608 83.214 148.337 82.9807 148.141C82.7474 147.936 82.458 147.833 82.1127 147.833C81.758 147.833 81.464 147.936 81.2307 148.141C81.0067 148.337 80.8247 148.608 80.6847 148.953C80.554 149.298 80.4607 149.7 80.4047 150.157C80.3487 150.605 80.3207 151.086 80.3207 151.599C80.3207 152.112 80.3487 152.598 80.4047 153.055C80.4607 153.512 80.554 153.914 80.6847 154.259C80.8247 154.595 81.0067 154.866 81.2307 155.071C81.464 155.267 81.758 155.365 82.1127 155.365ZM88.408 149.289C88.408 149.55 88.4267 149.798 88.464 150.031C88.5013 150.255 88.562 150.451 88.646 150.619C88.73 150.787 88.8373 150.922 88.968 151.025C89.108 151.118 89.276 151.165 89.472 151.165C89.668 151.165 89.836 151.118 89.976 151.025C90.116 150.922 90.228 150.787 90.312 150.619C90.396 150.451 90.4567 150.255 90.494 150.031C90.5407 149.798 90.564 149.55 90.564 149.289C90.564 149.056 90.5453 148.827 90.508 148.603C90.48 148.379 90.424 148.178 90.34 148.001C90.256 147.824 90.144 147.684 90.004 147.581C89.864 147.469 89.6867 147.413 89.472 147.413C89.2573 147.413 89.08 147.469 88.94 147.581C88.8 147.684 88.688 147.824 88.604 148.001C88.5293 148.178 88.478 148.379 88.45 148.603C88.422 148.827 88.408 149.056 88.408 149.289ZM89.486 152.075C89.066 152.075 88.7067 152 88.408 151.851C88.1093 151.702 87.8667 151.501 87.68 151.249C87.4933 150.997 87.358 150.703 87.274 150.367C87.19 150.031 87.148 149.672 87.148 149.289C87.148 148.916 87.19 148.561 87.274 148.225C87.3673 147.88 87.5073 147.581 87.694 147.329C87.89 147.077 88.1327 146.876 88.422 146.727C88.7207 146.578 89.0753 146.503 89.486 146.503C89.8967 146.503 90.2467 146.578 90.536 146.727C90.8347 146.876 91.0773 147.077 91.264 147.329C91.46 147.581 91.6 147.88 91.684 148.225C91.7773 148.561 91.824 148.916 91.824 149.289C91.824 149.672 91.782 150.031 91.698 150.367C91.614 150.703 91.4787 150.997 91.292 151.249C91.1053 151.501 90.8627 151.702 90.564 151.851C90.2653 152 89.906 152.075 89.486 152.075ZM95.436 153.909C95.436 154.17 95.4547 154.418 95.492 154.651C95.5293 154.875 95.59 155.071 95.674 155.239C95.758 155.407 95.8653 155.542 95.996 155.645C96.136 155.738 96.304 155.785 96.5 155.785C96.696 155.785 96.864 155.738 97.004 155.645C97.144 155.542 97.256 155.407 97.34 155.239C97.424 155.071 97.4847 154.875 97.522 154.651C97.5687 154.418 97.592 154.17 97.592 153.909C97.592 153.676 97.5733 153.447 97.536 153.223C97.508 152.999 97.452 152.798 97.368 152.621C97.284 152.444 97.172 152.304 97.032 152.201C96.892 152.089 96.7147 152.033 96.5 152.033C96.2853 152.033 96.108 152.089 95.968 152.201C95.828 152.304 95.716 152.444 95.632 152.621C95.5573 152.798 95.506 152.999 95.478 153.223C95.45 153.447 95.436 153.676 95.436 153.909ZM96.514 156.695C96.094 156.695 95.7347 156.62 95.436 156.471C95.1373 156.322 94.8947 156.121 94.708 155.869C94.5213 155.617 94.386 155.323 94.302 154.987C94.218 154.651 94.176 154.292 94.176 153.909C94.176 153.536 94.218 153.181 94.302 152.845C94.3953 152.5 94.5353 152.201 94.722 151.949C94.918 151.697 95.1607 151.496 95.45 151.347C95.7487 151.198 96.1033 151.123 96.514 151.123C96.9247 151.123 97.2747 151.198 97.564 151.347C97.8627 151.496 98.1053 151.697 98.292 151.949C98.488 152.201 98.628 152.5 98.712 152.845C98.8053 153.181 98.852 153.536 98.852 153.909C98.852 154.292 98.81 154.651 98.726 154.987C98.642 155.323 98.5067 155.617 98.32 155.869C98.1333 156.121 97.8907 156.322 97.592 156.471C97.2933 156.62 96.934 156.695 96.514 156.695ZM95.086 146.363H96.15L90.732 156.835H89.64L95.086 146.363Z" fill="#1D2129"/>
<path d="M44.6334 67.9719C44.8947 67.9812 45.1561 67.9626 45.4174 67.9159C45.6787 67.8692 45.9121 67.7899 46.1174 67.6779C46.3227 67.5566 46.4861 67.3932 46.6074 67.1879C46.7381 66.9826 46.8034 66.7306 46.8034 66.4319C46.8034 66.0119 46.6587 65.6759 46.3694 65.4239C46.0894 65.1719 45.7254 65.0459 45.2774 65.0459C44.9974 65.0459 44.7547 65.1019 44.5494 65.2139C44.3441 65.3259 44.1714 65.4799 44.0314 65.6759C43.9007 65.8626 43.8027 66.0772 43.7374 66.3199C43.6721 66.5532 43.6441 66.7959 43.6534 67.0479H42.0574C42.0761 66.5719 42.1647 66.1332 42.3234 65.7319C42.4821 65.3212 42.6967 64.9666 42.9674 64.6679C43.2474 64.3692 43.5834 64.1359 43.9754 63.9679C44.3674 63.7999 44.8107 63.7159 45.3054 63.7159C45.6881 63.7159 46.0614 63.7719 46.4254 63.8839C46.7987 63.9959 47.1301 64.1592 47.4194 64.3739C47.7181 64.5886 47.9561 64.8639 48.1334 65.1999C48.3107 65.5266 48.3994 65.9046 48.3994 66.3339C48.3994 66.8286 48.2874 67.2626 48.0634 67.6359C47.8394 67.9999 47.4894 68.2659 47.0134 68.4339V68.4619C47.5734 68.5739 48.0074 68.8539 48.3154 69.3019C48.6327 69.7406 48.7914 70.2772 48.7914 70.9119C48.7914 71.3786 48.6981 71.7986 48.5114 72.1719C48.3247 72.5359 48.0727 72.8486 47.7554 73.1099C47.4381 73.3619 47.0694 73.5579 46.6494 73.6979C46.2294 73.8379 45.7861 73.9079 45.3194 73.9079C44.7501 73.9079 44.2507 73.8286 43.8214 73.6699C43.4014 73.5019 43.0467 73.2686 42.7574 72.9699C42.4774 72.6712 42.2627 72.3119 42.1134 71.8919C41.9641 71.4719 41.8847 71.0052 41.8754 70.4919H43.4714C43.4527 71.0892 43.5974 71.5886 43.9054 71.9899C44.2227 72.3819 44.6941 72.5779 45.3194 72.5779C45.8514 72.5779 46.2947 72.4286 46.6494 72.1299C47.0134 71.8219 47.1954 71.3879 47.1954 70.8279C47.1954 70.4452 47.1207 70.1419 46.9714 69.9179C46.8221 69.6939 46.6261 69.5259 46.3834 69.4139C46.1407 69.2926 45.8654 69.2179 45.5574 69.1899C45.2587 69.1619 44.9507 69.1526 44.6334 69.1619V67.9719ZM53.1127 63.7159C53.8127 63.7159 54.382 63.8792 54.8207 64.2059C55.2687 64.5232 55.614 64.9339 55.8567 65.4379C56.1087 65.9326 56.2767 66.4786 56.3607 67.0759C56.454 67.6732 56.5007 68.2519 56.5007 68.8119C56.5007 69.3719 56.454 69.9506 56.3607 70.5479C56.2767 71.1452 56.1087 71.6959 55.8567 72.1999C55.614 72.6946 55.2687 73.1052 54.8207 73.4319C54.382 73.7492 53.8127 73.9079 53.1127 73.9079C52.4127 73.9079 51.8387 73.7492 51.3907 73.4319C50.952 73.1052 50.6067 72.6946 50.3547 72.1999C50.112 71.6959 49.944 71.1452 49.8507 70.5479C49.7667 69.9506 49.7247 69.3719 49.7247 68.8119C49.7247 68.2519 49.7667 67.6732 49.8507 67.0759C49.944 66.4786 50.112 65.9326 50.3547 65.4379C50.6067 64.9339 50.952 64.5232 51.3907 64.2059C51.8387 63.8792 52.4127 63.7159 53.1127 63.7159ZM53.1127 72.5779C53.458 72.5779 53.7474 72.4799 53.9807 72.2839C54.214 72.0786 54.396 71.8079 54.5267 71.4719C54.6667 71.1266 54.7647 70.7252 54.8207 70.2679C54.8767 69.8106 54.9047 69.3252 54.9047 68.8119C54.9047 68.2986 54.8767 67.8179 54.8207 67.3699C54.7647 66.9126 54.6667 66.5112 54.5267 66.1659C54.396 65.8206 54.214 65.5499 53.9807 65.3539C53.7474 65.1486 53.458 65.0459 53.1127 65.0459C52.758 65.0459 52.464 65.1486 52.2307 65.3539C52.0067 65.5499 51.8247 65.8206 51.6847 66.1659C51.554 66.5112 51.4607 66.9126 51.4047 67.3699C51.3487 67.8179 51.3207 68.2986 51.3207 68.8119C51.3207 69.3252 51.3487 69.8106 51.4047 70.2679C51.4607 70.7252 51.554 71.1266 51.6847 71.4719C51.8247 71.8079 52.0067 72.0786 52.2307 72.2839C52.464 72.4799 52.758 72.5779 53.1127 72.5779ZM59.408 66.5019C59.408 66.7632 59.4267 67.0106 59.464 67.2439C59.5013 67.4679 59.562 67.6639 59.646 67.8319C59.73 67.9999 59.8373 68.1352 59.968 68.2379C60.108 68.3312 60.276 68.3779 60.472 68.3779C60.668 68.3779 60.836 68.3312 60.976 68.2379C61.116 68.1352 61.228 67.9999 61.312 67.8319C61.396 67.6639 61.4567 67.4679 61.494 67.2439C61.5407 67.0106 61.564 66.7632 61.564 66.5019C61.564 66.2686 61.5453 66.0399 61.508 65.8159C61.48 65.5919 61.424 65.3912 61.34 65.2139C61.256 65.0366 61.144 64.8966 61.004 64.7939C60.864 64.6819 60.6867 64.6259 60.472 64.6259C60.2573 64.6259 60.08 64.6819 59.94 64.7939C59.8 64.8966 59.688 65.0366 59.604 65.2139C59.5293 65.3912 59.478 65.5919 59.45 65.8159C59.422 66.0399 59.408 66.2686 59.408 66.5019ZM60.486 69.2879C60.066 69.2879 59.7067 69.2132 59.408 69.0639C59.1093 68.9146 58.8667 68.7139 58.68 68.4619C58.4933 68.2099 58.358 67.9159 58.274 67.5799C58.19 67.2439 58.148 66.8846 58.148 66.5019C58.148 66.1286 58.19 65.7739 58.274 65.4379C58.3673 65.0926 58.5073 64.7939 58.694 64.5419C58.89 64.2899 59.1327 64.0892 59.422 63.9399C59.7207 63.7906 60.0753 63.7159 60.486 63.7159C60.8967 63.7159 61.2467 63.7906 61.536 63.9399C61.8347 64.0892 62.0773 64.2899 62.264 64.5419C62.46 64.7939 62.6 65.0926 62.684 65.4379C62.7773 65.7739 62.824 66.1286 62.824 66.5019C62.824 66.8846 62.782 67.2439 62.698 67.5799C62.614 67.9159 62.4787 68.2099 62.292 68.4619C62.1053 68.7139 61.8627 68.9146 61.564 69.0639C61.2653 69.2132 60.906 69.2879 60.486 69.2879ZM66.436 71.1219C66.436 71.3832 66.4547 71.6306 66.492 71.8639C66.5293 72.0879 66.59 72.2839 66.674 72.4519C66.758 72.6199 66.8653 72.7552 66.996 72.8579C67.136 72.9512 67.304 72.9979 67.5 72.9979C67.696 72.9979 67.864 72.9512 68.004 72.8579C68.144 72.7552 68.256 72.6199 68.34 72.4519C68.424 72.2839 68.4847 72.0879 68.522 71.8639C68.5687 71.6306 68.592 71.3832 68.592 71.1219C68.592 70.8886 68.5733 70.6599 68.536 70.4359C68.508 70.2119 68.452 70.0112 68.368 69.8339C68.284 69.6566 68.172 69.5166 68.032 69.4139C67.892 69.3019 67.7147 69.2459 67.5 69.2459C67.2853 69.2459 67.108 69.3019 66.968 69.4139C66.828 69.5166 66.716 69.6566 66.632 69.8339C66.5573 70.0112 66.506 70.2119 66.478 70.4359C66.45 70.6599 66.436 70.8886 66.436 71.1219ZM67.514 73.9079C67.094 73.9079 66.7347 73.8332 66.436 73.6839C66.1373 73.5346 65.8947 73.3339 65.708 73.0819C65.5213 72.8299 65.386 72.5359 65.302 72.1999C65.218 71.8639 65.176 71.5046 65.176 71.1219C65.176 70.7486 65.218 70.3939 65.302 70.0579C65.3953 69.7126 65.5353 69.4139 65.722 69.1619C65.918 68.9099 66.1607 68.7092 66.45 68.5599C66.7487 68.4106 67.1033 68.3359 67.514 68.3359C67.9247 68.3359 68.2747 68.4106 68.564 68.5599C68.8627 68.7092 69.1053 68.9099 69.292 69.1619C69.488 69.4139 69.628 69.7126 69.712 70.0579C69.8053 70.3939 69.852 70.7486 69.852 71.1219C69.852 71.5046 69.81 71.8639 69.726 72.1999C69.642 72.5359 69.5067 72.8299 69.32 73.0819C69.1333 73.3339 68.8907 73.5346 68.592 73.6839C68.2933 73.8332 67.934 73.9079 67.514 73.9079ZM66.086 63.5759H67.15L61.732 74.0479H60.64L66.086 63.5759Z" fill="#1D2129"/>
</svg>
