<svg
                  width="150"
                  height="150"
                  viewBox="0 0 150 150"
                  fill="none"
                  xmlns="http://www.w3.org/2000/svg"
                >
                  <g clip-path="url(#clip0_6001_13294)">
                    <rect
                      x="0.332031"
                      width="149.338"
                      height="149.345"
                      rx="74.6688"
                      fill="white"
                    />
                    <path
                      d="M76.2819 -16.7425C24.9749 -17.4354 -16.9111 24.4485 -16.2181 75.753C-15.5339 124.957 24.5319 165.021 73.738 165.705C125.054 166.406 166.931 124.523 166.229 73.218C165.554 24.0055 125.488 -16.0583 76.2819 -16.7425ZM131.729 126.781C131.555 126.97 131.34 127.118 131.102 127.215C130.864 127.312 130.607 127.355 130.35 127.342C130.093 127.329 129.842 127.259 129.615 127.138C129.388 127.017 129.19 126.847 129.036 126.641C125.113 121.508 120.309 117.114 114.848 113.663C103.681 106.497 89.5319 102.55 75.01 102.55C60.488 102.55 46.3389 106.497 35.1723 113.663C29.7112 117.113 24.9069 121.505 20.9837 126.636C20.8295 126.843 20.632 127.012 20.4049 127.133C20.1779 127.255 19.927 127.324 19.6701 127.338C19.4131 127.351 19.1563 127.308 18.9179 127.211C18.6795 127.114 18.4654 126.966 18.2907 126.777C5.42084 112.884 -1.86943 94.7314 -2.183 75.7969C-2.89791 33.1191 32.124 -2.60284 74.8214 -2.7081C117.519 -2.81336 152.203 31.856 152.203 74.4811C152.218 93.8723 144.905 112.553 131.729 126.781Z"
                      fill="#BCBCBC"
                    />
                    <path
                      d="M75.0034 34.4668C67.9246 34.4668 61.5242 37.1196 56.9761 41.9405C52.4279 46.7614 50.1557 53.4275 50.669 60.5817C51.71 74.6712 62.6262 86.1581 75.0034 86.1581C87.3807 86.1581 98.2753 74.6712 99.3379 60.5853C99.8692 53.4993 97.6148 46.8943 92.9913 41.9836C88.4253 37.1375 82.0356 34.4668 75.0034 34.4668Z"
                      fill="#BCBCBC"
                    />
                  </g>
                  <rect
                    x="4.33203"
                    y="4"
                    width="141.338"
                    height="141.345"
                    rx="70.6688"
                    stroke="#BCBCBC"
                    stroke-width="8"
                  />
                  <defs>
                    <clipPath id="clip0_6001_13294">
                      <rect
                        x="0.332031"
                        width="149.338"
                        height="149.345"
                        rx="74.6688"
                        fill="white"
                      />
                    </clipPath>
                  </defs>
                </svg>