<svg width="68" height="61" viewBox="0 0 68 61" fill="none" xmlns="http://www.w3.org/2000/svg">
<path d="M60.6641 7.33268H50.0974L45.9641 2.83268C44.7307 1.46602 42.9307 0.666016 41.0641 0.666016H26.9307C25.0641 0.666016 23.2641 1.46602 21.9974 2.83268L17.8974 7.33268H7.33073C3.66406 7.33268 0.664062 10.3327 0.664062 13.9993V53.9993C0.664062 57.666 3.66406 60.666 7.33073 60.666H60.6641C64.3307 60.666 67.3307 57.666 67.3307 53.9993V13.9993C67.3307 10.3327 64.3307 7.33268 60.6641 7.33268ZM33.9974 50.666C24.7974 50.666 17.3307 43.1993 17.3307 33.9993C17.3307 24.7993 24.7974 17.3327 33.9974 17.3327C43.1974 17.3327 50.6641 24.7993 50.6641 33.9993C50.6641 43.1993 43.1974 50.666 33.9974 50.666Z" fill="#323232"/>
</svg>
