<svg width="20" height="18" viewBox="0 0 20 18" fill="none" xmlns="http://www.w3.org/2000/svg">
<path d="M3.125 4.25C3.29076 4.25 3.44973 4.18415 3.56694 4.06694C3.68415 3.94973 3.75 3.79076 3.75 3.625C3.75 3.45924 3.68415 3.30027 3.56694 3.18306C3.44973 3.06585 3.29076 3 3.125 3C2.95924 3 2.80027 3.06585 2.68306 3.18306C2.56585 3.30027 2.5 3.45924 2.5 3.625C2.5 3.79076 2.56585 3.94973 2.68306 4.06694C2.80027 4.18415 2.95924 4.25 3.125 4.25ZM5 4.25C5.16576 4.25 5.32473 4.18415 5.44194 4.06694C5.55915 3.94973 5.625 3.79076 5.625 3.625C5.625 3.45924 5.55915 3.30027 5.44194 3.18306C5.32473 3.06585 5.16576 3 5 3C4.83424 3 4.67527 3.06585 4.55806 3.18306C4.44085 3.30027 4.375 3.45924 4.375 3.625C4.375 3.79076 4.44085 3.94973 4.55806 4.06694C4.67527 4.18415 4.83424 4.25 5 4.25ZM7.5 3.625C7.5 3.79076 7.43415 3.94973 7.31694 4.06694C7.19973 4.18415 7.04076 4.25 6.875 4.25C6.70924 4.25 6.55027 4.18415 6.43306 4.06694C6.31585 3.94973 6.25 3.79076 6.25 3.625C6.25 3.45924 6.31585 3.30027 6.43306 3.18306C6.55027 3.06585 6.70924 3 6.875 3C7.04076 3 7.19973 3.06585 7.31694 3.18306C7.43415 3.30027 7.5 3.45924 7.5 3.625Z" fill="#344054"/>
<path d="M0 3C0 2.33696 0.263392 1.70107 0.732233 1.23223C1.20107 0.763392 1.83696 0.5 2.5 0.5H16.25C16.913 0.5 17.5489 0.763392 18.0178 1.23223C18.4866 1.70107 18.75 2.33696 18.75 3V8C18.75 8.16576 18.6842 8.32473 18.5669 8.44194C18.4497 8.55915 18.2908 8.625 18.125 8.625C17.9592 8.625 17.8003 8.55915 17.6831 8.44194C17.5658 8.32473 17.5 8.16576 17.5 8V6.75H1.25V13C1.25 13.3315 1.3817 13.6495 1.61612 13.8839C1.85054 14.1183 2.16848 14.25 2.5 14.25H9.375C9.54076 14.25 9.69973 14.3158 9.81694 14.4331C9.93415 14.5503 10 14.7092 10 14.875C10 15.0408 9.93415 15.1997 9.81694 15.3169C9.69973 15.4342 9.54076 15.5 9.375 15.5H2.5C1.83696 15.5 1.20107 15.2366 0.732233 14.7678C0.263392 14.2989 0 13.663 0 13V3ZM1.25 5.5H17.5V3C17.5 2.66848 17.3683 2.35054 17.1339 2.11612C16.8995 1.8817 16.5815 1.75 16.25 1.75H2.5C2.16848 1.75 1.85054 1.8817 1.61612 2.11612C1.3817 2.35054 1.25 2.66848 1.25 3V5.5Z" fill="#344054"/>
<path d="M20 13.625C20 14.7853 19.5391 15.8981 18.7186 16.7186C17.8981 17.5391 16.7853 18 15.625 18C14.4647 18 13.3519 17.5391 12.5314 16.7186C11.7109 15.8981 11.25 14.7853 11.25 13.625C11.25 12.4647 11.7109 11.3519 12.5314 10.5314C13.3519 9.71094 14.4647 9.25 15.625 9.25C16.7853 9.25 17.8981 9.71094 18.7186 10.5314C19.5391 11.3519 20 12.4647 20 13.625ZM15.625 11.125C15.4592 11.125 15.3003 11.1908 15.1831 11.3081C15.0658 11.4253 15 11.5842 15 11.75V13H13.75C13.5842 13 13.4253 13.0658 13.3081 13.1831C13.1908 13.3003 13.125 13.4592 13.125 13.625C13.125 13.7908 13.1908 13.9497 13.3081 14.0669C13.4253 14.1842 13.5842 14.25 13.75 14.25H15V15.5C15 15.6658 15.0658 15.8247 15.1831 15.9419C15.3003 16.0592 15.4592 16.125 15.625 16.125C15.7908 16.125 15.9497 16.0592 16.0669 15.9419C16.1842 15.8247 16.25 15.6658 16.25 15.5V14.25H17.5C17.6658 14.25 17.8247 14.1842 17.9419 14.0669C18.0592 13.9497 18.125 13.7908 18.125 13.625C18.125 13.4592 18.0592 13.3003 17.9419 13.1831C17.8247 13.0658 17.6658 13 17.5 13H16.25V11.75C16.25 11.5842 16.1842 11.4253 16.0669 11.3081C15.9497 11.1908 15.7908 11.125 15.625 11.125Z" fill="#344054"/>
</svg>
