<svg width="16" height="17" viewBox="0 0 16 17" fill="none" xmlns="http://www.w3.org/2000/svg">
<path d="M2.66667 0.5C1.19387 0.5 0 1.69378 0 3.16667V4.94444V12.9444C0 14.908 1.59191 16.5 3.55556 16.5H12.4444C14.4081 16.5 16.0001 14.908 16 12.9444V4.94444C16 4.45378 15.602 4.05555 15.1111 4.05555H10.6667C9.99582 4.05555 9.77991 3.83777 9.24996 2.77733C8.44667 1.17111 7.77351 0.5 6.22222 0.5H2.66667ZM2.66667 2.27778H6.22222C6.89307 2.27778 7.10898 2.49556 7.63893 3.556C7.75493 3.788 7.80302 3.86178 7.91662 4.05555H4.41671C3.92578 4.05555 3.52773 4.45378 3.52782 4.94444C3.52782 5.43511 3.92578 5.83333 4.41671 5.83333H10.6667H14.2222V12.9444C14.2222 13.9267 13.4263 14.7222 12.4444 14.7222H3.55556C2.57369 14.7222 1.77769 13.9267 1.77778 12.9444V4.94444V3.16667C1.77778 2.676 2.17573 2.27778 2.66667 2.27778ZM8 7.61111C7.50907 7.61111 7.11111 8.00933 7.11111 8.5V9.38889H6.22222C5.73129 9.38889 5.33333 9.78711 5.33333 10.2778C5.33333 10.7684 5.73129 11.1667 6.22222 11.1667H7.11111V12.0556C7.11111 12.5462 7.50907 12.9444 8 12.9444C8.49093 12.9444 8.88889 12.5462 8.88889 12.0556V11.1667H9.77778C10.2687 11.1667 10.6667 10.7684 10.6667 10.2778C10.6667 9.78711 10.2687 9.38889 9.77778 9.38889H8.88889V8.5C8.88889 8.00933 8.49093 7.61111 8 7.61111Z" fill="black" fill-opacity="0.6"/>
</svg>
